<svg width="2000" height="2000" viewBox="0 0 2000 2000" fill="none" xmlns="http://www.w3.org/2000/svg">
<g clip-path="url(#clip0_11_510)">
<mask id="mask0_11_510" style="mask-type:luminance" maskUnits="userSpaceOnUse" x="0" y="0" width="2000" height="2000">
<path d="M2000 0H0V2000H2000V0Z" fill="white"/>
</mask>
<g mask="url(#mask0_11_510)">
<mask id="mask1_11_510" style="mask-type:luminance" maskUnits="userSpaceOnUse" x="-996" y="-85" width="4128" height="2322">
<path d="M-996 -85H3132V2237H-996V-85Z" fill="white"/>
</mask>
<g mask="url(#mask1_11_510)">
<mask id="mask2_11_510" style="mask-type:luminance" maskUnits="userSpaceOnUse" x="-996" y="-85" width="4128" height="2322">
<path d="M-996 -85H3132V2237H-996V-85Z" fill="white"/>
</mask>
<g mask="url(#mask2_11_510)">
<mask id="mask3_11_510" style="mask-type:luminance" maskUnits="userSpaceOnUse" x="-472" y="-146" width="2955" height="2065">
<path d="M2482.7 -145.2H-471.4V1918.8H2482.7V-145.2Z" fill="white"/>
</mask>
<g mask="url(#mask3_11_510)">
<path d="M1702.3 1036.39C1702.08 696.873 1753.13 606.986 1569.14 320.152C1385.15 33.3185 934.126 -30.2011 593.05 182.55C251.976 395.301 160.272 668.908 160.272 668.908C160.272 668.908 36.516 988.499 210.427 1310.31C369.469 1604.69 682.671 1771.94 954.323 1909.55H1648.95C1691.17 1873.96 1727.07 1831.49 1755.13 1783.93C1896.59 1545.88 1702.57 1375.92 1702.3 1036.39Z" fill="#E4D738"/>
</g>
</g>
<path d="M70.5183 1911.14H1866.36" stroke="#253138" stroke-width="4.43975" stroke-linecap="round" stroke-linejoin="round"/>
<path d="M1505.97 1537.22L1607.35 1911.15H1634.08L1532.74 1537.22H1505.97Z" fill="#757575"/>
<path d="M1505.97 1537.22L1607.35 1911.15H1634.08L1532.74 1537.22H1505.97Z" stroke="#253138" stroke-width="4.43975" stroke-linecap="round" stroke-linejoin="round"/>
<path d="M1101.29 1251.63L1280.08 1911.15H1306.8L1128.05 1251.63H1101.29Z" fill="#757575"/>
<path d="M1101.29 1251.63L1280.08 1911.15H1306.8L1128.05 1251.63H1101.29Z" stroke="#253138" stroke-width="4.43975" stroke-linecap="round" stroke-linejoin="round"/>
<path d="M1165.07 1724.18H1503.97V1751.79H1165.07V1724.18Z" fill="#999999"/>
<path d="M1165.07 1724.18H1503.97V1751.79H1165.07V1724.18Z" stroke="#253138" stroke-width="4.43975" stroke-linecap="round" stroke-linejoin="round"/>
<path d="M1684.77 1103.51L1465.8 1911.37H1439.17L1658.09 1103.51C1666.17 1073.73 1647.66 1049.49 1616.81 1049.49H1428.16C1397.35 1049.49 1365.66 1073.73 1357.58 1103.51L1138.58 1911.37H1111.94L1330.91 1103.51C1342.85 1059.43 1389.54 1023.61 1435.17 1023.61H1623.87C1669.36 1023.61 1696.71 1059.39 1684.77 1103.51Z" fill="#757575"/>
<path d="M1684.77 1103.51L1465.8 1911.37H1439.17L1658.09 1103.51C1666.17 1073.73 1647.66 1049.49 1616.81 1049.49H1428.16C1397.35 1049.49 1365.66 1073.73 1357.58 1103.51L1138.58 1911.37H1111.94L1330.91 1103.51C1342.85 1059.43 1389.54 1023.61 1435.17 1023.61H1623.87C1669.36 1023.61 1696.71 1059.39 1684.77 1103.51Z" stroke="#253138" stroke-width="4.43975" stroke-linecap="round" stroke-linejoin="round"/>
<path d="M1688.23 1103.73L1633.89 1304.27C1628.53 1321.57 1612.85 1333.62 1594.75 1334.32H1284.74C1272.38 1335.29 1261.57 1326.06 1260.59 1313.69C1260.35 1310.53 1260.77 1307.35 1261.84 1304.36L1316.22 1103.82C1321.62 1086.56 1337.29 1074.57 1355.36 1073.86H1665.33C1677.75 1072.97 1688.54 1082.32 1689.43 1094.74V1094.76C1689.63 1097.8 1689.22 1100.85 1688.23 1103.73Z" fill="#F5A623"/>
<path d="M1123.62 1519.64H1546.37C1550.56 1519.64 1553.96 1523.04 1553.96 1527.24V1546.37C1553.96 1550.56 1550.56 1553.96 1546.37 1553.96H1123.62C1119.43 1553.96 1116.03 1550.56 1116.03 1546.37V1527.24C1116.03 1523.04 1119.43 1519.64 1123.62 1519.64Z" fill="#999999"/>
<path d="M1123.62 1519.64H1546.37C1550.56 1519.64 1553.96 1523.04 1553.96 1527.24V1546.37C1553.96 1550.56 1550.56 1553.96 1546.37 1553.96H1123.62C1119.43 1553.96 1116.03 1550.56 1116.03 1546.37V1527.24C1116.03 1523.04 1119.43 1519.64 1123.62 1519.64Z" stroke="#253138" stroke-width="4.43975" stroke-linecap="round" stroke-linejoin="round"/>
<path d="M1688.23 1103.73L1633.89 1304.27C1628.53 1321.57 1612.85 1333.62 1594.75 1334.32H1284.74C1272.38 1335.29 1261.57 1326.06 1260.59 1313.69C1260.35 1310.53 1260.77 1307.35 1261.84 1304.36L1316.22 1103.82C1321.62 1086.56 1337.29 1074.57 1355.36 1073.86H1665.33C1677.75 1072.97 1688.54 1082.32 1689.43 1094.74V1094.76C1689.63 1097.8 1689.22 1100.85 1688.23 1103.73Z" stroke="#253138" stroke-width="4.43975" stroke-linecap="round" stroke-linejoin="round"/>
<path d="M1532.83 1494.12V1530.7H1133.69V1494.12C1133.69 1479.27 1145.74 1467.22 1160.59 1467.22H1505.89C1520.71 1467.18 1532.78 1479.16 1532.83 1493.99V1494.12Z" fill="#F5A623"/>
<path d="M1532.83 1494.12V1530.7H1133.69V1494.12C1133.69 1479.27 1145.74 1467.22 1160.59 1467.22H1505.89C1520.71 1467.18 1532.78 1479.16 1532.83 1493.99V1494.12Z" stroke="#253138" stroke-width="4.43975" stroke-linecap="round" stroke-linejoin="round"/>
<path d="M1190.64 1849.6L1212.57 1911.38C1212.57 1911.38 1218.69 1936.37 1107.19 1928.47L1045.76 1923.23L1190.64 1849.6Z" fill="black"/>
<path d="M1190.11 1849.6L1212.57 1911.38C1212.57 1911.38 1218.7 1936.37 1107.19 1928.47L1045.76 1923.23L1190.11 1849.6Z" fill="#F5A623"/>
<path d="M1120.73 1520.77C1101.6 1540.25 1194.33 1846.44 1194.33 1846.44C1184.21 1855.32 1169.29 1859.4 1155.18 1861.27C1142.2 1862.88 1129.09 1863.07 1116.07 1861.84C1116.07 1861.84 983.174 1539.5 1019.75 1459.51C1056.32 1379.53 1283.28 1343.22 1283.28 1343.22L1292.95 1319.25L1410.36 1302.74L1429.76 1446.51C1429.76 1446.51 1410.5 1448.37 1381.51 1452.1C1303.79 1461.95 1155.89 1485.26 1120.73 1520.77Z" fill="#253138"/>
<path d="M1194.33 1846.62C1184.21 1855.49 1169.29 1859.58 1155.18 1861.44C1129.39 1765.57 1063.74 1509.71 1088.59 1478.42C1119.27 1439.8 1271.07 1404.69 1271.07 1404.69C1271.69 1384.98 1324.91 1367.23 1324.91 1367.23L1381.46 1451.97C1303.74 1461.95 1155.84 1485.26 1120.69 1520.77C1101.6 1540.43 1194.33 1846.62 1194.33 1846.62Z" fill="black"/>
<path d="M1120.73 1520.77C1101.6 1540.25 1194.33 1846.44 1194.33 1846.44C1184.21 1855.32 1169.29 1859.4 1155.18 1861.27C1142.2 1862.88 1129.09 1863.07 1116.07 1861.84C1116.07 1861.84 983.174 1539.5 1019.75 1459.51C1056.32 1379.53 1283.28 1343.22 1283.28 1343.22L1292.95 1319.25L1410.36 1302.74L1429.76 1446.51C1429.76 1446.51 1410.5 1448.37 1381.51 1452.1C1303.79 1461.95 1155.89 1485.26 1120.73 1520.77Z" stroke="#253138" stroke-width="4.43975" stroke-linecap="round" stroke-linejoin="round"/>
<path d="M1106.04 1485.26C1106.04 1485.26 1120.24 1492.45 1117.18 1512.82" stroke="white" stroke-width="4.43975" stroke-linecap="round" stroke-linejoin="round"/>
<path d="M1091.08 1502.57C1091.08 1502.57 1110.48 1514.07 1111.85 1524.36" stroke="white" stroke-width="4.43975" stroke-linecap="round" stroke-linejoin="round"/>
<path d="M1189.03 1852.83L1212.57 1911.38C1212.57 1911.38 1218.7 1936.37 1107.19 1928.47L1045.76 1923.23L1189.03 1852.83Z" stroke="#253138" stroke-width="4.43975" stroke-linecap="round" stroke-linejoin="round"/>
<path d="M1168.58 1867.13C1168.58 1867.13 1177.11 1904.77 1169.68 1933C1169.68 1933 1052.33 1953.38 1025.89 1946.8C999.457 1940.23 983.261 1927.36 982.353 1920.9C982.353 1920.9 982.985 1902.86 1009.26 1897.14C1035.53 1891.42 1087.89 1886.95 1108.12 1856.87C1128.35 1826.78 1168.58 1867.13 1168.58 1867.13Z" fill="#F5A623"/>
<path d="M1168.58 1867.13C1168.58 1867.13 1177.11 1904.77 1169.68 1933C1169.68 1933 1052.33 1953.38 1025.89 1946.8C999.457 1940.23 983.261 1927.36 982.353 1920.9C982.353 1920.9 982.985 1902.86 1009.26 1897.14C1035.53 1891.42 1087.89 1886.95 1108.12 1856.87C1128.35 1826.78 1168.58 1867.13 1168.58 1867.13Z" stroke="#253138" stroke-width="4.43975" stroke-linecap="round" stroke-linejoin="round"/>
<path d="M1314.66 1316.09C1351.35 1261.84 1525.25 1323.49 1525.25 1323.49C1525.25 1323.49 1543.88 1452.28 1475.62 1487.87C1407.35 1523.46 1308.09 1523.25 1281.75 1551.61L1178.04 1875.56C1178.04 1875.56 1139.13 1892.59 1081.71 1867.75C1081.71 1867.75 1146.92 1623.34 1165.81 1536.63C1184.48 1450.82 1313.68 1390.64 1313.68 1390.64C1306.84 1382.83 1301.61 1373.74 1298.28 1363.91" fill="#253138"/>
<path d="M1314.66 1316.09C1351.35 1261.84 1525.25 1323.49 1525.25 1323.49C1525.25 1323.49 1543.88 1452.28 1475.62 1487.87C1407.35 1523.46 1308.09 1523.25 1281.75 1551.61L1178.04 1875.56C1178.04 1875.56 1139.13 1892.59 1081.71 1867.75C1081.71 1867.75 1146.92 1623.34 1165.81 1536.63C1184.48 1450.82 1313.68 1390.64 1313.68 1390.64C1306.84 1382.83 1301.61 1373.74 1298.28 1363.91" stroke="#253138" stroke-width="4.43975" stroke-linecap="round" stroke-linejoin="round"/>
<path d="M1491.68 1436.54C1486.24 1441.52 1480.52 1446.18 1474.55 1450.5" stroke="white" stroke-width="4.43975" stroke-linecap="round" stroke-linejoin="round"/>
<path d="M1504.01 1326.99C1518.63 1357.38 1520.39 1396.24 1501.2 1424.93" stroke="white" stroke-width="4.43975" stroke-linecap="round" stroke-linejoin="round"/>
<path d="M1464.72 1332.58C1464.72 1332.58 1461.52 1356.25 1472.2 1365.44C1482.87 1374.63 1515.22 1378.84 1515.22 1378.84" stroke="white" stroke-width="4.43975" stroke-linecap="round" stroke-linejoin="round"/>
<path d="M1323.07 1336.01C1323.07 1336.01 1324.93 1359.51 1315.37 1358.56C1305.81 1357.61 1305.5 1368.14 1305.5 1368.14" stroke="white" stroke-width="4.43975" stroke-linecap="round" stroke-linejoin="round"/>
<path d="M1272.36 1521.14C1272.36 1521.14 1277.35 1524.78 1279.57 1538.2" stroke="white" stroke-width="4.43975" stroke-linecap="round" stroke-linejoin="round"/>
<path d="M1254.41 1538.62C1263.09 1539.41 1271.04 1543.83 1276.32 1550.77" stroke="white" stroke-width="4.43975" stroke-linecap="round" stroke-linejoin="round"/>
<path d="M1055.04 1230.94C1035.55 1227.61 1174.26 1106 1174.26 1106L1241.16 1151C1241.16 1151 1127.34 1231.17 1109.46 1233.34C1091.57 1235.52 1055.04 1230.94 1055.04 1230.94Z" fill="white"/>
<path d="M1055.04 1230.94C1035.55 1227.61 1174.26 1106 1174.26 1106L1241.16 1151C1241.16 1151 1127.34 1231.17 1109.46 1233.34C1091.57 1235.52 1055.04 1230.94 1055.04 1230.94Z" stroke="#253138" stroke-width="4.43975" stroke-linecap="round" stroke-linejoin="round"/>
<path d="M1217.72 1052.82C1200.28 1064.98 1121.93 1145.54 1121.93 1145.54C1121.93 1145.54 1158.64 1187.31 1190.82 1193.35L1278.04 1151L1217.72 1052.82Z" fill="#F5A623"/>
<path d="M1217.72 1052.82C1200.28 1064.98 1121.93 1145.54 1121.93 1145.54C1121.93 1145.54 1158.64 1187.31 1190.82 1193.35L1278.04 1151L1217.72 1052.82Z" stroke="#253138" stroke-width="4.43975" stroke-linecap="round" stroke-linejoin="round"/>
<path d="M1217.72 1052.82C1200.28 1064.98 1121.93 1145.54 1121.93 1145.54C1121.93 1145.54 1158.64 1187.31 1190.82 1193.35L1278.04 1151L1217.72 1052.82Z" stroke="#253138" stroke-width="4.43975" stroke-linecap="round" stroke-linejoin="round"/>
<path d="M1220.03 1070.93C1218.57 1065 1217.8 1058.92 1217.72 1052.82C1217.72 1052.82 1270.98 1007.9 1339.56 1008.16C1421.24 1008.43 1471.17 1034.13 1491.15 1069.82C1522.84 1126.28 1527.28 1326.25 1527.28 1326.25C1527.28 1326.25 1322.34 1357.85 1292.95 1319.1C1287.85 1312.35 1291.75 1264.72 1291.75 1264.72C1291.75 1264.72 1268.81 1204.53 1263.97 1157.84C1257.23 1148.54 1250.96 1138.92 1245.19 1128.99C1237.9 1116.77 1231.57 1103.98 1226.28 1090.77" fill="#F5A623"/>
<path d="M1220.03 1070.93C1218.57 1065 1217.8 1058.92 1217.72 1052.82C1217.72 1052.82 1270.98 1007.9 1339.56 1008.16C1421.24 1008.43 1471.17 1034.13 1491.15 1069.82C1522.84 1126.28 1527.28 1326.25 1527.28 1326.25C1527.28 1326.25 1322.34 1357.85 1292.95 1319.1C1287.85 1312.35 1291.75 1264.72 1291.75 1264.72C1291.75 1264.72 1268.81 1204.53 1263.97 1157.84C1257.23 1148.54 1250.96 1138.92 1245.19 1128.99C1237.9 1116.77 1231.57 1103.98 1226.28 1090.77" stroke="#253138" stroke-width="4.43975" stroke-linecap="round" stroke-linejoin="round"/>
<path d="M1220.03 1070.93C1218.57 1065 1217.8 1058.92 1217.72 1052.82C1217.72 1052.82 1270.98 1007.9 1339.56 1008.16C1421.24 1008.43 1471.17 1034.13 1491.15 1069.82C1522.84 1126.28 1527.28 1326.25 1527.28 1326.25C1527.28 1326.25 1322.34 1357.85 1292.95 1319.1C1287.85 1312.35 1291.75 1264.72 1291.75 1264.72C1291.75 1264.72 1268.81 1204.53 1263.97 1157.84C1257.23 1148.54 1250.96 1138.92 1245.19 1128.99C1237.9 1116.77 1231.57 1103.98 1226.28 1090.77" stroke="#253138" stroke-width="4.43975" stroke-linecap="round" stroke-linejoin="round"/>
<path d="M1298.51 1119C1298.51 1119 1329.8 1240.4 1325.14 1267.12C1324.02 1276.34 1325.56 1285.69 1329.57 1294.06C1321.19 1302.88 1319.4 1316.09 1325.14 1326.82" stroke="#253138" stroke-width="4.43975" stroke-linecap="round" stroke-linejoin="round"/>
<path d="M1381.51 1219.45C1375.92 1219.24 1370.49 1217.52 1365.8 1214.48L1356.52 1173.82C1374.92 1175.49 1393.48 1174.19 1411.47 1169.96L1421.41 1214.34C1415.82 1215.9 1410.15 1217.13 1404.41 1218.03" stroke="#253138" stroke-width="4.43975" stroke-linecap="round" stroke-linejoin="round"/>
<path d="M1276.27 1134.8C1276.27 1134.8 1249.63 1021.35 1316.84 1008.16C1384.04 994.98 1397.84 1026.36 1393.89 1047.62C1388.61 1075.99 1332.91 1145.54 1332.91 1145.54L1298.51 1118.91L1276.27 1134.8Z" fill="#F5A623"/>
<path d="M1276.27 1134.8C1276.27 1134.8 1249.63 1021.35 1316.84 1008.16C1384.04 994.98 1397.84 1026.36 1393.89 1047.62C1388.61 1075.99 1332.91 1145.54 1332.91 1145.54L1298.51 1118.91L1276.27 1134.8Z" stroke="#253138" stroke-width="4.43975" stroke-linecap="round" stroke-linejoin="round"/>
<path d="M1276.27 1134.8C1276.27 1134.8 1249.63 1021.35 1316.84 1008.16C1384.04 994.98 1397.84 1026.36 1393.89 1047.62C1388.61 1075.99 1332.91 1145.54 1332.91 1145.54L1298.51 1118.91L1276.27 1134.8Z" fill="white"/>
<path d="M1276.27 1134.8C1276.27 1134.8 1249.63 1021.35 1316.84 1008.16C1384.04 994.98 1397.84 1026.36 1393.89 1047.62C1388.61 1075.99 1332.91 1145.54 1332.91 1145.54L1298.51 1118.91L1276.27 1134.8Z" stroke="#253138" stroke-width="4.43975" stroke-linecap="round" stroke-linejoin="round"/>
<path d="M1443.7 1223.36C1443.7 1223.36 1461.45 1253.32 1534.56 1250.57C1520.95 1236 1503.74 1225.28 1484.67 1219.49C1454.79 1211.5 1443.7 1223.36 1443.7 1223.36Z" fill="#F5A623"/>
<path d="M1443.7 1223.36C1443.7 1223.36 1461.45 1253.32 1534.56 1250.57C1520.95 1236 1503.74 1225.28 1484.67 1219.49C1454.79 1211.5 1443.7 1223.36 1443.7 1223.36Z" stroke="#253138" stroke-width="4.43975" stroke-linecap="round" stroke-linejoin="round"/>
<path d="M1298.51 1114.12C1294.78 1103.54 1293.26 1092.32 1294.07 1081.14C1294.24 1077.34 1294.64 1073.56 1295.26 1069.82L1287.76 1057.92L1278.13 1042.61L1289.27 998.22C1289.27 998.22 1360.29 1011.89 1365.62 1031.69C1370.95 1051.49 1298.51 1114.12 1298.51 1114.12Z" fill="white"/>
<path d="M1298.51 1114.12C1294.78 1103.54 1293.26 1092.32 1294.07 1081.14C1294.24 1077.34 1294.64 1073.56 1295.26 1069.82L1287.76 1057.92L1278.13 1042.61L1289.27 998.22C1289.27 998.22 1360.29 1011.89 1365.62 1031.69C1370.95 1051.49 1298.51 1114.12 1298.51 1114.12Z" stroke="#253138" stroke-width="4.43975" stroke-linecap="round" stroke-linejoin="round"/>
<mask id="mask4_11_510" style="mask-type:luminance" maskUnits="userSpaceOnUse" x="-996" y="-85" width="4128" height="2322">
<path d="M-996 -85H3132V2237H-996V-85Z" fill="white"/>
</mask>
<g mask="url(#mask4_11_510)">
<path d="M1222.11 494.109H992.763C975.896 494.109 962.224 507.783 962.224 524.65V721.777C962.224 738.641 975.896 752.315 992.763 752.315H1094.41L1152.65 822.491L1138.04 752.315H1222.11C1238.93 752.242 1252.52 738.59 1252.52 721.777V524.65C1252.52 507.834 1238.93 494.182 1222.11 494.109Z" fill="white"/>
<path d="M1222.11 494.109H992.763C975.896 494.109 962.224 507.783 962.224 524.65V721.777C962.224 738.641 975.896 752.315 992.763 752.315H1094.41L1152.65 822.491L1138.04 752.315H1222.11C1238.93 752.242 1252.52 738.59 1252.52 721.777V524.65C1252.52 507.834 1238.93 494.182 1222.11 494.109Z" stroke="#253138" stroke-width="4.43975" stroke-linecap="round" stroke-linejoin="round"/>
<path d="M1072.29 699.04L1080.8 705.065L1085.97 698.99C1087.59 699.575 1089.27 699.961 1090.98 700.135L1092.96 707.791L1103.39 706.036L1102.73 698.125C1104.26 697.364 1105.7 696.456 1107.04 695.41L1113.9 699.393L1120.01 690.77L1113.94 685.662C1114.51 684.043 1114.89 682.363 1115.09 680.657L1122.77 678.64L1120.95 668.221L1113.07 668.902C1112.32 667.359 1111.4 665.904 1110.33 664.564L1114.31 657.704L1105.72 651.628L1100.58 657.669C1098.96 657.101 1097.28 656.716 1095.57 656.521L1093.45 648.763L1083.02 650.517L1083.67 658.43C1082.14 659.202 1080.69 660.123 1079.34 661.18L1072.5 657.161L1066.4 665.784L1072.44 670.928C1071.9 672.543 1071.53 674.206 1071.31 675.898L1063.64 677.913L1065.45 688.333L1073.33 687.651C1074.06 689.205 1074.99 690.662 1076.08 691.991L1072.29 699.04ZM1083.33 671.291C1087.25 665.747 1094.92 664.434 1100.47 668.355C1106.01 672.277 1107.33 679.95 1103.4 685.494C1099.48 691.037 1091.81 692.352 1086.26 688.431C1080.75 684.498 1079.45 676.846 1083.36 671.318L1083.33 671.291Z" fill="#F5A623"/>
<path d="M1124.47 670.42L1136.57 678.983L1143.81 670.453C1146.07 671.266 1148.43 671.805 1150.83 672.052L1153.63 682.844L1168.23 680.343L1167.35 669.222C1169.52 668.172 1171.56 666.881 1173.44 665.376L1183.03 671.025L1191.63 658.883L1183.1 651.714C1183.91 649.428 1184.45 647.061 1184.73 644.655L1195.48 641.824L1192.98 627.223L1181.9 628.133C1180.86 625.967 1179.56 623.933 1178.03 622.077L1183.66 612.42L1171.56 603.857L1164.33 612.385C1162.07 611.562 1159.72 611.016 1157.33 610.752L1154.5 599.998L1139.86 602.473L1140.81 613.583C1138.61 614.61 1136.56 615.917 1134.7 617.465L1125.06 611.791L1116.47 623.933L1125.03 631.128C1124.2 633.391 1123.66 635.747 1123.43 638.15L1112.61 640.992L1115.15 655.619L1126.26 654.672C1127.28 656.859 1128.57 658.904 1130.11 660.761L1124.47 670.42ZM1139.98 631.431C1145.49 623.646 1156.27 621.8 1164.05 627.307C1171.84 632.815 1173.68 643.589 1168.17 651.375C1162.67 659.161 1151.89 661.004 1144.11 655.497C1136.32 649.989 1134.48 639.217 1139.98 631.431Z" fill="#F5A623"/>
<path d="M1026.86 632.791L1043.89 644.841L1054 632.855C1057.2 633.974 1060.52 634.73 1063.88 635.111L1067.84 650.257L1088.41 646.702L1087.11 631.101C1090.17 629.648 1093.05 627.829 1095.67 625.686L1109.2 633.621L1121.24 616.591L1109.26 606.481C1110.41 603.292 1111.16 599.975 1111.52 596.603L1126.66 592.638L1123.17 572.06L1107.47 573.191C1106.01 570.129 1104.2 567.242 1102.08 564.592L1110.02 551.067L1092.99 539.018L1082.84 550.98C1079.64 549.863 1076.31 549.119 1072.94 548.76L1069 533.574L1048.43 537.13L1049.74 552.733C1046.68 554.188 1043.8 556.005 1041.17 558.149L1027.65 550.21L1015.6 567.242L1027.59 577.354C1026.44 580.543 1025.68 583.859 1025.33 587.231L1010.18 591.194L1013.68 611.771L1029.28 610.469C1030.76 613.517 1032.58 616.388 1034.7 619.031L1026.86 632.791ZM1048.65 578.013C1056.38 567.052 1071.53 564.427 1082.49 572.152C1093.45 579.878 1096.07 595.026 1088.35 605.985C1080.62 616.948 1065.47 619.571 1054.51 611.846C1043.58 604.17 1040.94 589.081 1048.61 578.147L1048.66 578.075L1048.65 578.013Z" fill="#F5A623"/>
</g>
<mask id="mask5_11_510" style="mask-type:luminance" maskUnits="userSpaceOnUse" x="-996" y="-85" width="4128" height="2322">
<path d="M-996 -85H3132V2237H-996V-85Z" fill="white"/>
</mask>
<g mask="url(#mask5_11_510)">
<path d="M978.024 973.426L952.661 1530.55L581.939 1513.7L584.635 1454.64L607.301 956.529L840.729 967.15L978.024 973.426Z" fill="white"/>
<path d="M978.024 973.426L952.661 1530.55L581.939 1513.7L584.635 1454.64L607.301 956.529L840.729 967.15L978.024 973.426Z" stroke="#253138" stroke-width="4.43975" stroke-linecap="round" stroke-linejoin="round"/>
<path d="M633.715 994.43L730.201 998.818" stroke="#253138" stroke-width="8.87735" stroke-linecap="round" stroke-linejoin="round"/>
<path d="M632.866 1012.95L698.494 1015.95" stroke="#253138" stroke-width="8.87735" stroke-linecap="round" stroke-linejoin="round"/>
<path d="M654.398 1057.76L931.916 1070.38" stroke="#253138" stroke-width="8.87735" stroke-linecap="round" stroke-linejoin="round"/>
<path d="M653.551 1076.28L931.069 1088.9" stroke="#253138" stroke-width="8.87735" stroke-linecap="round" stroke-linejoin="round"/>
<path d="M652.591 1097.9L889.257 1108.63" stroke="#253138" stroke-width="8.87735" stroke-linecap="round" stroke-linejoin="round"/>
<path d="M651.796 1140.19L652.825 1117.62L675.395 1118.65L674.366 1141.22L651.796 1140.19Z" stroke="#253138" stroke-width="4.43975" stroke-linecap="round" stroke-linejoin="round"/>
<path d="M692.707 1142.07L693.737 1119.5L716.306 1120.53L715.277 1143.1L692.707 1142.07Z" stroke="#253138" stroke-width="4.43975" stroke-linecap="round" stroke-linejoin="round"/>
<path d="M733.569 1143.95L734.598 1121.38L757.168 1122.41L756.139 1144.98L733.569 1143.95Z" stroke="#253138" stroke-width="4.43975" stroke-linecap="round" stroke-linejoin="round"/>
<path d="M774.479 1145.83L775.508 1123.26L798.078 1124.29L797.048 1146.86L774.479 1145.83Z" stroke="#253138" stroke-width="4.43975" stroke-linecap="round" stroke-linejoin="round"/>
<path d="M639.611 1057.07C639.513 1060.15 636.928 1062.58 633.84 1062.48L633.833 1062.48C630.719 1062.34 628.305 1059.7 628.445 1056.59C628.582 1053.47 631.217 1051.06 634.331 1051.2C637.417 1051.32 639.822 1053.92 639.701 1057.01C639.701 1057.01 639.699 1057.02 639.697 1057.02L639.611 1057.07Z" fill="#253138"/>
<path d="M649.47 1165.79L926.988 1178.42" stroke="#253138" stroke-width="8.87735" stroke-linecap="round" stroke-linejoin="round"/>
<path d="M648.623 1184.31L926.141 1196.93" stroke="#253138" stroke-width="8.87735" stroke-linecap="round" stroke-linejoin="round"/>
<path d="M647.665 1205.93L884.331 1216.67" stroke="#253138" stroke-width="8.87735" stroke-linecap="round" stroke-linejoin="round"/>
<path d="M646.823 1248.29L647.852 1225.72L670.422 1226.75L669.393 1249.32L646.823 1248.29Z" stroke="#253138" stroke-width="4.43975" stroke-linecap="round" stroke-linejoin="round"/>
<path d="M687.773 1250.13L688.802 1227.56L711.372 1228.59L710.343 1251.16L687.773 1250.13Z" stroke="#253138" stroke-width="4.43975" stroke-linecap="round" stroke-linejoin="round"/>
<path d="M728.637 1251.96L729.666 1229.4L752.236 1230.42L751.206 1252.99L728.637 1251.96Z" stroke="#253138" stroke-width="4.43975" stroke-linecap="round" stroke-linejoin="round"/>
<path d="M769.501 1253.84L770.53 1231.28L793.1 1232.31L792.071 1254.88L769.501 1253.84Z" stroke="#253138" stroke-width="4.43975" stroke-linecap="round" stroke-linejoin="round"/>
<path d="M634.726 1165.1C634.604 1168.21 631.985 1170.63 628.873 1170.51L628.86 1170.51C625.724 1170.38 623.287 1167.74 623.416 1164.6C623.544 1161.46 626.191 1159.03 629.325 1159.16C632.456 1159.28 634.891 1161.92 634.771 1165.05L634.726 1165.1Z" fill="#253138"/>
<path d="M644.587 1273.82L922.062 1286.45" stroke="#253138" stroke-width="8.87735" stroke-linecap="round" stroke-linejoin="round"/>
<path d="M643.74 1292.34L921.215 1304.96" stroke="#253138" stroke-width="8.87735" stroke-linecap="round" stroke-linejoin="round"/>
<path d="M642.736 1313.92L879.403 1324.7" stroke="#253138" stroke-width="8.87735" stroke-linecap="round" stroke-linejoin="round"/>
<path d="M641.937 1356.26L642.967 1333.69L665.536 1334.72L664.507 1357.29L641.937 1356.26Z" stroke="#253138" stroke-width="4.43975" stroke-linecap="round" stroke-linejoin="round"/>
<path d="M687.69 1358.01L688.66 1335.4L711.279 1336.37L710.306 1358.99L687.69 1358.01Z" stroke="#253138" stroke-width="4.44405" stroke-linecap="round" stroke-linejoin="round"/>
<path d="M723.706 1360.02L724.736 1337.45L747.305 1338.48L746.276 1361.05L723.706 1360.02Z" stroke="#253138" stroke-width="4.43975" stroke-linecap="round" stroke-linejoin="round"/>
<path d="M764.661 1361.86L765.69 1339.29L788.26 1340.32L787.231 1362.89L764.661 1361.86Z" stroke="#253138" stroke-width="4.43975" stroke-linecap="round" stroke-linejoin="round"/>
<path d="M629.802 1273.13C629.68 1276.24 627.059 1278.66 623.947 1278.54C623.943 1278.54 623.934 1278.54 623.934 1278.54C620.797 1278.57 618.234 1276.05 618.208 1272.91C618.181 1269.77 620.703 1267.21 623.84 1267.18L623.855 1267.18L624.657 1267.17C627.766 1267.3 630.188 1269.92 630.066 1273.03L630.066 1273.04L629.802 1273.13Z" fill="#253138"/>
<path d="M639.503 1384.92L916.979 1397.59" stroke="#253138" stroke-width="8.87735" stroke-linecap="round" stroke-linejoin="round"/>
<path d="M638.657 1403.44L916.175 1416.11" stroke="#253138" stroke-width="8.87735" stroke-linecap="round" stroke-linejoin="round"/>
<path d="M637.698 1425.06L874.366 1435.84" stroke="#253138" stroke-width="8.87735" stroke-linecap="round" stroke-linejoin="round"/>
<path d="M636.833 1467.41L637.862 1444.84L660.432 1445.87L659.403 1468.44L636.833 1467.41Z" stroke="#253138" stroke-width="4.43975" stroke-linecap="round" stroke-linejoin="round"/>
<path d="M677.791 1469.25L678.821 1446.68L701.39 1447.71L700.361 1470.28L677.791 1469.25Z" stroke="#253138" stroke-width="4.43975" stroke-linecap="round" stroke-linejoin="round"/>
<path d="M718.743 1471.08L719.773 1448.51L742.343 1449.54L741.313 1472.11L718.743 1471.08Z" stroke="#253138" stroke-width="4.43975" stroke-linecap="round" stroke-linejoin="round"/>
<path d="M759.608 1473.01L760.637 1450.44L783.207 1451.47L782.178 1474.04L759.608 1473.01Z" stroke="#253138" stroke-width="4.43975" stroke-linecap="round" stroke-linejoin="round"/>
<path d="M624.717 1384.27C624.563 1387.38 621.916 1389.78 618.806 1389.62C615.696 1389.47 613.303 1386.82 613.456 1383.71C613.61 1380.61 616.247 1378.22 619.348 1378.36C622.458 1378.51 624.863 1381.14 624.717 1384.25C624.717 1384.26 624.717 1384.27 624.717 1384.27Z" fill="#253138"/>
<path d="M660.561 1126.96L663.525 1132L675.463 1118.65" stroke="#253138" stroke-width="8.87735" stroke-linecap="round" stroke-linejoin="round"/>
<path d="M737.505 1237.35L740.468 1242.39L752.407 1229.04" stroke="#253138" stroke-width="8.87735" stroke-linecap="round" stroke-linejoin="round"/>
<path d="M776.518 1351.07L779.482 1356.11L791.42 1342.71" stroke="#253138" stroke-width="8.87735" stroke-linecap="round" stroke-linejoin="round"/>
<path d="M686.679 1453.44L689.644 1458.44L701.581 1445.08" stroke="#253138" stroke-width="8.87735" stroke-linecap="round" stroke-linejoin="round"/>
<path d="M836.661 1457.22L469.864 1513.56L385.235 962.256L537.103 938.928L752.027 905.958L828.806 1406.13L836.661 1457.22Z" fill="white"/>
<path d="M836.661 1457.22L469.864 1513.56L385.235 962.256L537.103 938.928L752.027 905.958L828.806 1406.13L836.661 1457.22Z" stroke="#253138" stroke-width="4.43975" stroke-linecap="round" stroke-linejoin="round"/>
<path d="M418.617 994.221L514.057 979.586" stroke="#253138" stroke-width="8.87735" stroke-linecap="round" stroke-linejoin="round"/>
<path d="M421.39 1012.57L486.322 1002.61" stroke="#253138" stroke-width="8.87735" stroke-linecap="round" stroke-linejoin="round"/>
<path d="M451.3 1052.25L725.88 1010.12" stroke="#253138" stroke-width="8.87735" stroke-linecap="round" stroke-linejoin="round"/>
<path d="M454.123 1070.56L728.702 1028.43" stroke="#253138" stroke-width="8.87735" stroke-linecap="round" stroke-linejoin="round"/>
<path d="M457.382 1091.96L691.575 1056.01" stroke="#253138" stroke-width="8.87735" stroke-linecap="round" stroke-linejoin="round"/>
<path d="M461.566 1111.27L483.898 1107.84L487.326 1130.17L464.994 1133.6L461.566 1111.27Z" stroke="#253138" stroke-width="4.43975" stroke-linecap="round" stroke-linejoin="round"/>
<path d="M502.057 1105.01L524.389 1101.58L527.817 1123.92L505.487 1127.34L502.057 1105.01Z" stroke="#253138" stroke-width="4.43975" stroke-linecap="round" stroke-linejoin="round"/>
<path d="M542.558 1098.79L564.89 1095.36L568.317 1117.69L545.985 1121.12L542.558 1098.79Z" stroke="#253138" stroke-width="4.43975" stroke-linecap="round" stroke-linejoin="round"/>
<path d="M582.982 1092.59L605.314 1089.16L608.741 1111.49L586.409 1114.92L582.982 1092.59Z" stroke="#253138" stroke-width="4.43975" stroke-linecap="round" stroke-linejoin="round"/>
<path d="M436.685 1054.49C437.158 1057.57 435.043 1060.45 431.962 1060.92C428.88 1061.39 426.002 1059.28 425.529 1056.2C425.056 1053.12 427.171 1050.24 430.252 1049.77C433.333 1049.29 436.212 1051.41 436.685 1054.49Z" fill="#253138"/>
<path d="M467.7 1159.12L742.279 1117" stroke="#253138" stroke-width="8.87735" stroke-linecap="round" stroke-linejoin="round"/>
<path d="M470.517 1177.48L745.102 1135.31" stroke="#253138" stroke-width="8.87735" stroke-linecap="round" stroke-linejoin="round"/>
<path d="M473.827 1198.84L707.972 1162.88" stroke="#253138" stroke-width="8.87735" stroke-linecap="round" stroke-linejoin="round"/>
<path d="M477.992 1218.12L500.324 1214.69L503.752 1237.02L481.42 1240.45L477.992 1218.12Z" stroke="#253138" stroke-width="4.43975" stroke-linecap="round" stroke-linejoin="round"/>
<path d="M518.447 1211.91L540.779 1208.49L544.206 1230.82L521.875 1234.25L518.447 1211.91Z" stroke="#253138" stroke-width="4.43975" stroke-linecap="round" stroke-linejoin="round"/>
<path d="M558.948 1205.7L581.28 1202.28L584.707 1224.61L562.376 1228.04L558.948 1205.7Z" stroke="#253138" stroke-width="4.43975" stroke-linecap="round" stroke-linejoin="round"/>
<path d="M599.486 1199.44L621.817 1196.01L625.245 1218.35L602.913 1221.77L599.486 1199.44Z" stroke="#253138" stroke-width="4.43975" stroke-linecap="round" stroke-linejoin="round"/>
<path d="M453.122 1161.41C453.596 1164.51 451.467 1167.41 448.365 1167.89C445.264 1168.36 442.364 1166.23 441.889 1163.13C441.416 1160.04 443.534 1157.14 446.626 1156.66C449.7 1156.17 452.59 1158.26 453.081 1161.34C453.082 1161.35 453.083 1161.35 453.082 1161.36L453.122 1161.41Z" fill="#253138"/>
<path d="M484.139 1266.05L758.677 1223.87" stroke="#253138" stroke-width="8.87735" stroke-linecap="round" stroke-linejoin="round"/>
<path d="M486.962 1284.35L761.498 1242.22" stroke="#253138" stroke-width="8.87735" stroke-linecap="round" stroke-linejoin="round"/>
<path d="M490.221 1305.75L724.414 1269.81" stroke="#253138" stroke-width="8.87735" stroke-linecap="round" stroke-linejoin="round"/>
<path d="M494.375 1324.99L516.707 1321.56L520.134 1343.89L497.802 1347.32L494.375 1324.99Z" stroke="#253138" stroke-width="4.43975" stroke-linecap="round" stroke-linejoin="round"/>
<path d="M534.92 1318.77L557.252 1315.34L560.679 1337.68L538.348 1341.1L534.92 1318.77Z" stroke="#253138" stroke-width="4.43975" stroke-linecap="round" stroke-linejoin="round"/>
<path d="M575.33 1312.56L597.662 1309.13L601.089 1331.47L578.757 1334.89L575.33 1312.56Z" stroke="#253138" stroke-width="4.43975" stroke-linecap="round" stroke-linejoin="round"/>
<path d="M615.831 1306.35L638.163 1302.92L641.59 1325.25L619.259 1328.68L615.831 1306.35Z" stroke="#253138" stroke-width="4.43975" stroke-linecap="round" stroke-linejoin="round"/>
<path d="M469.521 1268.28C469.996 1271.38 467.866 1274.28 464.765 1274.76C461.662 1275.23 458.763 1273.1 458.289 1270C457.815 1266.91 459.932 1264.02 463.025 1263.53C466.1 1263.04 468.99 1265.14 469.48 1268.21C469.482 1268.22 469.483 1268.23 469.482 1268.23L469.521 1268.28Z" fill="#253138"/>
<path d="M501.023 1375.97L775.56 1333.84" stroke="#253138" stroke-width="8.87735" stroke-linecap="round" stroke-linejoin="round"/>
<path d="M503.796 1394.32L778.381 1352.15" stroke="#253138" stroke-width="8.87735" stroke-linecap="round" stroke-linejoin="round"/>
<path d="M507.106 1415.68L741.298 1379.73" stroke="#253138" stroke-width="8.87735" stroke-linecap="round" stroke-linejoin="round"/>
<path d="M511.257 1434.97L533.589 1431.54L537.017 1453.87L514.685 1457.3L511.257 1434.97Z" stroke="#253138" stroke-width="4.43975" stroke-linecap="round" stroke-linejoin="round"/>
<path d="M551.758 1428.75L574.09 1425.32L577.517 1447.65L555.185 1451.08L551.758 1428.75Z" stroke="#253138" stroke-width="4.43975" stroke-linecap="round" stroke-linejoin="round"/>
<path d="M592.257 1422.53L614.588 1419.11L618.016 1441.44L595.684 1444.86L592.257 1422.53Z" stroke="#253138" stroke-width="4.43975" stroke-linecap="round" stroke-linejoin="round"/>
<path d="M632.713 1416.33L655.045 1412.9L658.473 1435.23L636.141 1438.66L632.713 1416.33Z" stroke="#253138" stroke-width="4.43975" stroke-linecap="round" stroke-linejoin="round"/>
<path d="M486.408 1378.21C486.916 1381.31 484.813 1384.23 481.717 1384.73C478.619 1385.24 475.697 1383.14 475.19 1380.05C474.696 1376.94 476.805 1374.02 479.907 1373.5C482.973 1373.03 485.845 1375.1 486.366 1378.16L486.408 1378.21Z" fill="#253138"/>
<path d="M509.053 1113.01L512.957 1117.36L522.043 1101.91" stroke="#253138" stroke-width="8.87735" stroke-linecap="round" stroke-linejoin="round"/>
<path d="M484.662 1227.17L488.568 1231.53L497.61 1216.07" stroke="#253138" stroke-width="8.87735" stroke-linecap="round" stroke-linejoin="round"/>
<path d="M501.188 1332.99L505.094 1337.35L514.136 1321.88" stroke="#253138" stroke-width="8.87735" stroke-linecap="round" stroke-linejoin="round"/>
<path d="M599.038 1429.73L602.942 1434.08L612.028 1418.62" stroke="#253138" stroke-width="8.87735" stroke-linecap="round" stroke-linejoin="round"/>
<path d="M464.954 842.976L835.495 822.976L865.554 1379.9L495.012 1399.9L464.954 842.976Z" fill="white"/>
<path d="M464.954 842.976L835.495 822.976L865.554 1379.9L495.012 1399.9L464.954 842.976Z" stroke="#253138" stroke-width="4.43975" stroke-linecap="round" stroke-linejoin="round"/>
<path d="M494.982 878.129L591.428 872.932" stroke="#253138" stroke-width="8.87735" stroke-linecap="round" stroke-linejoin="round"/>
<path d="M495.983 896.652L561.571 893.092" stroke="#253138" stroke-width="8.87735" stroke-linecap="round" stroke-linejoin="round"/>
<path d="M521.838 939.095L799.199 924.112" stroke="#253138" stroke-width="8.87735" stroke-linecap="round" stroke-linejoin="round"/>
<path d="M522.838 957.576L800.198 942.636" stroke="#253138" stroke-width="8.87735" stroke-linecap="round" stroke-linejoin="round"/>
<path d="M524.021 979.171L760.591 966.433" stroke="#253138" stroke-width="8.87735" stroke-linecap="round" stroke-linejoin="round"/>
<path d="M526.313 998.759L548.871 997.544L550.088 1020.1L527.528 1021.32L526.313 998.759Z" stroke="#253138" stroke-width="4.43975" stroke-linecap="round" stroke-linejoin="round"/>
<path d="M567.204 996.541L589.763 995.327L590.983 1017.88L568.421 1019.1L567.204 996.541Z" stroke="#253138" stroke-width="4.43975" stroke-linecap="round" stroke-linejoin="round"/>
<path d="M608.095 994.369L630.654 993.154L631.873 1015.71L609.312 1016.93L608.095 994.369Z" stroke="#253138" stroke-width="4.43975" stroke-linecap="round" stroke-linejoin="round"/>
<path d="M648.987 992.111L671.547 990.897L672.766 1013.45L650.204 1014.67L648.987 992.111Z" stroke="#253138" stroke-width="4.43975" stroke-linecap="round" stroke-linejoin="round"/>
<path d="M507.098 939.899C507.27 943.033 504.87 945.715 501.737 945.887C498.603 946.059 495.921 943.659 495.749 940.525C495.577 937.398 497.972 934.718 501.1 934.539C504.208 934.36 506.874 936.735 507.053 939.844C507.053 939.848 507.053 939.852 507.053 939.852L507.098 939.899Z" fill="#253138"/>
<path d="M527.662 1047.08L805.021 1032.14" stroke="#253138" stroke-width="8.87735" stroke-linecap="round" stroke-linejoin="round"/>
<path d="M528.663 1065.6L806.024 1050.61" stroke="#253138" stroke-width="8.87735" stroke-linecap="round" stroke-linejoin="round"/>
<path d="M529.845 1087.2L766.417 1074.41" stroke="#253138" stroke-width="8.87735" stroke-linecap="round" stroke-linejoin="round"/>
<path d="M532.136 1106.72L554.693 1105.5L555.91 1128.06L533.35 1129.28L532.136 1106.72Z" stroke="#253138" stroke-width="4.43975" stroke-linecap="round" stroke-linejoin="round"/>
<path d="M573.024 1104.55L595.584 1103.33L596.803 1125.89L574.241 1127.11L573.024 1104.55Z" stroke="#253138" stroke-width="4.43975" stroke-linecap="round" stroke-linejoin="round"/>
<path d="M613.917 1102.33L636.477 1101.12L637.696 1123.67L615.134 1124.89L613.917 1102.33Z" stroke="#253138" stroke-width="4.43975" stroke-linecap="round" stroke-linejoin="round"/>
<path d="M654.812 1100.21L677.372 1098.99L678.591 1121.55L656.029 1122.77L654.812 1100.21Z" stroke="#253138" stroke-width="4.43975" stroke-linecap="round" stroke-linejoin="round"/>
<path d="M512.922 1047.88C513.094 1051.01 510.694 1053.69 507.56 1053.87C504.429 1054.04 501.749 1051.64 501.577 1048.5C501.405 1045.38 503.798 1042.7 506.928 1042.52C510.06 1042.34 512.744 1044.74 512.923 1047.87L512.922 1047.88Z" fill="#253138"/>
<path d="M533.486 1155.05L810.845 1140.11" stroke="#253138" stroke-width="8.87735" stroke-linecap="round" stroke-linejoin="round"/>
<path d="M534.487 1173.58L811.848 1158.59" stroke="#253138" stroke-width="8.87735" stroke-linecap="round" stroke-linejoin="round"/>
<path d="M535.671 1195.17L772.243 1182.39" stroke="#253138" stroke-width="8.87735" stroke-linecap="round" stroke-linejoin="round"/>
<path d="M537.956 1214.72L560.514 1213.51L561.731 1236.07L539.171 1237.28L537.956 1214.72Z" stroke="#253138" stroke-width="4.43975" stroke-linecap="round" stroke-linejoin="round"/>
<path d="M578.847 1212.51L601.407 1211.29L602.626 1233.85L580.064 1235.07L578.847 1212.51Z" stroke="#253138" stroke-width="4.43975" stroke-linecap="round" stroke-linejoin="round"/>
<path d="M619.738 1210.34L642.298 1209.12L643.517 1231.68L620.955 1232.9L619.738 1210.34Z" stroke="#253138" stroke-width="4.43975" stroke-linecap="round" stroke-linejoin="round"/>
<path d="M660.633 1208.12L683.192 1206.91L684.411 1229.47L661.849 1230.69L660.633 1208.12Z" stroke="#253138" stroke-width="4.43975" stroke-linecap="round" stroke-linejoin="round"/>
<path d="M518.703 1155.86C518.855 1158.97 516.456 1161.61 513.345 1161.76C510.238 1161.91 507.59 1159.52 507.439 1156.41C507.287 1153.3 509.685 1150.65 512.795 1150.5C515.904 1150.35 518.552 1152.75 518.703 1155.86Z" fill="#253138"/>
<path d="M539.491 1266.15L816.852 1251.17" stroke="#253138" stroke-width="8.87735" stroke-linecap="round" stroke-linejoin="round"/>
<path d="M540.494 1284.63L817.853 1269.69" stroke="#253138" stroke-width="8.87735" stroke-linecap="round" stroke-linejoin="round"/>
<path d="M541.633 1306.22L778.203 1293.49" stroke="#253138" stroke-width="8.87735" stroke-linecap="round" stroke-linejoin="round"/>
<path d="M543.943 1325.8L566.503 1324.59L567.722 1347.15L545.16 1348.37L543.943 1325.8Z" stroke="#253138" stroke-width="4.43975" stroke-linecap="round" stroke-linejoin="round"/>
<path d="M584.879 1323.63L607.439 1322.41L608.658 1344.97L586.096 1346.19L584.879 1323.63Z" stroke="#253138" stroke-width="4.43975" stroke-linecap="round" stroke-linejoin="round"/>
<path d="M625.724 1321.38L648.284 1320.16L649.503 1342.72L626.941 1343.94L625.724 1321.38Z" stroke="#253138" stroke-width="4.43975" stroke-linecap="round" stroke-linejoin="round"/>
<path d="M666.619 1319.16L689.177 1317.94L690.393 1340.5L667.834 1341.72L666.619 1319.16Z" stroke="#253138" stroke-width="4.43975" stroke-linecap="round" stroke-linejoin="round"/>
<path d="M524.71 1266.91C524.91 1270.04 522.531 1272.74 519.398 1272.94C516.267 1273.14 513.568 1270.76 513.367 1267.63C513.169 1264.5 515.549 1261.8 518.679 1261.6C518.705 1261.6 518.729 1261.6 518.755 1261.6C521.863 1261.42 524.531 1263.79 524.711 1266.9C524.711 1266.9 524.71 1266.9 524.71 1266.91Z" fill="#253138"/>
<path d="M534.836 1007.35L538.281 1012.07L548.837 997.581" stroke="#253138" stroke-width="8.87735" stroke-linecap="round" stroke-linejoin="round"/>
<path d="M622.381 1109.56L625.824 1114.28L636.339 1099.79" stroke="#253138" stroke-width="8.87735" stroke-linecap="round" stroke-linejoin="round"/>
<path d="M587.412 1222L590.857 1226.72L601.417 1212.23" stroke="#253138" stroke-width="8.87735" stroke-linecap="round" stroke-linejoin="round"/>
<path d="M674.63 1327.79L678.075 1332.51L688.63 1318.03" stroke="#253138" stroke-width="8.87735" stroke-linecap="round" stroke-linejoin="round"/>
</g>
<path d="M1550.98 1645.04C1512.66 1670.07 1480.51 1703.46 1456.93 1742.69C1417.82 1807.94 1386.84 1899.74 1434.95 1911.37L1480.71 1909.63L1568.78 1879.41L1559.55 1861.65C1559.55 1861.65 1482.45 1902.49 1469.27 1902.49C1456.08 1902.49 1438.9 1905.77 1431.67 1900.49C1424.43 1895.21 1457.01 1776.56 1526.75 1737.01C1596.48 1697.46 1550.98 1645.04 1550.98 1645.04Z" fill="#F5A623"/>
<path d="M1550.98 1645.04C1512.66 1670.07 1480.51 1703.46 1456.93 1742.69C1417.82 1807.94 1386.84 1899.74 1434.95 1911.37L1480.71 1909.63L1568.78 1879.41L1559.55 1861.65C1559.55 1861.65 1482.45 1902.49 1469.27 1902.49C1456.08 1902.49 1438.9 1905.77 1431.67 1900.49C1424.43 1895.21 1457.01 1776.56 1526.75 1737.01C1596.48 1697.46 1550.98 1645.04 1550.98 1645.04Z" stroke="#253138" stroke-width="4.43975" stroke-linecap="round" stroke-linejoin="round"/>
<path d="M1601.1 1602.25C1601.1 1602.25 1601.1 1583.12 1630.08 1580.5C1659.07 1577.88 1663.19 1605.8 1663.19 1605.8H1653.21C1653.21 1605.8 1653.43 1589.07 1632.12 1587.78C1610.82 1586.49 1611.62 1605.8 1611.62 1605.8L1601.1 1602.25Z" fill="#F5A623"/>
<path d="M1601.1 1602.25C1601.1 1602.25 1601.1 1583.12 1630.08 1580.5C1659.07 1577.88 1663.19 1605.8 1663.19 1605.8H1653.21C1653.21 1605.8 1653.43 1589.07 1632.12 1587.78C1610.82 1586.49 1611.62 1605.8 1611.62 1605.8L1601.1 1602.25Z" stroke="#253138" stroke-width="4.43975" stroke-linecap="round" stroke-linejoin="round"/>
<path d="M1558.22 1911.37C1496.92 1911.37 1508.55 1636.47 1515.61 1622.84C1522.67 1609.22 1700.53 1602.43 1718.06 1608.2C1735.59 1613.97 1805.9 1887.84 1767.11 1909.72L1558.22 1911.37Z" fill="#F5A623"/>
<path d="M1558.22 1911.37C1496.92 1911.37 1508.55 1636.47 1515.61 1622.84C1522.67 1609.22 1700.53 1602.43 1718.06 1608.2C1735.59 1613.97 1805.9 1887.84 1767.11 1909.72L1558.22 1911.37Z" stroke="#253138" stroke-width="4.43975" stroke-linecap="round" stroke-linejoin="round"/>
<path d="M1515.61 1622.53C1537.8 1627.28 1550.58 1717.26 1580.46 1740.16C1610.33 1763.06 1751.17 1758.14 1767.11 1740.16C1783.04 1722.18 1751.88 1621.24 1729.25 1605.8C1706.61 1590.35 1690.5 1605.36 1626.8 1598.3C1532.39 1587.78 1515.61 1622.53 1515.61 1622.53Z" fill="#F5A623"/>
<path d="M1515.61 1622.53C1537.8 1627.28 1550.58 1717.26 1580.46 1740.16C1610.33 1763.06 1751.17 1758.14 1767.11 1740.16C1783.04 1722.18 1751.88 1621.24 1729.25 1605.8C1706.61 1590.35 1690.5 1605.36 1626.8 1598.3C1532.39 1587.78 1515.61 1622.53 1515.61 1622.53Z" stroke="#253138" stroke-width="4.43975" stroke-linecap="round" stroke-linejoin="round"/>
<path d="M1677.27 1674.25L1703.37 1695.55C1704.86 1696.82 1705.05 1699.06 1703.78 1700.56C1703.77 1700.56 1703.77 1700.57 1703.77 1700.57L1683.44 1722.49C1682.09 1723.84 1679.91 1723.84 1678.56 1722.49L1652.59 1698.3C1651.27 1696.94 1651.27 1694.78 1652.59 1693.42L1672.69 1674.74C1673.87 1673.44 1675.84 1673.23 1677.27 1674.25Z" fill="#F5A623"/>
<path d="M1677.27 1674.25L1703.37 1695.55C1704.86 1696.82 1705.05 1699.06 1703.78 1700.56C1703.77 1700.56 1703.77 1700.57 1703.77 1700.57L1683.44 1722.49C1682.09 1723.84 1679.91 1723.84 1678.56 1722.49L1652.59 1698.3C1651.27 1696.94 1651.27 1694.78 1652.59 1693.42L1672.69 1674.74C1673.87 1673.44 1675.84 1673.23 1677.27 1674.25Z" stroke="#253138" stroke-width="4.43975" stroke-linecap="round" stroke-linejoin="round"/>
<path d="M1591.2 1786.15C1591.2 1786.15 1709.18 1795.87 1767.11 1780.87C1774.86 1786.97 1780.62 1795.23 1783.66 1804.61C1788.95 1820.41 1799.96 1874.48 1767.11 1888.33C1734.26 1902.18 1616.19 1899.51 1600.43 1883.89C1584.67 1868.26 1591.2 1786.15 1591.2 1786.15Z" fill="#F5A623"/>
<path d="M1591.2 1786.15C1591.2 1786.15 1709.18 1795.87 1767.11 1780.87C1774.86 1786.97 1780.62 1795.23 1783.66 1804.61C1788.95 1820.41 1799.96 1874.48 1767.11 1888.33C1734.26 1902.18 1616.19 1899.51 1600.43 1883.89C1584.67 1868.26 1591.2 1786.15 1591.2 1786.15Z" stroke="#253138" stroke-width="4.43975" stroke-linecap="round" stroke-linejoin="round"/>
<path d="M1591.2 1786.15C1591.2 1786.15 1605.05 1823.48 1612.28 1829.2C1619.52 1834.93 1772.79 1834.93 1789.83 1821.08C1806.88 1807.23 1783.53 1782.2 1767.15 1780.86C1767.11 1780.86 1659.73 1793.38 1591.2 1786.15Z" fill="#F5A623"/>
<path d="M1591.2 1786.15C1591.2 1786.15 1605.05 1823.48 1612.28 1829.2C1619.52 1834.93 1772.79 1834.93 1789.83 1821.08C1806.88 1807.23 1783.53 1782.2 1767.15 1780.86C1767.11 1780.86 1659.73 1793.38 1591.2 1786.15Z" stroke="#253138" stroke-width="4.43975" stroke-linecap="round" stroke-linejoin="round"/>
<path d="M1541.75 1778.2C1541.75 1778.2 1545.7 1856.63 1553.6 1874.43C1541.7 1880.65 1527.51 1880.65 1515.61 1874.43C1495.63 1863.87 1498.91 1796.31 1502.87 1796.49C1506.82 1796.67 1541.75 1778.2 1541.75 1778.2Z" fill="#F5A623"/>
<path d="M1541.75 1778.2C1541.75 1778.2 1545.7 1856.63 1553.6 1874.43C1541.7 1880.65 1527.51 1880.65 1515.61 1874.43C1495.63 1863.87 1498.91 1796.31 1502.87 1796.49C1506.82 1796.67 1541.75 1778.2 1541.75 1778.2Z" stroke="#253138" stroke-width="4.43975" stroke-linecap="round" stroke-linejoin="round"/>
<path d="M1541.75 1778.2L1512.06 1784.15C1512.06 1784.15 1483.74 1805.9 1496.26 1813.13C1508.77 1820.37 1541.04 1802.61 1541.75 1778.2Z" fill="#F5A623"/>
<path d="M1541.75 1778.2L1512.06 1784.15C1512.06 1784.15 1483.74 1805.9 1496.26 1813.13C1508.77 1820.37 1541.04 1802.61 1541.75 1778.2Z" stroke="#253138" stroke-width="4.43975" stroke-linecap="round" stroke-linejoin="round"/>
<mask id="mask6_11_510" style="mask-type:luminance" maskUnits="userSpaceOnUse" x="-695" y="-85" width="4128" height="2322">
<path d="M-695 -85H3433V2237H-695V-85Z" fill="white"/>
</mask>
<g mask="url(#mask6_11_510)">
<path d="M646.848 1652.89C646.848 1652.89 585.763 1678.2 598.185 1725.32C598.185 1725.32 671.171 1733.89 646.848 1652.89Z" fill="#F5A623"/>
<path d="M646.848 1652.89C646.848 1652.89 585.763 1678.2 598.185 1725.32C598.185 1725.32 671.171 1733.89 646.848 1652.89Z" stroke="#253138" stroke-width="4.43975" stroke-linecap="round" stroke-linejoin="round"/>
<path d="M633.263 1680.31C633.263 1680.31 613.636 1724.03 582.671 1733.3" stroke="#253138" stroke-width="4.43975" stroke-linecap="round" stroke-linejoin="round"/>
<path d="M535.538 1689.24C535.538 1689.24 498.164 1639.83 438.917 1665.99C438.917 1665.99 475.911 1725.66 535.538 1689.24Z" fill="#F5A623"/>
<path d="M535.538 1689.24C535.538 1689.24 498.164 1639.83 438.917 1665.99C438.917 1665.99 475.911 1725.66 535.538 1689.24Z" stroke="#253138" stroke-width="4.43975" stroke-linecap="round" stroke-linejoin="round"/>
<path d="M467.791 1675.89C467.791 1675.89 539.915 1695.81 568.425 1688.76" stroke="#253138" stroke-width="4.43975" stroke-linecap="round" stroke-linejoin="round"/>
<path d="M436.328 1538.33C436.328 1538.33 430.719 1634.54 516.45 1603.67C516.45 1603.67 485.123 1534.77 436.328 1538.33Z" fill="#F5A623"/>
<path d="M436.328 1538.33C436.328 1538.33 430.719 1634.54 516.45 1603.67C516.45 1603.67 485.123 1534.77 436.328 1538.33Z" stroke="#253138" stroke-width="4.43975" stroke-linecap="round" stroke-linejoin="round"/>
<path d="M461.993 1575.35C461.993 1575.35 489.772 1609.47 533.493 1603.23" stroke="#253138" stroke-width="4.43975" stroke-linecap="round" stroke-linejoin="round"/>
<path d="M609.305 1545.3C609.305 1545.3 534.904 1557.54 553.007 1624.56C553.007 1624.56 626.204 1607.87 609.305 1545.3Z" fill="#F5A623"/>
<path d="M609.305 1545.3C609.305 1545.3 534.904 1557.54 553.007 1624.56C553.007 1624.56 626.204 1607.87 609.305 1545.3Z" stroke="#253138" stroke-width="4.43975" stroke-linecap="round" stroke-linejoin="round"/>
<path d="M590.396 1569.77C590.396 1569.77 551.614 1598.64 549.012 1647.39" stroke="#253138" stroke-width="4.43975" stroke-linecap="round" stroke-linejoin="round"/>
<path d="M655.955 1773.14H504.99L520.791 1911.15H640.15L655.955 1773.14Z" fill="#253138"/>
<path d="M655.955 1773.14H504.99L520.791 1911.15H640.15L655.955 1773.14Z" stroke="#253138" stroke-width="4.43975" stroke-linecap="round" stroke-linejoin="round"/>
<path d="M498.51 1770.08H662.435V1789.57H498.51V1770.08Z" fill="#253138"/>
<path d="M498.51 1770.08H662.435V1789.57H498.51V1770.08Z" stroke="#253138" stroke-width="4.43975" stroke-linecap="round" stroke-linejoin="round"/>
<path d="M540.515 1479.48C540.515 1479.48 473.566 1520.21 527.171 1573.96C527.126 1573.96 573.299 1531.15 540.515 1479.48Z" fill="#F5A623"/>
<path d="M540.515 1479.48C540.515 1479.48 473.566 1520.21 527.171 1573.96C527.126 1573.96 573.299 1531.15 540.515 1479.48Z" stroke="#253138" stroke-width="4.43975" stroke-linecap="round" stroke-linejoin="round"/>
<path d="M572.899 1829.68C572.899 1829.68 603.298 1756.27 566.738 1685.02C530.178 1613.76 515.847 1552.86 530.879 1508.65" stroke="#253138" stroke-width="4.43975" stroke-linecap="round" stroke-linejoin="round"/>
</g>
<mask id="mask7_11_510" style="mask-type:luminance" maskUnits="userSpaceOnUse" x="-1127" y="-359" width="4381" height="2808">
<path d="M-843.538 -358.925L3253.69 144.151L2970.71 2448.84L-1126.52 1945.77L-843.538 -358.925Z" fill="white"/>
</mask>
<g mask="url(#mask7_11_510)">
<path d="M1345.63 1004.98C1374.69 950.415 1372.04 851.119 1264.01 856.818C1200.62 860.214 1183.93 934.28 1200.54 970.13C1217.16 1005.98 1195.05 1004.34 1223.17 1032.83C1234.58 1044.39 1242.68 1062.6 1257.61 1065.55C1275.39 1068.99 1300.42 1054.84 1319.81 1038.62" fill="white"/>
<path d="M1345.63 1004.98C1374.69 950.415 1372.04 851.119 1264.01 856.818C1200.62 860.214 1183.93 934.28 1200.54 970.13C1217.16 1005.98 1195.05 1004.34 1223.17 1032.83C1234.58 1044.39 1242.68 1062.6 1257.61 1065.55C1275.39 1068.99 1300.42 1054.84 1319.81 1038.62" stroke="#253138" stroke-width="4.43975" stroke-linecap="round" stroke-linejoin="round"/>
<path d="M1222.06 993.746C1222.06 993.746 1218.41 1004.88 1214.04 1016.06C1209.67 1027.24 1231.9 1023.58 1231.24 1021.71" fill="white"/>
<path d="M1222.06 993.746C1222.06 993.746 1218.41 1004.88 1214.04 1016.06C1209.67 1027.24 1231.9 1023.58 1231.24 1021.71" stroke="#253138" stroke-width="4.43975" stroke-linecap="round" stroke-linejoin="round"/>
<path d="M1240.53 1037.47C1249.95 1035.98 1258.69 1031.68 1265.61 1025.12" stroke="#253138" stroke-width="4.43975" stroke-linecap="round" stroke-linejoin="round"/>
<path d="M1289.73 921.2C1289.73 921.2 1268.08 962.055 1227.67 956.109C1227.67 956.109 1243.04 947.129 1248.17 937.383C1248.17 937.383 1213.19 964.393 1183.96 944.884C1154.74 925.377 1178.99 854.296 1230.33 831.35C1281.67 808.406 1329.62 822.121 1342.81 851.689C1342.81 851.689 1376.67 852.721 1385.39 903.745C1393.19 949.424 1363.85 1013.62 1343.09 1011.83C1310.92 1009.09 1308.75 973.534 1308.75 973.534C1297.18 958.46 1290.54 940.186 1289.73 921.2Z" fill="#253138"/>
<path d="M1289.73 921.2C1289.73 921.2 1268.08 962.055 1227.67 956.109C1227.67 956.109 1243.04 947.129 1248.17 937.383C1248.17 937.383 1213.19 964.393 1183.96 944.884C1154.74 925.377 1178.99 854.296 1230.33 831.35C1281.67 808.406 1329.62 822.121 1342.81 851.689C1342.81 851.689 1376.67 852.721 1385.39 903.745C1393.19 949.424 1363.85 1013.62 1343.09 1011.83C1310.92 1009.09 1308.75 973.534 1308.75 973.534C1297.18 958.46 1290.54 940.186 1289.73 921.2Z" stroke="#253138" stroke-width="4.43975" stroke-linecap="round" stroke-linejoin="round"/>
<path d="M1315.52 1001.51C1315.52 1001.51 1319.47 960.941 1341.91 968.661C1364.35 976.382 1341.91 1021.07 1324.66 1018.46" fill="white"/>
<path d="M1315.52 1001.51C1315.52 1001.51 1319.47 960.941 1341.91 968.661C1364.35 976.382 1341.91 1021.07 1324.66 1018.46" stroke="#253138" stroke-width="4.43975" stroke-linecap="round" stroke-linejoin="round"/>
<path d="M1263.44 992.565C1264.47 995.057 1263.28 997.916 1260.79 998.944L1260.78 998.949C1258.27 999.945 1255.43 998.738 1254.4 996.243C1254.08 995.515 1253.96 994.71 1254.06 993.918C1253.03 991.426 1254.22 988.574 1256.71 987.545C1256.71 987.544 1256.72 987.542 1256.72 987.54C1259.23 986.544 1262.07 987.747 1263.1 990.243C1263.42 990.973 1263.54 991.774 1263.44 992.565Z" fill="#253138"/>
<path d="M1216.51 985.819C1217 989.098 1216.01 992.021 1214.28 992.257C1212.56 992.491 1210.76 990.034 1210.49 986.737C1210.22 983.44 1211.03 980.543 1212.76 980.307C1214.48 980.071 1215.93 982.484 1216.51 985.819Z" fill="#253138"/>
<path d="M1243.5 975.404C1243.5 975.404 1260.84 963.137 1278.66 971.272" stroke="#253138" stroke-width="4.43975" stroke-linecap="round" stroke-linejoin="round"/>
<path d="M1214.29 971.818C1210.97 963.839 1204.11 957.869 1195.74 955.677" stroke="#253138" stroke-width="4.43975" stroke-linecap="round" stroke-linejoin="round"/>
</g>
<mask id="mask8_11_510" style="mask-type:luminance" maskUnits="userSpaceOnUse" x="-996" y="-85" width="4128" height="2322">
<path d="M-996 -85H3132V2237H-996V-85Z" fill="white"/>
</mask>
<g mask="url(#mask8_11_510)">
<path d="M1079.41 1179.81C1079.41 1179.81 1108.48 1187.05 1117.4 1193.13C1126.32 1199.21 1123.75 1221.18 1123.75 1221.18C1123.75 1221.18 1085 1210.26 1079.41 1179.81Z" fill="white"/>
<path d="M1079.41 1179.81C1079.41 1179.81 1108.48 1187.05 1117.4 1193.13C1126.32 1199.21 1123.75 1221.18 1123.75 1221.18C1123.75 1221.18 1085 1210.26 1079.41 1179.81Z" stroke="#253138" stroke-width="4.43975" stroke-linecap="round" stroke-linejoin="round"/>
<path d="M1060.85 1124.1L1114.92 1227.8H1121.31L1069.95 1119L1060.85 1124.1Z" fill="#253138"/>
<path d="M1109.59 1199.07C1109.59 1199.07 1075.5 1174.84 1067.16 1174.84C1058.81 1174.84 1033.82 1204.36 1033.82 1219.23C1033.82 1234.1 1088.33 1242.22 1098.98 1229.66C1104.31 1223.4 1093.74 1208.31 1093.74 1208.31C1100.09 1215.06 1106.9 1221.37 1114.12 1227.17C1118.56 1229.66 1127.03 1226.42 1127.03 1226.42C1127.03 1226.42 1115.67 1208.22 1109.59 1199.07Z" fill="white"/>
<path d="M1109.59 1199.07C1109.59 1199.07 1075.5 1174.84 1067.16 1174.84C1058.81 1174.84 1033.82 1204.36 1033.82 1219.23C1033.82 1234.1 1088.33 1242.22 1098.98 1229.66C1104.31 1223.4 1093.74 1208.31 1093.74 1208.31C1100.09 1215.06 1106.9 1221.37 1114.12 1227.17C1118.56 1229.66 1127.03 1226.42 1127.03 1226.42C1127.03 1226.42 1115.67 1208.22 1109.59 1199.07Z" stroke="#253138" stroke-width="4.43975" stroke-linecap="round" stroke-linejoin="round"/>
<path d="M1093.74 1233.07C1085.88 1223.09 1076.23 1214.67 1065.29 1208.22" stroke="#253138" stroke-width="4.43975" stroke-linecap="round" stroke-linejoin="round"/>
<path d="M1093.74 1208.22C1093.74 1208.22 1081.93 1197.92 1073.99 1195.66" stroke="#253138" stroke-width="4.43975" stroke-linecap="round" stroke-linejoin="round"/>
<path d="M1056.59 1221.31C1064.84 1225.55 1072.81 1230.32 1080.42 1235.61" stroke="#253138" stroke-width="4.43975" stroke-linecap="round" stroke-linejoin="round"/>
</g>
<path d="M1160.06 1235.39C1160.06 1235.39 1177.02 1209.11 1192.55 1203.83C1208.09 1198.54 1253.72 1198.1 1260.78 1197.92C1267.83 1197.74 1393.23 1229.61 1452.09 1249.23L1446.94 1151L1526.04 1157.26C1526.04 1157.26 1522.84 1277.11 1510.55 1308.84C1498.25 1340.58 1480.63 1332.86 1450.58 1319.9C1332.37 1268.99 1263.13 1233.52 1256.69 1235.56C1250.26 1237.6 1160.06 1235.39 1160.06 1235.39Z" fill="white"/>
<path d="M1160.06 1235.39C1160.06 1235.39 1177.02 1209.11 1192.55 1203.83C1208.09 1198.54 1253.72 1198.1 1260.78 1197.92C1267.83 1197.74 1393.23 1229.61 1452.09 1249.23L1446.94 1151L1526.04 1157.26C1526.04 1157.26 1522.84 1277.11 1510.55 1308.84C1498.25 1340.58 1480.63 1332.86 1450.58 1319.9C1332.37 1268.99 1263.13 1233.52 1256.69 1235.56C1250.26 1237.6 1160.06 1235.39 1160.06 1235.39Z" stroke="#253138" stroke-width="4.43975" stroke-linecap="round" stroke-linejoin="round"/>
<path d="M1427.19 1093.92C1425.12 1102.06 1424.46 1110.5 1425.23 1118.87C1428.74 1149.58 1443.7 1223.36 1443.7 1223.36C1443.7 1223.36 1517.43 1233.88 1534.56 1250.56C1534.56 1250.56 1546.72 1152.91 1521.95 1103.33C1497.19 1053.75 1471.57 1048.29 1471.57 1048.29C1455.37 1044.3 1440.5 1059.39 1432.29 1078.79" fill="white"/>
<path d="M1427.19 1093.92C1425.12 1102.06 1424.46 1110.5 1425.23 1118.87C1428.74 1149.58 1443.7 1223.36 1443.7 1223.36C1443.7 1223.36 1517.43 1233.88 1534.56 1250.56C1534.56 1250.56 1546.72 1152.91 1521.95 1103.33C1497.19 1053.75 1471.58 1048.29 1471.58 1048.29C1455.37 1044.3 1440.5 1059.39 1432.29 1078.79" stroke="#253138" stroke-width="4.43975" stroke-linecap="round" stroke-linejoin="round"/>
<path d="M1443.7 1131.92C1443.7 1131.92 1470.33 1182.25 1503.98 1193.35" stroke="#253138" stroke-width="4.43975" stroke-linecap="round" stroke-linejoin="round"/>
<path d="M1427.19 1093.92C1425.12 1102.06 1424.46 1110.5 1425.23 1118.87C1428.74 1149.58 1443.7 1223.36 1443.7 1223.36C1443.7 1223.36 1517.43 1233.88 1534.56 1250.56C1534.56 1250.56 1546.72 1152.91 1521.95 1103.33C1497.19 1053.75 1471.58 1048.29 1471.58 1048.29C1455.37 1044.3 1440.5 1059.39 1432.29 1078.79" fill="#F5A623"/>
<path d="M1427.19 1093.92C1425.12 1102.06 1424.46 1110.5 1425.23 1118.87C1428.74 1149.58 1443.7 1223.36 1443.7 1223.36C1443.7 1223.36 1517.43 1233.88 1534.56 1250.56C1534.56 1250.56 1546.72 1152.91 1521.95 1103.33C1497.19 1053.75 1471.58 1048.29 1471.58 1048.29C1455.37 1044.3 1440.5 1059.39 1432.29 1078.79" stroke="#253138" stroke-width="4.43975" stroke-linecap="round" stroke-linejoin="round"/>
<path d="M926.169 1230.95H1284.07C1288.07 1230.95 1291.3 1234.19 1291.3 1238.18V1250.66C1291.3 1254.65 1288.07 1257.89 1284.07 1257.89H926.169C922.174 1257.89 918.934 1254.65 918.934 1250.66V1238.18C918.934 1234.19 922.174 1230.95 926.169 1230.95Z" fill="#F5A623"/>
<path d="M926.169 1230.95H1284.07C1288.07 1230.95 1291.3 1234.19 1291.3 1238.18V1250.66C1291.3 1254.65 1288.07 1257.89 1284.07 1257.89H926.169C922.174 1257.89 918.934 1254.65 918.934 1250.66V1238.18C918.934 1234.19 922.174 1230.95 926.169 1230.95Z" stroke="#253138" stroke-width="4.43975" stroke-linecap="round" stroke-linejoin="round"/>
</g>
</g>
</g>
<defs>
<clipPath id="clip0_11_510">
<rect width="2000" height="2000" fill="white"/>
</clipPath>
</defs>
</svg>
