<svg width="63" height="62" viewBox="0 0 63 62" fill="none" xmlns="http://www.w3.org/2000/svg">
<rect x="0.5" width="62" height="62" rx="6" fill="#FFF4E6"/>
<path fill-rule="evenodd" clip-rule="evenodd" d="M35.2049 16.2595C35.6317 16.4974 35.8411 16.9957 35.7126 17.4671L32.8911 27.8125H43.1875C43.6106 27.8125 43.9934 28.0635 44.162 28.4515C44.3306 28.8396 44.2529 29.2907 43.9643 29.6L29.0893 45.5375C28.7559 45.8947 28.2219 45.9784 27.7951 45.7405C27.3684 45.5026 27.1589 45.0043 27.2875 44.5329L30.1089 34.1875H19.8125C19.3894 34.1875 19.0067 33.9365 18.8381 33.5485C18.6694 33.1604 18.7471 32.7093 19.0358 32.4L33.9108 16.4625C34.2442 16.1054 34.7782 16.0216 35.2049 16.2595Z" fill="#262626"/>
</svg>
