<svg width="1978" height="2043" viewBox="0 0 1978 2043" fill="none" xmlns="http://www.w3.org/2000/svg">
<g clip-path="url(#clip0_31_1058)">
<mask id="mask0_31_1058" style="mask-type:luminance" maskUnits="userSpaceOnUse" x="0" y="0" width="1978" height="2043">
<path d="M1978 0H0V2043H1978V0Z" fill="white"/>
</mask>
<g mask="url(#mask0_31_1058)">
<path d="M1507.59 1587.32C1452.85 1554.67 1376.04 1543.41 1306.23 1553.52L1553.99 1404.81C1581.05 1388.56 1580.9 1362.23 1553.66 1345.99L986.563 1007.81C959.322 991.57 915.308 991.57 888.245 1007.81L694.456 1124.13C610.609 1085.89 490.615 1089.62 414.383 1135.38C338.151 1181.14 332.233 1252.98 396.407 1303.03L324.827 1345.99C297.768 1362.24 297.911 1388.57 325.148 1404.82L892.252 1742.99C919.489 1759.23 963.508 1759.23 990.571 1742.99L1149.71 1647.47C1133.01 1689.29 1152.04 1735.22 1206.79 1767.87C1290.39 1817.72 1425.61 1817.72 1508.67 1767.87C1591.73 1718.02 1591.19 1637.17 1507.59 1587.32Z" fill="#86ADDD"/>
<path d="M652.245 1213.84C650.01 1239.51 626.622 1256.94 605.525 1266.33C582.545 1276.56 557.278 1280.68 532.347 1280.35C506.902 1280.01 480.923 1274.99 457.978 1263.33C437.957 1253.15 416.705 1234.7 416.772 1209.59C416.725 1227.87 417.967 1242.98 430.721 1257.25C447.143 1275.62 471.864 1285.52 495.117 1290.48C540.488 1300.15 602.261 1295.48 636.726 1259.4C650.592 1244.89 652.487 1229.59 652.538 1210.29C652.491 1211.47 652.392 1212.66 652.245 1213.84Z" fill="#ACCDFB"/>
<path d="M617.718 1160.04C663.9 1187.58 664.193 1232.24 618.311 1259.77C572.429 1287.31 497.728 1287.31 451.546 1259.77C405.363 1232.24 405.178 1187.58 451.059 1160.04C496.941 1132.5 571.535 1132.5 617.718 1160.04Z" fill="#E1ECFF"/>
<path d="M555.66 1104.37L555.367 1210.8L537.344 1221.62L537.632 1115.19L555.66 1104.37Z" fill="#C6D7F1"/>
<path d="M537.636 1115.19L537.343 1221.62L519.193 1210.8L519.486 1104.37L537.636 1115.19Z" fill="#7AADFF"/>
<path d="M555.66 1104.37L537.632 1115.19L519.486 1104.37L537.518 1093.55L555.66 1104.37Z" fill="#4DA4DC"/>
<path d="M420.388 759.281C420.388 759.281 383.435 769.463 373.581 792.357C363.73 815.255 366.195 988.256 417.924 1059.5C469.652 1130.73 565.716 1140.91 587.885 1130.73C610.051 1120.55 738.138 1054.41 747.993 1021.33C757.843 988.256 708.583 962.817 681.484 950.097C654.39 937.373 637.142 919.566 622.366 873.771C607.586 827.979 600.2 749.107 582.956 736.387C565.716 723.667 523.842 703.311 420.388 759.281Z" fill="#39ADEE"/>
<path d="M646.066 698.59C646.066 698.59 575.703 662.942 563.392 664.72C548.678 667.1 531.744 676.525 531.657 698.616C531.574 720.707 546.017 733.973 558.236 737.412C570.455 740.851 676.075 763.791 692.918 759.582C709.761 755.374 717.259 737.924 702.256 722.196C687.259 706.474 646.066 698.59 646.066 698.59Z" fill="#E0E8F1"/>
<path d="M536.461 648.387C536.461 648.387 536.339 649.188 536.58 650.446C537.486 655.092 540.314 666.949 540.971 671.93C541.604 676.707 536.734 685.279 524.19 685.655C511.645 686.031 490.125 681.696 482.312 666.631C482.751 663.864 480.492 635.344 478.047 621.194L536.461 648.387Z" fill="#E06B40"/>
<path d="M563.41 554.164C554.346 514.938 522.904 494.014 488.954 504.057C488.954 504.057 451.91 509.806 436.98 544.427C422.05 579.044 447.697 606.207 464.11 623.328C471.021 630.348 476.247 635.77 479.55 639.222C480.745 640.53 481.924 641.858 483.166 643.035C483.395 643.28 483.522 643.41 483.522 643.41L483.558 643.374C494.706 653.805 507.191 659.395 516.329 661.708C531.528 665.552 549.117 662.014 558.172 650.994C567.227 639.974 572.477 593.39 563.41 554.164Z" fill="#FF8553"/>
<path d="M485.105 651.463C485.105 651.463 425.432 700.254 420.04 715.748C414.648 731.243 415.352 773.569 429.448 801.089C443.539 828.608 443.824 932.49 449.382 952.532C454.94 972.57 508.18 976.272 540.623 968.063C573.066 959.854 624.605 931.8 614.248 893.759C598.95 837.581 602.582 780.99 603.812 763.113C605.046 745.237 600.655 700.72 591.24 671.207C589.254 664.98 567.999 656.281 567.999 656.281C567.999 656.281 545.952 645.686 485.105 651.463Z" fill="#0046A6"/>
<path d="M495.924 883.945C471.29 851.719 507.42 741.479 464.723 710.948C451.704 701.636 440.524 699.287 431.263 700.492C425.539 706.694 421.298 712.133 420.04 715.749C414.648 731.243 415.352 773.574 429.448 801.093C443.539 828.617 443.828 932.495 449.382 952.537C454.446 970.777 498.974 975.447 531.402 969.951L578.031 919.567C578.031 919.567 520.558 916.171 495.924 883.945Z" fill="#003783"/>
<path d="M483.083 659.734C534.962 654.81 558.84 664.028 564.774 666.859C565.68 677.642 566.108 691.882 564.019 704.916C559.956 730.237 550.189 799.806 550.189 799.806C550.189 799.806 518.177 742.651 497.107 719.128C482.276 702.571 467.674 686.975 460.308 679.162C472.742 668.204 483.083 659.734 483.083 659.734Z" fill="#E0E8F1"/>
<path d="M536.461 648.387C536.461 648.387 536.339 649.188 536.58 650.446C537.486 655.092 540.314 666.949 540.971 671.93C541.604 676.707 536.734 685.279 524.19 685.655C511.645 686.031 490.125 681.696 482.312 666.631C482.751 663.864 480.492 635.344 478.047 621.194L536.461 648.387Z" fill="#FF8553"/>
<path d="M554.646 536.177C535.679 501.282 499.799 490.364 469.537 509.791C469.537 509.791 435.164 526.006 429.703 563.438C424.242 600.866 456.131 619.428 476.472 631.055C484.987 635.77 491.456 639.444 495.551 641.791C497.047 642.696 498.534 643.625 500.042 644.391C500.328 644.559 500.485 644.647 500.485 644.647L500.51 644.602C514.014 651.354 527.555 653.089 537.003 652.658C552.718 651.938 568.829 643.466 574.733 630.306C580.637 617.147 573.616 571.072 554.646 536.177Z" fill="#FF9F75"/>
<path d="M557.428 719.066L534.305 697.909L515.807 731.349L497.154 719.181C518.224 742.737 550.185 799.806 550.185 799.806C550.185 799.806 558.334 741.776 562.84 712.427L557.428 719.066Z" fill="#CFDAE3"/>
<path d="M555.838 760.037L545.536 722.478L547.091 709.611L534.305 697.909L525.329 714.131L535.627 723.843L538.423 779.609C545.445 791.348 550.185 799.806 550.185 799.806C550.185 799.806 552.772 781.378 555.838 760.037Z" fill="#00A4FF"/>
<path d="M428.211 560.548C428.211 560.548 422.22 591.804 448.458 613.493C474.694 635.178 497.462 641.076 501.91 638.757C506.353 636.431 508.339 634.432 506.047 631.221C503.755 628.01 494.142 617.975 494.142 617.975C494.142 617.975 473.343 622.349 469.259 609.114C465.176 595.882 471.512 591.08 480.884 591.897C490.256 592.714 493.295 598.331 499.498 601.547C505.701 604.763 510.593 616.399 513.76 613.996C516.929 611.597 518.176 607.19 516.32 601.172C514.464 595.159 512.236 587.94 502.93 583.115C493.623 578.29 498.168 563.468 488.118 556.235C478.074 549.005 472.238 546.992 472.238 546.992C472.238 546.992 479.187 552.615 501.297 539.821C523.407 527.031 534.397 524.642 541.981 515.433C549.562 506.229 543.12 493.79 535.735 490.974C528.353 488.157 513.452 490.537 495.075 490.106C476.704 489.677 468.377 496.479 449.806 508.072C431.233 519.67 419.038 547.706 428.211 560.548Z" fill="#E06B40"/>
<path d="M780.012 1306.27C780.012 1306.27 779.193 1318.99 792.331 1328.32C805.469 1337.65 807.934 1343.59 818.607 1347.83C829.28 1352.07 839.131 1366.49 834.206 1376.66C829.28 1386.84 806.292 1388.53 791.512 1384.3C776.733 1380.06 774.264 1366.49 760.308 1361.4C746.351 1356.31 741.422 1350.37 737.319 1346.13C733.213 1341.89 734.855 1324.93 734.855 1324.93L784.938 1307.97" fill="#382746"/>
<path d="M844.056 1257.08C844.056 1257.08 843.233 1269.8 856.371 1279.13C869.509 1288.46 871.974 1294.4 882.647 1298.64C893.32 1302.88 903.171 1317.29 898.245 1327.47C893.32 1337.65 870.332 1339.35 855.552 1335.11C840.769 1330.86 838.308 1317.29 824.351 1312.21C810.391 1307.12 805.465 1301.18 801.363 1296.94C797.253 1292.7 798.894 1275.74 798.894 1275.74L848.981 1258.78" fill="#382746"/>
<path d="M453.231 953.059C453.231 953.059 455.692 963.238 455.692 972.141C455.692 981.044 449.532 1006.49 461.847 1037.02C474.162 1067.55 556.684 1073.91 583.779 1086.63C610.878 1099.35 626.884 1110.8 631.813 1114.61C636.738 1118.43 643.712 1172.28 665.063 1204.5C686.41 1236.73 722.54 1301.18 730.748 1328.32C730.748 1328.32 754.109 1334.01 775.083 1319.84C786.065 1312.42 784.938 1307.97 784.938 1307.97C784.938 1307.97 742.241 1211.29 732.386 1170.58C722.536 1129.88 711.04 1082.39 692.976 1070.52C674.913 1058.64 617.445 1016.24 604.307 1007.76C591.169 999.28 555.767 972.472 548.832 956.197C541.901 939.919 474.578 913.625 453.231 953.059Z" fill="#93A2C0"/>
<path d="M520.97 911.084C520.97 911.084 523.43 921.263 523.43 930.166C523.43 939.069 517.271 964.513 529.59 995.039C541.901 1025.57 624.423 1031.93 651.518 1044.65C678.616 1057.37 694.626 1068.82 699.551 1072.64C704.481 1076.45 711.451 1130.3 732.802 1162.53C754.148 1194.75 790.274 1259.21 798.487 1286.35C798.487 1286.35 821.847 1292.03 842.822 1277.86C853.804 1270.44 852.676 1265.99 852.676 1265.99C852.676 1265.99 809.987 1169.31 800.133 1128.61C790.278 1087.9 778.782 1040.41 760.715 1028.54C742.656 1016.67 685.183 974.262 672.045 965.784C658.911 957.305 623.509 930.493 616.578 914.214C609.647 897.94 542.316 871.65 520.97 911.084Z" fill="#93A2C0"/>
<path d="M853.479 1232.74L852.771 1491.45L808.95 1517.75L809.659 1259.04L853.479 1232.74Z" fill="#C6D7F1"/>
<path d="M809.663 1259.04L808.954 1517.74L764.841 1491.45L765.557 1232.74L809.663 1259.04Z" fill="#7AADFF"/>
<path d="M853.479 1232.74L809.659 1259.04L765.553 1232.74L809.374 1206.44L853.479 1232.74Z" fill="#4DA4DC"/>
<path d="M1574.01 1055.52C1573.95 1056.28 1573.9 1057.03 1573.77 1057.78C1573.65 1058.39 1573.48 1059.01 1573.32 1059.62C1573.14 1060.34 1572.96 1061.05 1572.72 1061.76C1572.52 1062.35 1572.25 1062.93 1572.01 1063.51C1571.69 1064.26 1571.38 1065.01 1570.99 1065.75C1570.71 1066.29 1570.38 1066.81 1570.06 1067.35C1569.56 1068.19 1569.02 1069.02 1568.43 1069.85C1567.85 1070.64 1567.26 1071.44 1566.59 1072.22C1566.44 1072.4 1566.3 1072.59 1566.14 1072.77C1565.24 1073.78 1564.25 1074.77 1563.21 1075.73C1562.54 1076.36 1561.8 1076.96 1561.07 1077.56C1560.43 1078.09 1559.82 1078.63 1559.13 1079.14C1558.34 1079.74 1557.47 1080.3 1556.62 1080.87C1555.75 1081.46 1554.93 1082.06 1553.99 1082.62L990.571 1420.8C985.93 1423.59 980.795 1425.9 975.336 1427.72C971.115 1429.14 966.7 1430.26 962.17 1431.11C959.259 1431.65 956.296 1432.07 953.305 1432.38C950.749 1432.65 948.174 1432.82 945.595 1432.91C943.225 1433 940.848 1433.01 938.474 1432.95C936.187 1432.89 933.897 1432.76 931.626 1432.57L931.511 1474.05C933.786 1474.24 936.073 1474.37 938.359 1474.43C940.733 1474.49 943.11 1474.47 945.48 1474.39C948.059 1474.3 950.635 1474.12 953.19 1473.86C956.181 1473.55 959.144 1473.13 962.06 1472.58C966.589 1471.74 971 1470.61 975.221 1469.2C980.685 1467.37 985.815 1465.06 990.456 1462.28L1553.87 1124.1C1554.15 1123.93 1554.44 1123.75 1554.72 1123.58C1555.35 1123.19 1555.89 1122.76 1556.5 1122.36C1557.35 1121.78 1558.22 1121.22 1559.02 1120.62C1559.7 1120.11 1560.31 1119.57 1560.95 1119.04C1561.68 1118.43 1562.43 1117.84 1563.09 1117.21C1563.23 1117.09 1563.39 1116.97 1563.53 1116.85C1564.42 1116 1565.24 1115.13 1566.02 1114.24C1566.18 1114.06 1566.33 1113.87 1566.49 1113.69C1566.94 1113.15 1567.41 1112.61 1567.83 1112.06C1568.02 1111.82 1568.14 1111.57 1568.32 1111.33C1568.91 1110.5 1569.44 1109.66 1569.95 1108.82C1570.16 1108.47 1570.44 1108.12 1570.63 1107.77C1570.73 1107.59 1570.79 1107.4 1570.88 1107.22C1571.27 1106.49 1571.58 1105.74 1571.89 1104.99C1572.08 1104.56 1572.32 1104.13 1572.49 1103.69C1572.54 1103.54 1572.56 1103.39 1572.61 1103.24C1572.85 1102.53 1573.02 1101.81 1573.21 1101.09C1573.33 1100.61 1573.51 1100.13 1573.61 1099.65C1573.63 1099.52 1573.63 1099.38 1573.65 1099.26C1573.78 1098.51 1573.84 1097.75 1573.9 1096.99C1573.94 1096.5 1574.05 1096.02 1574.06 1095.53C1574.07 1095.31 1574.08 1095.11 1574.08 1094.89L1574.19 1053.42C1574.19 1054.12 1574.08 1054.82 1574.01 1055.52Z" fill="#ACCDFB"/>
<path d="M924.869 1431.79C922.547 1431.45 920.241 1431.04 917.97 1430.55C915.513 1430.02 913.088 1429.41 910.719 1428.72C907.819 1427.86 904.998 1426.88 902.28 1425.77C898.748 1424.33 895.385 1422.68 892.248 1420.8L325.144 1082.63C311.44 1074.46 304.596 1063.73 304.624 1053.01L304.513 1094.49C304.485 1105.2 311.325 1115.93 325.033 1124.1L892.137 1462.28C895.278 1464.15 898.633 1465.81 902.166 1467.25C904.884 1468.36 907.708 1469.34 910.608 1470.19C912.978 1470.89 915.399 1471.5 917.859 1472.03C920.126 1472.51 922.428 1472.93 924.751 1473.27C926.986 1473.59 929.241 1473.85 931.511 1474.05L931.622 1432.57C929.355 1432.38 927.1 1432.11 924.869 1431.79Z" fill="#ACCDFB"/>
<path d="M1553.67 1025.44C1580.91 1041.69 1581.05 1068.02 1553.99 1084.27L990.571 1422.45C963.508 1438.69 919.493 1438.69 892.252 1422.45L325.148 1084.27C297.907 1068.02 297.764 1041.69 324.827 1025.45L888.245 687.265C915.308 671.024 959.326 671.024 986.563 687.265L1553.67 1025.44Z" fill="#E1ECFF"/>
<path d="M944.159 1147.93L1099.4 1241.11L1208.61 1175.99L1053.36 1082.81L944.159 1147.93Z" fill="white"/>
<path d="M1076.11 1124.74L1051.68 1139.4L1020.75 1129.98C1029.38 1119.78 1050.23 1115.72 1067.31 1120.93C1070.73 1121.96 1073.39 1123.12 1076.11 1124.74Z" fill="#FF5568"/>
<path d="M1081.7 1126.64C1098.12 1136.43 1098.21 1152.31 1081.89 1162.1C1065.59 1171.89 1039.06 1171.89 1022.64 1162.1C1009.51 1154.27 1006.43 1142.86 1014.78 1132.99L1052.17 1144.37L1081.7 1126.64Z" fill="#B391FF"/>
<path d="M1059.25 1196.32C1057.89 1197.13 1057.88 1198.43 1059.23 1199.24C1060.58 1200.05 1062.75 1200.05 1064.11 1199.24L1133.41 1157.91C1134.77 1157.09 1134.78 1155.8 1133.43 1154.99C1132.07 1154.18 1129.91 1154.18 1128.55 1154.99L1059.25 1196.32Z" fill="#ACCDFB"/>
<path d="M1107.13 1177.33C1105.79 1178.12 1105.79 1179.45 1107.11 1180.24C1108.46 1181.05 1110.67 1181.05 1112.01 1180.26L1141.42 1162.72C1142.78 1161.91 1142.76 1160.6 1141.41 1159.79C1140.08 1158.99 1137.9 1158.97 1136.54 1159.79L1107.13 1177.33Z" fill="#D3D9DF"/>
<path d="M1098.01 1191.72C1096.65 1192.53 1096.62 1193.84 1097.97 1194.65C1099.32 1195.47 1101.5 1195.45 1102.87 1194.64L1148.88 1167.2C1150.24 1166.39 1150.25 1165.09 1148.9 1164.28C1147.54 1163.47 1145.39 1163.47 1144.03 1164.28L1098.01 1191.72Z" fill="#D3D9DF"/>
<path d="M599.31 903.693L754.556 996.878L863.761 931.76L708.512 838.57L599.31 903.693Z" fill="white"/>
<path d="M731.263 880.505L706.834 895.166L675.902 885.752C684.534 875.553 705.382 871.491 722.464 876.693C725.882 877.731 728.545 878.887 731.263 880.505Z" fill="#B391FF"/>
<path d="M736.86 882.409C753.274 892.199 753.361 908.073 737.05 917.863C720.74 927.649 694.207 927.649 677.793 917.863C664.659 910.031 661.578 898.622 669.933 888.755L707.325 900.134L736.86 882.409Z" fill="#05CCFF"/>
<path d="M714.398 952.084C713.037 952.897 713.033 954.188 714.386 954.997C715.735 955.81 717.895 955.81 719.256 954.997L788.565 913.675C789.926 912.862 789.93 911.571 788.577 910.762C787.228 909.949 785.068 909.949 783.707 910.762L714.398 952.084Z" fill="#ACCDFB"/>
<path d="M762.282 933.088C760.949 933.885 760.941 935.213 762.266 936.006C763.619 936.819 765.826 936.819 767.163 936.022L796.572 918.485C797.937 917.676 797.917 916.364 796.564 915.551C795.239 914.754 793.051 914.738 791.695 915.551L762.282 933.088Z" fill="#D3D9DF"/>
<path d="M753.159 947.487C751.798 948.3 751.767 949.607 753.12 950.416C754.472 951.23 756.656 951.217 758.017 950.408L804.033 922.963C805.394 922.149 805.402 920.862 804.049 920.049C802.696 919.236 800.54 919.236 799.175 920.049L753.159 947.487Z" fill="#05CCFF"/>
<mask id="mask1_31_1058" style="mask-type:luminance" maskUnits="userSpaceOnUse" x="632" y="1070" width="241" height="153">
<path d="M872.543 1194.66L671.756 1070.5L632.857 1097.72L827.619 1222.14L872.543 1194.66Z" fill="white"/>
</mask>
<g mask="url(#mask1_31_1058)">
<path d="M848.985 1190.92L848.962 1200.55L827.449 1213.46L827.477 1203.83L848.985 1190.92Z" fill="#530BC6"/>
<path d="M827.473 1203.83L827.449 1213.46L644.547 1104.4L644.575 1094.77L827.473 1203.83Z" fill="#3E0894"/>
<path d="M848.985 1190.92L827.477 1203.83L644.579 1094.77L666.088 1081.85L848.985 1190.92Z" fill="#7974F5"/>
</g>
<mask id="mask2_31_1058" style="mask-type:luminance" maskUnits="userSpaceOnUse" x="590" y="1095" width="194" height="129">
<path d="M783.023 1196.41L629.708 1095.74L590.809 1122.96L738.099 1223.89L783.023 1196.41Z" fill="white"/>
</mask>
<g mask="url(#mask2_31_1058)">
<path d="M767.697 1192.77L767.67 1202.4L746.169 1215.31L746.197 1205.68L767.697 1192.77Z" fill="#2588FC"/>
<path d="M746.197 1205.68L746.169 1215.31L602.499 1129.64L602.526 1120L746.197 1205.68Z" fill="#3547DB"/>
<path d="M767.697 1192.77L746.197 1205.68L602.526 1120L624.027 1107.1L767.697 1192.77Z" fill="#57AEFA"/>
</g>
<mask id="mask3_31_1058" style="mask-type:luminance" maskUnits="userSpaceOnUse" x="548" y="1120" width="193" height="130">
<path d="M740.963 1221.67L587.648 1120.99L548.749 1148.21L696.038 1249.14L740.963 1221.67Z" fill="white"/>
</mask>
<g mask="url(#mask3_31_1058)">
<path d="M647.704 1171.55L647.676 1181.19L626.183 1194.09L626.207 1184.46L647.704 1171.55Z" fill="#ED2C6A"/>
<path d="M626.211 1184.45L626.179 1194.08L560.439 1154.88L560.462 1145.25L626.211 1184.45Z" fill="#ED428B"/>
<path d="M647.704 1171.55L626.207 1184.45L560.466 1145.25L581.959 1132.35L647.704 1171.55Z" fill="#FF3C9D"/>
</g>
<path d="M502.602 1118.35C500.458 1119.63 500.442 1121.67 502.574 1122.95C504.703 1124.22 508.109 1124.22 510.257 1122.95L619.49 1057.8C621.638 1056.52 621.654 1054.49 619.521 1053.21C617.389 1051.92 613.987 1051.92 611.839 1053.21L502.602 1118.35Z" fill="#ACCDFB"/>
<path d="M578.074 1088.41C575.97 1089.66 575.954 1091.75 578.047 1093C580.175 1094.28 583.66 1094.28 585.765 1093.03L632.121 1065.38C634.269 1064.1 634.238 1062.04 632.109 1060.76C630.017 1059.51 626.571 1059.48 624.427 1060.76L578.074 1088.41Z" fill="#ACCDFB"/>
<path d="M563.694 1111.1C561.55 1112.38 561.499 1114.44 563.627 1115.72C565.759 1117 569.205 1116.97 571.349 1115.69L643.886 1072.44C646.027 1071.17 646.039 1069.13 643.906 1067.85C641.778 1066.57 638.372 1066.57 636.228 1067.85L563.694 1111.1Z" fill="#ACCDFB"/>
<path d="M557.139 1006.74L539.78 1017.16C524.024 1008.27 499.263 1008.43 483.933 1017.63C483.617 1017.82 483.32 1018.02 483.016 1018.21L465.542 1007.79C465.851 1007.6 466.155 1007.4 466.472 1007.22C491.383 992.261 531.738 992.102 557.139 1006.74Z" fill="#7BCCFF"/>
<path d="M559.817 1008.36C580.44 1021.7 582.572 1041.58 566.159 1056.2L548.143 1045.46C555.371 1036.91 553.464 1026.3 542.435 1018.8L559.817 1008.36Z" fill="#7BCCFF"/>
<path d="M563.908 1058.08C562.191 1059.42 560.312 1060.72 558.259 1061.95C533.708 1076.69 494.16 1077.06 468.703 1063.06L486.082 1052.62C501.87 1060.88 525.831 1060.52 540.797 1051.54C542.878 1050.29 544.666 1048.94 546.185 1047.51L563.908 1058.08Z" fill="#3DABFF"/>
<path d="M480.543 1019.95C468.683 1029.18 469.621 1042.4 483.324 1051.04L465.965 1061.46C442.629 1047.05 441.604 1024.52 462.982 1009.48L480.543 1019.95Z" fill="#3DABFF"/>
<path d="M926.416 499.286C934.391 504.042 940.859 515.614 940.832 525.077L940.673 669.28C940.65 678.743 934.138 682.576 926.163 677.82L887.232 654.599L885.337 657.324L877.737 668.373L870.201 648.302L868.33 643.33L829.399 620.113C821.42 615.357 814.98 603.802 815.003 594.339L815.161 450.14C815.189 440.672 821.673 436.827 829.648 441.583L926.416 499.286Z" fill="#57AEFA"/>
<path d="M858.915 500.83L858.907 504.887C858.899 507.282 856.387 508.769 854.385 507.568L835.855 496.466C834.926 495.906 834.352 494.877 834.356 493.765L834.368 489.708C834.372 487.318 836.884 485.83 838.886 487.032L857.416 498.133C858.345 498.693 858.919 499.723 858.915 500.83Z" fill="white"/>
<path d="M917.539 555.955L917.527 560.024C917.523 562.41 915.015 563.898 913.013 562.705L835.808 516.664C834.874 516.108 834.297 515.082 834.301 513.967L834.312 509.901C834.32 507.515 836.824 506.024 838.83 507.217L916.035 553.258C916.965 553.818 917.539 554.843 917.539 555.955Z" fill="#ACCDFB"/>
<path d="M854.239 554.365L854.227 559.019L843.767 595.895L839.289 593.219L849.701 556.421L836.049 548.281L836.061 543.529L854.239 554.365Z" fill="white"/>
<path d="M875.467 567.028L875.455 571.784L863.654 564.744L862.966 579.028C864.267 577.194 866.249 577.051 868.963 578.669C874.134 581.75 876.4 587.605 876.381 594.4L876.357 603.708C876.337 611.018 873.398 614.017 867.282 610.372C861.122 606.699 858.25 600.231 858.27 592.921L858.278 589.75L862.499 592.267L862.491 595.793C862.479 600.084 863.935 603.569 867.163 605.493C870.352 607.393 871.867 605.681 871.879 601.391L871.902 592.144C871.914 587.85 870.415 584.34 867.226 582.44C864.774 580.977 863.088 581.611 862.693 584.855L862.689 585.926L858.468 583.413L859.663 557.605L875.467 567.028Z" fill="white"/>
<path d="M905.995 602.841C909.955 605.207 911.712 609.322 911.7 613.874L911.664 628.849C911.652 633.499 909.872 635.513 905.908 633.151C901.992 630.814 900.152 626.642 900.164 621.992L900.2 607.017C900.216 602.47 902.075 600.504 905.995 602.841ZM908.776 627.435L908.816 611.949C908.824 609.342 907.969 607.14 905.987 605.959C903.966 604.754 903.096 605.926 903.088 608.533L903.044 624.019C903.04 626.577 903.895 628.877 905.92 630.083C907.898 631.264 908.772 629.989 908.776 627.435Z" fill="white"/>
<path d="M891.983 599.401C891.971 604.002 890.112 605.967 886.195 603.63C882.319 601.317 880.479 597.149 880.491 592.553L880.527 577.471C880.538 572.923 882.402 570.905 886.279 573.218C890.195 575.555 892.038 579.78 892.027 584.327L891.983 599.401ZM889.103 597.938L889.143 582.403C889.151 579.849 888.292 577.541 886.271 576.335C884.202 575.105 883.422 576.433 883.414 578.987L883.371 594.522C883.363 597.129 884.134 599.278 886.203 600.512C888.225 601.717 889.095 600.545 889.103 597.938Z" fill="white"/>
<path d="M902.597 583.208L905.267 584.802L889.332 623.063L886.619 621.445L902.597 583.208Z" fill="white"/>
<path d="M1077.51 824.211C1123.69 851.751 1123.99 896.411 1078.1 923.951C1032.22 951.49 957.518 951.49 911.336 923.951C865.154 896.411 864.968 851.751 910.849 824.211C956.731 796.672 1031.33 796.672 1077.51 824.211Z" fill="#ACCDFB"/>
<path d="M1078.6 794.711L1078.55 812.248L1049.2 829.867L1049.25 812.33L1078.6 794.711Z" fill="#CC086A"/>
<path d="M960.544 824.69C960.746 824.609 960.94 824.523 961.142 824.441C962.784 823.795 964.473 823.215 966.178 822.66C967.361 822.275 968.571 821.932 969.782 821.593C970.7 821.336 971.609 821.062 972.547 820.829C973.817 820.51 975.114 820.245 976.408 819.971C977.357 819.771 978.291 819.55 979.252 819.374C979.64 819.305 980.036 819.252 980.431 819.186C982.041 818.913 983.659 818.676 985.293 818.476C985.764 818.414 986.235 818.353 986.709 818.3C988.596 818.091 990.495 817.92 992.402 817.805C992.754 817.785 993.106 817.773 993.458 817.752C994.74 817.687 996.026 817.666 997.308 817.642C998.589 817.622 999.867 817.609 1001.15 817.626C1002.22 817.638 1003.29 817.675 1004.36 817.716C1005.55 817.765 1006.73 817.83 1007.92 817.912C1009 817.989 1010.08 818.083 1011.16 818.194C1012.33 818.312 1013.5 818.443 1014.66 818.598C1015.71 818.737 1016.76 818.888 1017.8 819.056C1019.04 819.256 1020.28 819.481 1021.51 819.722C1022.8 819.975 1024.09 820.228 1025.37 820.527C1025.67 820.6 1025.98 820.666 1026.28 820.743C1028.07 821.18 1029.83 821.675 1031.56 822.206C1032.06 822.357 1032.55 822.521 1033.04 822.68C1034.48 823.15 1035.9 823.644 1037.29 824.18C1037.71 824.335 1038.12 824.478 1038.52 824.641C1039.79 825.148 1041.01 825.716 1042.24 826.276C1042.84 826.554 1043.47 826.799 1044.06 827.089C1045.82 827.955 1047.54 828.878 1049.2 829.867L1049.25 809.417C1047.59 808.428 1045.87 807.505 1044.1 806.638C1043.52 806.348 1042.9 806.103 1042.3 805.829C1041.25 805.347 1040.22 804.845 1039.13 804.403C1038.94 804.326 1038.75 804.268 1038.57 804.191C1038.17 804.032 1037.76 803.888 1037.35 803.733C1035.95 803.198 1034.53 802.699 1033.09 802.23C1032.6 802.07 1032.11 801.907 1031.61 801.756C1031.28 801.653 1030.95 801.535 1030.62 801.437C1029.2 801.024 1027.77 800.644 1026.33 800.289C1026.02 800.215 1025.72 800.146 1025.41 800.072C1024.71 799.909 1024.01 799.737 1023.3 799.586C1022.73 799.463 1022.14 799.386 1021.56 799.271C1020.32 799.03 1019.09 798.806 1017.84 798.605C1017.34 798.524 1016.85 798.409 1016.35 798.336C1015.81 798.258 1015.25 798.217 1014.71 798.148C1013.54 797.992 1012.38 797.862 1011.21 797.743C1010.65 797.686 1010.09 797.596 1009.54 797.551C1009.01 797.506 1008.49 797.502 1007.97 797.461C1006.78 797.375 1005.6 797.314 1004.41 797.269C1003.82 797.241 1003.22 797.179 1002.63 797.163C1002.15 797.151 1001.68 797.183 1001.2 797.175C999.915 797.159 998.637 797.167 997.355 797.196C996.722 797.204 996.081 797.179 995.444 797.2C994.799 797.224 994.155 797.269 993.51 797.302C993.154 797.322 992.802 797.335 992.45 797.359C990.851 797.453 989.257 797.576 987.667 797.739C987.362 797.768 987.062 797.817 986.757 797.849C986.282 797.903 985.811 797.964 985.341 798.025C983.711 798.225 982.093 798.462 980.487 798.732C980.087 798.801 979.688 798.855 979.296 798.924C979.106 798.961 978.916 798.989 978.726 799.022C977.963 799.165 977.223 799.365 976.467 799.521C975.17 799.794 973.868 800.06 972.59 800.379C971.661 800.612 970.755 800.885 969.837 801.143C968.623 801.486 967.408 801.825 966.225 802.209C965.972 802.291 965.703 802.352 965.45 802.438C964.006 802.92 962.59 803.443 961.193 803.991C960.988 804.072 960.794 804.162 960.592 804.244C959.061 804.861 957.57 805.523 956.102 806.218C955.675 806.426 955.243 806.638 954.816 806.851C953.198 807.66 951.608 808.506 950.085 809.417C949.8 809.588 949.511 809.76 949.23 809.936C948.965 810.099 948.72 810.275 948.463 810.438C948.032 810.716 947.604 810.986 947.189 811.272C946.809 811.525 946.441 811.787 946.073 812.048C945.67 812.334 945.274 812.624 944.887 812.919C944.531 813.184 944.186 813.454 943.842 813.719C943.474 814.018 943.102 814.312 942.742 814.61C942.414 814.888 942.094 815.162 941.777 815.44C941.433 815.742 941.097 816.044 940.768 816.347C940.634 816.473 940.484 816.6 940.353 816.727C940.23 816.845 940.124 816.964 940.001 817.082C939.451 817.622 938.921 818.169 938.415 818.721C938.245 818.905 938.066 819.08 937.9 819.268C937.256 819.991 936.646 820.727 936.081 821.462C936.057 821.495 936.029 821.528 936.005 821.556C935.875 821.728 935.764 821.895 935.641 822.067C935.297 822.533 934.961 823.003 934.652 823.473C934.478 823.73 934.32 823.992 934.158 824.253C933.893 824.678 933.632 825.107 933.39 825.532C933.327 825.651 933.248 825.765 933.181 825.883C933.086 826.059 933.011 826.235 932.92 826.411C932.73 826.774 932.548 827.138 932.374 827.501C932.231 827.804 932.097 828.102 931.962 828.409C931.804 828.776 931.654 829.144 931.515 829.512C931.452 829.675 931.373 829.839 931.314 830.002C931.262 830.149 931.223 830.3 931.171 830.447C931.052 830.795 930.942 831.146 930.835 831.498C930.74 831.812 930.649 832.131 930.566 832.45C930.471 832.801 930.392 833.157 930.317 833.508C930.273 833.7 930.218 833.888 930.182 834.08C930.154 834.207 930.147 834.337 930.123 834.468C930.056 834.828 930.004 835.187 929.957 835.551C929.913 835.866 929.874 836.184 929.842 836.503C929.806 836.867 929.787 837.23 929.767 837.598C929.755 837.806 929.727 838.023 929.719 838.235C929.715 838.448 929.711 841.574 929.711 841.786L929.664 859.319C929.664 858.894 929.696 858.473 929.719 858.048C929.735 857.681 929.759 857.317 929.794 856.953C929.822 856.635 929.866 856.316 929.909 856.001C929.961 855.638 930.008 855.274 930.075 854.914C930.131 854.592 930.198 854.277 930.269 853.958C930.344 853.607 930.427 853.251 930.518 852.9C930.602 852.581 930.693 852.259 930.787 851.94C930.894 851.588 931.005 851.249 931.124 850.898C931.231 850.583 931.349 850.273 931.468 849.962C931.61 849.594 931.757 849.227 931.915 848.863C932.045 848.557 932.184 848.254 932.326 847.948C932.5 847.588 932.682 847.225 932.868 846.861C933.023 846.571 933.181 846.277 933.343 845.982C933.588 845.553 933.845 845.124 934.11 844.699C934.273 844.442 934.431 844.181 934.601 843.923C934.914 843.449 935.25 842.992 935.59 842.526C935.74 842.321 935.879 842.117 936.033 841.913C936.599 841.177 937.212 840.442 937.853 839.723C938.019 839.539 938.197 839.355 938.367 839.171C938.874 838.619 939.404 838.076 939.953 837.541C940.207 837.292 940.46 837.046 940.721 836.801C941.049 836.499 941.386 836.196 941.73 835.894C942.046 835.612 942.367 835.334 942.699 835.061C943.055 834.762 943.423 834.464 943.795 834.17C944.139 833.9 944.483 833.635 944.839 833.369C945.223 833.079 945.622 832.789 946.022 832.507C946.39 832.245 946.762 831.976 947.142 831.718C947.557 831.436 947.984 831.167 948.415 830.893C948.949 830.55 949.48 830.202 950.037 829.867C951.56 828.952 953.151 828.106 954.773 827.297C955.192 827.081 955.623 826.88 956.054 826.676C957.518 825.977 959.014 825.307 960.544 824.69Z" fill="#CC086A"/>
<path d="M950.409 871.654L950.362 889.191L921.008 906.81L921.06 889.273L950.409 871.654Z" fill="#CC086A"/>
<path d="M921.06 889.27L921.012 906.807C898.973 893.662 887.964 876.415 888.011 859.197L888.059 841.668C888.011 858.886 899.021 876.129 921.06 889.27Z" fill="#CC086A"/>
<path d="M1078.6 794.711L1049.25 812.334C1021.78 795.953 977.381 795.953 950.089 812.334C922.796 828.715 922.939 855.278 950.409 871.659L921.06 889.278C877.259 863.156 877.041 820.821 920.541 794.711C964.042 768.602 1034.8 768.593 1078.6 794.711Z" fill="#FF5568"/>
<path d="M1049.25 817.695L1049.2 829.868C1063.01 838.105 1069.92 848.921 1069.88 859.724L1069.93 842.191C1069.96 831.387 1063.06 825.933 1049.25 817.695Z" fill="#3178CC"/>
<path d="M1078.23 895.141L1078.18 907.309L1048.64 889.691L1048.68 877.522L1078.23 895.141Z" fill="#3178CC"/>
<path d="M1111.5 844.34C1111.47 844.924 1111.43 845.505 1111.38 846.085C1111.33 846.592 1111.26 847.094 1111.19 847.601C1111.11 848.177 1111.03 848.761 1110.92 849.337C1110.84 849.844 1110.73 850.351 1110.62 850.857C1110.5 851.417 1110.37 851.985 1110.22 852.549C1110.09 853.056 1109.94 853.558 1109.79 854.065C1109.63 854.625 1109.44 855.18 1109.25 855.74C1109.08 856.234 1108.9 856.737 1108.71 857.231C1108.48 857.816 1108.25 858.396 1107.99 858.98C1107.79 859.467 1107.57 859.957 1107.34 860.439C1107.07 861.023 1106.77 861.595 1106.47 862.167C1106.22 862.637 1105.98 863.107 1105.72 863.573C1105.33 864.259 1104.91 864.938 1104.49 865.616C1104.23 866.029 1103.99 866.441 1103.71 866.85C1103.21 867.602 1102.68 868.345 1102.13 869.089C1101.9 869.412 1101.68 869.739 1101.43 870.057C1100.53 871.238 1099.55 872.399 1098.53 873.547C1098.27 873.845 1097.98 874.139 1097.71 874.434C1096.9 875.312 1096.06 876.174 1095.18 877.032C1094.78 877.424 1094.37 877.817 1093.96 878.209C1093.43 878.695 1092.9 879.181 1092.35 879.664C1091.84 880.105 1091.33 880.542 1090.81 880.979C1090.24 881.457 1089.65 881.931 1089.06 882.401C1088.51 882.83 1087.96 883.263 1087.39 883.688C1086.78 884.15 1086.14 884.608 1085.51 885.061C1084.92 885.478 1084.33 885.895 1083.72 886.307C1083.06 886.753 1082.38 887.19 1081.69 887.631C1080.84 888.179 1079.99 888.735 1079.1 889.27C1078.81 889.441 1078.52 889.601 1078.23 889.776L1078.18 907.305C1078.47 907.13 1078.76 906.974 1079.05 906.799C1079.51 906.521 1079.96 906.243 1080.42 905.965C1080.83 905.704 1081.23 905.438 1081.64 905.173C1082.33 904.731 1083.01 904.282 1083.68 903.836C1084.28 903.424 1084.87 903.015 1085.45 902.598C1086.09 902.145 1086.73 901.683 1087.35 901.221C1087.92 900.796 1088.46 900.363 1089 899.93C1089.6 899.464 1090.19 898.99 1090.76 898.516C1091.29 898.079 1091.8 897.638 1092.3 897.197C1092.85 896.714 1093.39 896.224 1093.91 895.738C1094.13 895.538 1094.36 895.346 1094.58 895.145C1094.77 894.958 1094.94 894.757 1095.13 894.569C1096.01 893.711 1096.85 892.841 1097.66 891.967C1097.93 891.668 1098.22 891.382 1098.49 891.084C1099.51 889.932 1100.48 888.771 1101.38 887.595C1101.42 887.541 1101.47 887.492 1101.51 887.439C1101.71 887.17 1101.88 886.896 1102.09 886.626C1102.63 885.882 1103.17 885.139 1103.67 884.391C1103.94 883.978 1104.18 883.566 1104.44 883.153C1104.87 882.475 1105.28 881.788 1105.67 881.102C1105.77 880.914 1105.9 880.734 1106.01 880.546C1106.16 880.268 1106.28 879.986 1106.42 879.704C1106.72 879.132 1107.01 878.556 1107.29 877.976C1107.51 877.49 1107.74 877.004 1107.95 876.513C1108.2 875.933 1108.44 875.349 1108.66 874.769C1108.76 874.507 1108.88 874.246 1108.98 873.984C1109.06 873.747 1109.13 873.51 1109.21 873.277C1109.4 872.721 1109.58 872.166 1109.75 871.606C1109.9 871.095 1110.04 870.585 1110.17 870.074C1110.32 869.514 1110.45 868.958 1110.58 868.394C1110.64 868.092 1110.73 867.79 1110.79 867.483C1110.83 867.279 1110.84 867.071 1110.88 866.866C1110.98 866.29 1111.07 865.718 1111.14 865.142C1111.21 864.635 1111.28 864.129 1111.33 863.622C1111.38 863.042 1111.42 862.466 1111.45 861.881C1111.47 861.542 1111.51 861.203 1111.52 860.86C1111.53 860.521 1111.53 860.182 1111.53 859.842L1111.58 842.313C1111.58 842.992 1111.54 843.662 1111.5 844.34Z" fill="#3178CC"/>
<path d="M1078.6 800.076C1122.38 826.186 1122.6 868.521 1079.1 894.634C1078.81 894.81 1078.52 894.969 1078.22 895.141L1048.68 877.518C1048.98 877.347 1049.27 877.191 1049.55 877.016C1076.85 860.635 1076.7 834.072 1049.24 817.699L1078.6 800.076Z" fill="#57AEFA"/>
<path d="M1061.63 915.301C1062.86 914.819 1064.06 914.316 1065.26 913.797C1065.98 913.491 1066.69 913.18 1067.4 912.862C1068.66 912.285 1069.91 911.689 1071.14 911.076C1071.73 910.786 1072.33 910.5 1072.91 910.198C1074.7 909.27 1076.47 908.318 1078.18 907.309L1078.23 903.398C1076.52 904.408 1074.75 905.36 1072.96 906.287C1072.38 906.59 1071.77 906.876 1071.18 907.166C1069.95 907.779 1068.71 908.375 1067.44 908.951C1066.74 909.27 1066.02 909.581 1065.31 909.887C1064.11 910.402 1062.9 910.913 1061.68 911.395C1060.93 911.693 1060.18 911.983 1059.42 912.265C1058.17 912.735 1056.91 913.184 1055.63 913.622C1054.83 913.899 1054.04 914.181 1053.23 914.443C1052.61 914.639 1052 914.831 1051.38 915.023C1050.26 915.37 1049.13 915.705 1047.99 916.024C1047.36 916.204 1046.72 916.384 1046.08 916.555C1044.88 916.882 1043.67 917.185 1042.45 917.487C1041.89 917.622 1041.33 917.769 1040.77 917.9C1038.99 918.312 1037.16 918.705 1035.35 919.06V922.97C1037.16 922.615 1038.94 922.223 1040.72 921.806C1041.28 921.679 1041.84 921.532 1042.4 921.397C1043.62 921.099 1044.83 920.793 1046.04 920.466C1046.67 920.294 1047.31 920.114 1047.94 919.934C1049.08 919.612 1050.21 919.277 1051.33 918.929C1051.95 918.741 1052.57 918.549 1053.18 918.353C1053.49 918.251 1053.82 918.157 1054.13 918.055C1054.63 917.891 1055.1 917.699 1055.59 917.532C1056.86 917.095 1058.12 916.645 1059.38 916.175C1060.13 915.893 1060.89 915.599 1061.63 915.301Z" fill="#E19F29"/>
<path d="M1078.23 903.394C1065.72 910.745 1051.03 915.963 1035.4 919.06L1021.74 895.488C1031.56 893.588 1040.81 890.344 1048.68 885.775L1078.23 903.394Z" fill="#FFBD3C"/>
<path d="M1030.58 916.519C1029.46 916.707 1028.35 916.907 1027.22 917.075C1025.91 917.271 1024.58 917.43 1023.26 917.598C1022.14 917.737 1021.02 917.888 1019.89 918.01C1017.8 918.235 1015.7 918.427 1013.6 918.578C1013.41 918.591 1013.22 918.615 1013.03 918.627C1010.71 918.787 1008.37 918.897 1006.03 918.971C1005.44 918.987 1004.84 918.991 1004.25 919.003C1002.52 919.044 1000.8 919.06 999.068 919.048C998.356 919.044 997.64 919.036 996.924 919.024C995.017 918.991 993.11 918.934 991.208 918.84C990.844 918.823 990.48 918.815 990.116 918.799C987.869 918.676 985.63 918.509 983.394 918.309C982.805 918.256 982.216 918.19 981.63 918.133C979.897 917.961 978.173 917.761 976.456 917.54C975.835 917.459 975.209 917.381 974.592 917.295C972.365 916.985 970.146 916.646 967.946 916.253C967.934 916.249 967.919 916.249 967.903 916.245C965.719 915.853 963.559 915.408 961.415 914.934C960.647 914.766 959.888 914.578 959.128 914.398C957.657 914.055 956.193 913.691 954.741 913.307C953.946 913.095 953.155 912.878 952.368 912.658C951.11 912.302 949.867 911.922 948.629 911.538C947.494 911.187 946.358 910.827 945.239 910.451C944.096 910.063 942.968 909.659 941.841 909.246C940.741 908.845 939.637 908.437 938.553 908.008C936.904 907.354 935.266 906.692 933.664 905.981C933.505 905.912 933.339 905.846 933.181 905.777C931.306 904.939 929.474 904.049 927.67 903.129C927.235 902.904 926.8 902.68 926.369 902.455C924.565 901.507 922.781 900.535 921.056 899.505L921.008 906.807C922.733 907.836 924.513 908.809 926.321 909.757C926.752 909.981 927.188 910.21 927.623 910.431C929.431 911.35 931.262 912.241 933.137 913.079C933.292 913.148 933.454 913.213 933.612 913.283C934.799 913.806 935.99 914.325 937.2 914.815C937.627 914.991 938.074 915.138 938.502 915.31C939.594 915.739 940.693 916.147 941.801 916.552C942.921 916.96 944.044 917.369 945.187 917.749C946.311 918.129 947.446 918.488 948.59 918.84C949.282 919.056 949.958 919.302 950.659 919.506C951.204 919.669 951.762 919.804 952.312 919.959C953.107 920.18 953.898 920.397 954.698 920.609C956.149 920.997 957.605 921.357 959.077 921.704C959.84 921.88 960.6 922.068 961.363 922.235C961.7 922.309 962.028 922.395 962.36 922.468C964.18 922.856 966.008 923.216 967.851 923.547L967.923 923.559C969.734 923.882 971.562 924.18 973.394 924.446C973.777 924.503 974.161 924.544 974.541 924.601C975.162 924.687 975.787 924.765 976.408 924.842C978.129 925.063 979.85 925.263 981.583 925.435C982.172 925.492 982.758 925.557 983.347 925.61C983.648 925.639 983.952 925.676 984.253 925.704C986.187 925.868 988.126 925.994 990.064 926.101C990.436 926.121 990.804 926.129 991.172 926.146C992.529 926.211 993.89 926.276 995.251 926.309C995.793 926.325 996.334 926.317 996.873 926.325C997.593 926.338 998.309 926.346 999.021 926.35C1000.75 926.358 1002.47 926.346 1004.2 926.309C1004.79 926.293 1005.39 926.289 1005.98 926.272C1006.22 926.264 1006.46 926.264 1006.7 926.256C1008.8 926.182 1010.9 926.072 1012.99 925.929C1013.18 925.913 1013.36 925.892 1013.55 925.88C1015.4 925.745 1017.25 925.594 1019.09 925.406C1019.34 925.377 1019.59 925.341 1019.84 925.312C1020.97 925.194 1022.09 925.038 1023.22 924.899C1024.54 924.732 1025.86 924.572 1027.17 924.376C1028.3 924.209 1029.41 924.009 1030.53 923.821C1031.5 923.657 1032.48 923.522 1033.43 923.343C1034.07 923.224 1034.72 923.097 1035.35 922.975L1035.4 915.669C1033.81 915.988 1032.19 916.249 1030.58 916.519Z" fill="#7974F5"/>
<path d="M1021.74 892.076L1035.4 915.653C996.6 923.351 952.063 917.977 921.056 899.484L950.405 881.861C969.754 893.4 997.502 896.796 1021.74 892.076Z" fill="#B391FF"/>
<path d="M1583.83 536.868C1599.26 546.074 1611.73 568.367 1611.67 586.688L1610.67 951.858C1610.62 970.18 1598.08 977.563 1582.64 968.358L1065.2 659.791C1049.76 650.585 1037.3 628.292 1037.35 609.97L1038.35 244.805C1038.4 226.479 1050.94 219.096 1066.38 228.301L1583.83 536.868Z" fill="#343995"/>
<path d="M1433.88 387.137C1438.74 390.029 1442.65 397.037 1442.63 402.798L1442.32 517.578C1442.31 523.335 1438.36 525.656 1433.51 522.763L1270.87 425.774C1266.01 422.881 1262.1 415.873 1262.11 410.116L1262.43 295.332C1262.45 289.575 1266.39 287.254 1271.24 290.147L1433.88 387.137Z" fill="#2588FC"/>
<path d="M1125.98 338.002C1125.98 339.51 1125.97 341.414 1125.97 341.414C1125.96 344.482 1122.74 346.391 1120.17 344.85L1096.37 330.594C1095.18 329.879 1094.44 328.559 1094.45 327.133L1094.46 321.919C1094.47 318.851 1097.69 316.939 1100.27 318.483L1124.06 332.735C1125.25 333.45 1125.99 334.77 1125.98 336.2C1125.98 336.2 1125.98 337.009 1125.98 337.99" fill="white"/>
<path d="M1201.24 412.29C1201.18 415.31 1198 417.173 1195.45 415.653L1096.31 356.537C1095.11 355.822 1094.37 354.498 1094.38 353.068L1094.39 347.846C1094.4 344.781 1097.62 342.869 1100.19 344.405L1199.33 403.517C1200.52 404.233 1201.26 405.556 1201.25 406.986L1201.24 412.212" fill="#1AE4FF"/>
<path d="M1051.69 577.618L1091.16 556.828L1116.97 599.899L1145.76 630.151L1174.56 612.206L1236.12 591.694L1263.92 632.717L1291.72 656.302L1317.04 694.763L1351.3 620.41L1393 640.922L1414.85 622.462L1460.03 634.769L1527.05 628.615" stroke="#15C5DC" stroke-miterlimit="10"/>
<path d="M1300.78 407.44C1289.31 393.086 1284.05 373.269 1289.03 361.329C1293.16 351.404 1303.15 349.803 1313.72 356.099C1316.29 357.636 1318.89 359.638 1321.46 362.106L1325.55 352.263C1321.66 348.389 1317.68 345.275 1313.75 342.934C1298.77 333.998 1284.58 336.278 1278.73 350.358C1271.39 367.965 1279.73 397.617 1297.38 418.129L1301.47 408.282C1301.24 408.004 1301.01 407.722 1300.78 407.44Z" fill="#F0F0F0"/>
<path d="M1323.27 357.758C1322.33 360.013 1321.46 362.101 1321.46 362.101C1322.11 362.722 1322.75 363.372 1323.39 364.054C1336.98 378.519 1343.62 400.738 1338.23 413.703C1338.03 414.165 1337.82 414.61 1337.59 415.047C1337.52 415.203 1337.43 415.354 1337.34 415.509C1333.41 422.656 1325.88 424.408 1317.53 420.948C1316.23 420.412 1314.91 419.738 1313.57 418.941C1313.21 418.729 1312.85 418.508 1312.49 418.279C1311.84 417.859 1311.34 417.507 1310.85 417.164L1310.63 417C1309.56 416.216 1308.49 415.374 1307.42 414.426C1307.29 414.312 1307.15 414.181 1307.01 414.059C1306.62 413.703 1306.22 413.335 1305.83 412.955C1305.69 412.816 1305.54 412.682 1305.39 412.53C1304.87 412.032 1304.36 411.513 1303.86 410.978C1303.04 410.099 1302.25 409.2 1301.48 408.281L1297.38 418.128C1298.16 419.031 1298.94 419.93 1299.76 420.788C1300.49 421.56 1301.22 422.308 1301.96 423.023C1302.16 423.228 1302.37 423.428 1302.58 423.628C1303.14 424.163 1303.71 424.69 1304.27 425.201C1304.46 425.377 1304.65 425.548 1304.84 425.712C1306.36 427.044 1307.89 428.27 1309.41 429.369C1309.53 429.463 1309.65 429.549 1309.77 429.63C1310.46 430.137 1311.16 430.599 1311.85 431.052L1312.09 431.199C1312.56 431.506 1313.03 431.796 1313.5 432.078C1314.63 432.748 1315.75 433.361 1316.86 433.908C1317.7 434.321 1318.49 434.668 1319.28 434.995C1332.02 440.213 1343.43 436.92 1348.53 424.662C1356.18 406.279 1346.75 374.739 1327.48 354.227C1326.84 353.549 1326.2 352.891 1325.56 352.258C1325.56 352.258 1324.37 355.122 1323.27 357.758Z" fill="#FCB813"/>
<path d="M1384.13 407.562C1384.13 408.437 1384.13 409.544 1384.13 409.544C1384.12 411.321 1382.26 412.425 1380.77 411.534L1367.02 403.288C1366.33 402.876 1365.91 402.112 1365.91 401.286L1365.92 398.275C1365.92 396.497 1367.78 395.394 1369.27 396.289L1383.03 404.526C1383.71 404.943 1384.14 405.703 1384.14 406.529C1384.14 406.529 1384.14 406.998 1384.13 407.562Z" fill="white"/>
<path d="M1427.64 450.461C1427.63 452.23 1425.77 453.337 1424.28 452.451L1366.99 418.279C1366.29 417.867 1365.87 417.103 1365.87 416.277L1365.88 413.258C1365.88 411.484 1367.74 410.381 1369.22 411.268L1426.53 445.435C1427.22 445.852 1427.65 446.616 1427.65 447.441L1427.64 450.461Z" fill="white"/>
<path d="M1403.94 465.297C1403.93 465.877 1403.93 466.364 1403.93 466.364C1403.92 468.137 1402.07 469.24 1400.58 468.354L1366.9 448.267C1366.21 447.854 1365.79 447.094 1365.79 446.269L1365.79 443.245C1365.8 441.472 1367.66 440.369 1369.15 441.255L1402.83 461.342C1403.52 461.755 1403.94 462.515 1403.94 463.34C1403.94 463.34 1403.94 464.427 1403.94 465.297Z" fill="white"/>
<path d="M1418.71 459.777C1418.71 460.01 1418.71 460.157 1418.71 460.157C1418.7 461.931 1416.84 463.034 1415.35 462.147L1366.94 433.276C1366.25 432.863 1365.82 432.099 1365.83 431.273L1365.84 428.254C1365.84 426.481 1367.7 425.377 1369.18 426.264L1417.6 455.136C1418.3 455.548 1418.72 456.312 1418.72 457.138C1418.72 457.138 1418.71 458.964 1418.71 459.777Z" fill="#57AEFA"/>
<path d="M1555.87 590.75C1539.18 580.797 1525.55 588.813 1525.5 608.622C1525.45 628.435 1538.98 652.555 1555.67 662.508C1572.36 672.462 1585.91 664.49 1585.96 644.677C1586.02 624.868 1572.56 600.704 1555.87 590.75Z" fill="#FF4271"/>
<path d="M1555.79 610.408C1548.25 605.91 1542.09 609.538 1542.06 618.494C1542.04 627.451 1548.16 638.348 1555.7 642.851C1563.25 647.354 1569.38 643.746 1569.4 634.789C1569.42 625.833 1563.34 614.911 1555.79 610.408Z" fill="#202973"/>
<path d="M1128.07 405.523C1128.07 407.08 1128.07 409.049 1128.07 409.049C1128.07 412.22 1124.75 414.202 1122.09 412.621L1097.5 397.989C1096.27 397.253 1095.51 395.901 1095.51 394.426V389.052C1095.51 385.886 1098.82 383.904 1101.48 385.485L1126.07 400.113C1127.31 400.849 1128.07 402.205 1128.07 403.676C1128.07 403.676 1128.07 404.51 1128.07 405.523Z" fill="#1CE4FF"/>
<path d="M1205.93 481.887C1205.89 485.016 1202.6 486.97 1199.96 485.401L1097.51 424.748C1096.27 424.012 1095.52 422.652 1095.52 421.177L1095.51 415.791C1095.51 412.625 1098.82 410.643 1101.48 412.216L1203.92 472.873C1205.16 473.608 1205.93 474.969 1205.93 476.444V481.829C1205.93 481.85 1205.93 481.866 1205.93 481.887Z" fill="#1CE4FF"/>
<path d="M1163.7 508.446C1163.7 509.476 1163.7 510.338 1163.7 510.338C1163.7 513.5 1160.39 515.482 1157.74 513.909L1097.53 478.263C1096.29 477.531 1095.53 476.166 1095.53 474.691V469.306C1095.52 466.139 1098.84 464.158 1101.49 465.731L1161.7 501.381C1162.94 502.117 1163.7 503.477 1163.7 504.952C1163.7 504.952 1163.7 506.893 1163.7 508.446Z" fill="#1CE4FF"/>
<path d="M1190.05 498.532C1190.05 498.929 1190.05 499.182 1190.05 499.182C1190.05 502.345 1186.74 504.331 1184.08 502.753L1097.52 451.503C1096.28 450.771 1095.52 449.411 1095.52 447.936L1095.52 442.55C1095.52 439.384 1098.83 437.402 1101.48 438.975L1188.04 490.226C1189.28 490.961 1190.04 492.322 1190.04 493.797C1190.04 493.797 1190.05 497.062 1190.05 498.508" fill="#1CE4FF"/>
<path d="M1481.53 831.606L1495.49 823.222L1495.23 921.163L1481.26 929.548L1481.53 831.606Z" fill="#00A935"/>
<path d="M1510.04 828.991V828.873C1510.04 828.836 1510.04 828.795 1510.03 828.754C1510.03 828.717 1510.03 828.681 1510.02 828.64C1510.02 828.603 1510.02 828.558 1510.01 828.517C1510.01 828.476 1510 828.435 1509.99 828.395C1509.99 828.354 1509.98 828.313 1509.97 828.272C1509.97 828.231 1509.96 828.182 1509.95 828.141C1509.95 828.133 1509.95 828.121 1509.95 828.113C1509.95 828.113 1509.94 828.109 1509.94 828.104C1509.93 828.076 1509.93 828.043 1509.92 828.015C1509.91 827.97 1509.9 827.925 1509.89 827.884L1509.85 827.753C1509.84 827.708 1509.82 827.663 1509.81 827.622C1509.8 827.581 1509.79 827.537 1509.77 827.496C1509.76 827.455 1509.74 827.418 1509.72 827.373C1509.7 827.332 1509.69 827.291 1509.67 827.251C1509.65 827.206 1509.63 827.161 1509.62 827.116C1509.6 827.075 1509.59 827.03 1509.57 826.989C1509.55 826.944 1509.52 826.903 1509.5 826.862V826.854L1466.02 737.448C1466 737.412 1465.98 737.375 1465.96 737.338C1465.93 737.265 1465.89 737.191 1465.85 737.122C1465.78 736.999 1465.71 736.885 1465.64 736.77C1465.6 736.705 1465.54 736.635 1465.49 736.57C1465.46 736.521 1465.43 736.476 1465.4 736.431C1465.36 736.386 1465.33 736.349 1465.3 736.308C1465.27 736.272 1465.24 736.231 1465.2 736.198C1465.19 736.178 1465.17 736.157 1465.15 736.137L1465.15 736.129C1465.13 736.116 1465.13 736.1 1465.11 736.088C1465.08 736.051 1465.05 736.014 1465.01 735.977C1464.97 735.941 1464.94 735.904 1464.91 735.871C1464.87 735.834 1464.83 735.798 1464.79 735.765C1464.76 735.732 1464.72 735.696 1464.69 735.667C1464.65 735.634 1464.61 735.602 1464.58 735.573C1464.54 735.54 1464.5 735.52 1464.46 735.491C1464.43 735.463 1464.4 735.434 1464.36 735.409C1464.32 735.381 1464.29 735.356 1464.25 735.336C1464.21 735.316 1464.18 735.291 1464.15 735.271C1464.14 735.266 1464.14 735.266 1464.13 735.262C1464.1 735.246 1464.07 735.226 1464.04 735.213C1464.01 735.193 1463.98 735.177 1463.95 735.16C1463.92 735.14 1463.88 735.123 1463.85 735.107C1463.81 735.095 1463.78 735.079 1463.75 735.066C1463.71 735.054 1463.68 735.038 1463.64 735.025C1463.61 735.013 1463.58 735.009 1463.55 734.997C1463.51 734.989 1463.47 734.972 1463.45 734.964C1463.41 734.956 1463.38 734.952 1463.34 734.944C1463.31 734.936 1463.28 734.931 1463.24 734.927C1463.23 734.927 1463.21 734.919 1463.2 734.919H1463.19C1463.17 734.915 1463.15 734.911 1463.13 734.911C1463.09 734.907 1463.05 734.911 1463.01 734.911C1462.97 734.911 1462.92 734.911 1462.89 734.911C1462.83 734.915 1462.79 734.923 1462.75 734.931C1462.69 734.944 1462.63 734.96 1462.58 734.98C1462.51 735.009 1462.44 735.038 1462.37 735.079L1448.4 743.459C1448.64 743.316 1448.92 743.271 1449.22 743.3C1449.52 743.336 1449.84 743.451 1450.16 743.639C1450.51 743.851 1450.86 744.145 1451.18 744.517L1451.18 744.525C1451.51 744.893 1451.8 745.33 1452.05 745.829L1495.53 835.235C1495.74 835.672 1495.89 836.093 1495.97 836.489V836.497C1496.06 836.893 1496.09 837.257 1496.06 837.588V837.592C1496.04 837.919 1495.96 838.205 1495.84 838.442C1495.84 838.446 1495.84 838.454 1495.84 838.458C1495.72 838.695 1495.55 838.883 1495.35 839.006L1509.31 830.617C1509.48 830.519 1509.63 830.376 1509.74 830.197C1509.76 830.16 1509.79 830.119 1509.8 830.078C1509.81 830.074 1509.81 830.066 1509.81 830.058L1509.84 830.017C1509.86 829.968 1509.88 829.915 1509.9 829.857L1509.95 829.727C1509.96 829.682 1509.97 829.637 1509.97 829.592C1509.99 829.551 1510 829.51 1510.01 829.469C1510.01 829.428 1510.02 829.392 1510.02 829.347C1510.03 829.31 1510.02 829.265 1510.03 829.228C1510.03 829.228 1510.03 829.216 1510.03 829.208V829.204C1510.03 829.171 1510.04 829.142 1510.04 829.11C1510.04 829.069 1510.04 829.032 1510.04 828.991Z" fill="#60DF41"/>
<path d="M1450.16 743.639C1450.86 744.059 1451.56 744.832 1452.05 745.829L1495.53 835.239C1496.82 837.899 1495.67 840.04 1493.62 838.818L1481.53 831.61L1481.26 929.552L1417.74 891.67L1418.01 793.729L1406.31 786.754C1404.24 785.516 1403.1 782.014 1404.42 780.907L1448.26 743.569C1448.75 743.161 1449.45 743.218 1450.16 743.639Z" fill="#00CC41"/>
<path d="M1219.49 1579.98C1219.49 1579.98 1209.64 1586.98 1218.88 1603.51C1228.11 1620.05 1236.12 1609.88 1257.05 1626.41C1277.99 1642.95 1285.38 1646.13 1296.46 1644.86C1307.55 1643.59 1314.33 1637.86 1316.17 1631.5C1318.02 1625.14 1312.47 1614.33 1312.47 1614.33L1219.49 1579.98Z" fill="#93A2C0"/>
<path d="M1308.17 1580.62C1308.17 1580.62 1312.47 1602.24 1314.93 1618.78C1315.55 1626.41 1305.7 1636.8 1291.54 1636.17C1277.38 1635.53 1269.37 1631.08 1264.44 1624.72C1259.52 1618.35 1228.72 1606.06 1223.18 1600.97C1217.64 1595.88 1216.41 1580.62 1218.87 1576.8C1221.34 1572.98 1230.57 1566.63 1240.42 1571.08C1250.27 1575.53 1258.28 1583.8 1277.99 1585.07C1297.69 1586.34 1308.17 1580.62 1308.17 1580.62Z" fill="#382746"/>
<path d="M1231.6 1404.65C1236.53 1445.35 1256.23 1552.21 1259.52 1589.52C1259.52 1589.52 1267.73 1603.09 1292.35 1599.7L1304.05 1594.67C1308.76 1592.64 1311.59 1587.64 1310.96 1582.41C1308.48 1561.84 1302.91 1510.02 1305.5 1479.28C1308.78 1440.27 1298.93 1416.52 1298.93 1416.52C1299.75 1403.8 1301.39 1359.7 1276.76 1347.83C1276.76 1347.83 1216.41 1336.38 1231.6 1404.65Z" fill="#13347B"/>
<path d="M1127.19 1648.35C1127.19 1648.35 1117.89 1656.17 1128.4 1671.68C1138.91 1687.2 1146.12 1676.39 1168.32 1690.83C1190.52 1705.27 1198.15 1707.74 1209.13 1705.46C1220.11 1703.18 1226.43 1696.9 1227.78 1690.44C1229.14 1683.98 1222.76 1673.79 1222.76 1673.79L1127.19 1648.35Z" fill="#93A2C0"/>
<path d="M1215.81 1640.75C1215.81 1640.75 1221.79 1661.77 1225.53 1677.91C1226.74 1685.4 1217.7 1696.58 1203.5 1697.26C1189.29 1697.92 1180.94 1694.26 1175.53 1688.42C1170.11 1682.58 1138.38 1673.23 1132.45 1668.7C1126.52 1664.18 1124.11 1649.18 1126.27 1645.18C1128.44 1641.18 1137.18 1634.03 1147.37 1637.54C1157.56 1641.04 1166.2 1648.48 1185.99 1647.94C1205.79 1647.38 1215.81 1640.75 1215.81 1640.75Z" fill="#382746"/>
<path d="M1272 1370.36L1266.47 1384.42C1266.47 1384.42 1165.85 1398.75 1141.12 1431.5C1141.12 1431.5 1123.31 1436.52 1131.39 1476.41C1139.47 1516.3 1167.46 1620.38 1173.63 1657.06C1173.63 1657.06 1182.9 1669.75 1207.27 1664.13L1218.58 1658.06C1223.14 1655.62 1225.57 1650.41 1224.54 1645.28C1220.46 1625.12 1210.88 1574.28 1211.09 1543.58C1211.35 1504.61 1199.66 1481.98 1199.66 1481.98C1199.66 1481.98 1244.66 1486.31 1293.87 1502.1C1343.08 1517.89 1382.3 1490.58 1399.58 1478.83C1416.86 1467.08 1422.91 1459.76 1422.91 1459.76C1422.91 1459.76 1445.9 1457.64 1465.81 1437.19C1485.72 1416.73 1485.19 1367.68 1459.96 1341.23C1434.74 1314.77 1272 1370.36 1272 1370.36Z" fill="#17388F"/>
<path d="M1317.81 1108.68C1317.81 1108.68 1334.13 1102.44 1333.06 1079.92C1328.1 1057.75 1322.11 1056.26 1322.11 1056.26C1322.11 1056.26 1344.94 1034.46 1372.48 1041.33C1372.48 1041.33 1389.49 1076.98 1408.73 1092.24C1408.73 1092.24 1393.35 1134.12 1317.81 1108.68Z" fill="#CE7B55"/>
<path d="M1353.53 1121.4C1353.53 1121.4 1413.87 1069.24 1426.19 1067.97C1440.97 1066.7 1459.44 1071.79 1464.37 1093.41C1469.3 1115.04 1458.21 1131.58 1447.12 1137.94C1436.04 1144.3 1338.75 1192.64 1321.5 1192.64C1304.26 1192.64 1293.18 1177.37 1304.26 1158.29C1315.35 1139.21 1353.53 1121.4 1353.53 1121.4Z" fill="#E19F29"/>
<path d="M1372 1086.63C1372 1086.63 1307.96 1108.68 1289.89 1139.21C1271.83 1169.74 1275.11 1203.67 1288.25 1251.16C1301.39 1298.64 1275.11 1341.05 1281.68 1366.49C1288.25 1391.93 1334.23 1415.67 1401.56 1403.8C1468.88 1391.93 1473.81 1364.79 1478.74 1349.53C1483.67 1334.26 1465.6 1261.33 1482.02 1201.97C1498.45 1142.6 1465.6 1101.9 1452.47 1091.72C1439.33 1081.54 1413.05 1067.98 1372 1086.63Z" fill="#FFBD3C"/>
<path d="M1452.47 1091.72C1439.33 1081.54 1413.05 1067.97 1372 1086.63C1372 1086.63 1307.96 1108.68 1289.89 1139.21C1285.52 1146.61 1282.42 1154.21 1280.38 1162.15C1306.31 1127.34 1343.12 1112.05 1367.07 1171.44C1389.43 1226.86 1332.55 1389.76 1282.85 1338.54C1280.76 1349.23 1279.66 1358.66 1281.68 1366.48C1288.25 1391.93 1334.23 1415.67 1401.56 1403.8C1468.88 1391.93 1473.81 1364.79 1478.74 1349.52C1483.67 1334.26 1465.6 1261.33 1482.02 1201.96C1498.45 1142.6 1465.6 1101.89 1452.47 1091.72Z" fill="#E19F29"/>
<path d="M1310.83 1115.47C1310.83 1115.47 1328.07 1126.92 1371.18 1120.56C1414.28 1114.19 1416.75 1082.39 1413.05 1079.85C1409.36 1077.31 1401.97 1067.13 1401.97 1067.13C1401.97 1067.13 1356.4 1088.76 1340.39 1095.12C1324.38 1101.47 1315.76 1105.29 1315.76 1105.29L1310.83 1115.47Z" fill="white"/>
<path d="M1497.12 1674.33C1494.89 1700 1471.5 1717.43 1450.4 1726.82C1427.42 1737.05 1402.16 1741.17 1377.22 1740.84C1351.78 1740.5 1325.8 1735.48 1302.86 1723.81C1282.83 1713.64 1261.58 1695.18 1261.65 1670.08C1261.6 1688.36 1262.84 1703.47 1275.6 1717.74C1292.01 1736.11 1316.73 1746.01 1339.99 1750.97C1385.36 1760.64 1447.13 1755.97 1481.6 1719.89C1495.47 1705.38 1497.36 1690.08 1497.41 1670.77C1497.37 1671.96 1497.27 1673.15 1497.12 1674.33Z" fill="#ACCDFB"/>
<path d="M1462.59 1620.53C1508.77 1648.07 1509.07 1692.73 1463.18 1720.27C1417.3 1747.81 1342.6 1747.81 1296.42 1720.27C1250.23 1692.73 1250.04 1648.07 1295.93 1620.53C1341.81 1592.99 1416.4 1592.99 1462.59 1620.53Z" fill="#E1ECFF"/>
<path d="M1400.53 1564.86L1400.24 1671.29L1382.21 1682.11L1382.5 1575.68L1400.53 1564.86Z" fill="#C6D7F1"/>
<path d="M1382.51 1575.68L1382.22 1682.11L1364.07 1671.29L1364.36 1564.86L1382.51 1575.68Z" fill="#7AADFF"/>
<path d="M1400.53 1564.86L1382.51 1575.68L1364.36 1564.86L1382.39 1554.04L1400.53 1564.86Z" fill="#4DA4DC"/>
<path d="M1610.69 1201.47C1610.17 1186.71 1596 1176.69 1582.51 1181.58C1523.6 1202.91 1388.59 1253.46 1379.92 1271.38C1371.65 1288.45 1344.94 1383.83 1331.79 1431.62C1327.99 1445.42 1312.59 1451.75 1300.61 1444.45L1219.01 1394.75C1203.49 1385.29 1184.35 1398.87 1187.31 1417.23L1200.41 1498.42C1201.45 1504.9 1205.26 1510.55 1210.77 1513.82L1298.08 1565.63C1346.88 1594.58 1406.47 1596.36 1456.8 1570.36L1524.11 1535.6C1582.98 1505.21 1619.21 1442.09 1616.81 1374.16L1610.69 1201.47Z" fill="#3178CC"/>
<path d="M1379.92 1271.38C1371.65 1288.45 1344.94 1383.83 1331.79 1431.62C1327.99 1445.43 1312.58 1451.75 1300.61 1444.45L1219.01 1394.75C1203.49 1385.29 1184.34 1398.87 1187.3 1417.23L1200.41 1498.42C1200.71 1500.31 1201.31 1502.1 1202.07 1503.82C1203.11 1505.51 1204.15 1507.19 1205.22 1508.87C1206.79 1510.8 1208.6 1512.54 1210.77 1513.83L1298.08 1565.63C1316.58 1576.6 1336.63 1583.66 1357.13 1586.79C1427.96 1530.02 1419.03 1293.1 1393.35 1273.2C1389.55 1270.26 1386.19 1268.42 1383.24 1267.43C1381.63 1268.87 1380.49 1270.19 1379.92 1271.38Z" fill="#39ADEE"/>
<path d="M1006.5 961.319L1132.15 1093.8L1254.19 1061.03L1128.54 928.545L1006.5 961.319Z" fill="white"/>
<path d="M1143.28 971.399L1131.25 976.098C1122.2 968.772 1106.54 966.181 1095.91 970.328C1095.7 970.414 1095.48 970.504 1095.27 970.598L1085.29 962.111C1085.5 962.021 1085.72 961.936 1085.94 961.85C1103.2 955.104 1128.72 959.39 1143.28 971.399Z" fill="#E1ECFF"/>
<path d="M1144.81 972.719C1156.48 983.387 1155.8 996.176 1143.94 1003.63L1133.66 994.889C1139.09 990.272 1138.96 983.359 1132.76 977.422L1144.81 972.719Z" fill="#E1ECFF"/>
<path d="M1142.33 1004.58C1141.11 1005.24 1139.79 1005.86 1138.37 1006.42C1121.35 1013.06 1096.32 1009 1081.66 997.382L1093.7 992.679C1102.84 999.613 1118.02 1001.99 1128.39 997.937C1129.83 997.374 1131.1 996.712 1132.2 995.976L1142.33 1004.58Z" fill="#3DABFF"/>
<path d="M1090.58 967.709C1082.14 972.253 1081.4 980.715 1089.17 987.661L1077.14 992.364C1063.86 980.723 1065.51 966.365 1080.55 959.186L1090.58 967.709Z" fill="#3DABFF"/>
<path d="M1220.36 1190.5C1220.36 1190.5 1284.48 1144 1296.89 1143.8C1311.76 1143.81 1329.86 1150.44 1333.23 1172.3C1336.59 1194.15 1324.31 1209.59 1312.76 1214.94C1301.21 1220.28 1200.43 1259.82 1183.18 1258.34C1165.94 1256.86 1155.96 1240.77 1168.43 1222.82C1180.89 1204.86 1220.36 1190.5 1220.36 1190.5Z" fill="#FFBD3C"/>
<path d="M1142.37 1101.28C1142.37 1101.28 1139.75 1094.7 1139.45 1090.22C1139.16 1085.75 1142.04 1080.28 1140.31 1069.97C1138.58 1059.66 1134.91 1050.45 1133.57 1043.34C1129.1 1036.61 1123.95 1047.6 1126.96 1057.39C1129.97 1067.18 1128.32 1072.75 1124.57 1073.07C1120.83 1073.38 1106.1 1062.58 1102.16 1057.16C1098.21 1051.74 1075.34 1024.99 1072.65 1027.93C1069.95 1030.87 1069.72 1034.04 1077.66 1044.25C1085.6 1054.47 1088.37 1059.15 1088.8 1061.73C1089.22 1064.31 1088.43 1066.78 1090.96 1074.62C1093.49 1082.46 1090.65 1087.3 1095.69 1094.72C1100.74 1102.15 1111.13 1104.31 1115.74 1109.15L1120.35 1114L1142.37 1101.28Z" fill="#FFAA83"/>
<path d="M1183.62 1258.89C1183.62 1258.89 1157.31 1261.72 1145.47 1231.01C1133.62 1200.31 1115.52 1119.02 1112.78 1111.15C1112.78 1111.15 1122.36 1093.31 1142.9 1095.92C1142.9 1095.92 1162.57 1144.27 1174.21 1166.48C1185.85 1188.68 1228.3 1254.25 1183.62 1258.89Z" fill="#FFBD3C"/>
<path d="M1281.18 988.328C1281.18 988.328 1285.56 1033.79 1314.14 1058.84C1342.72 1083.88 1362.81 1061.74 1376.13 1051.29C1389.45 1040.83 1393.33 1027.16 1391.73 990.143C1390.14 953.129 1383.88 918.357 1356.21 912.436C1328.54 906.516 1299.99 909.788 1289.02 940.364C1278.05 970.943 1281.18 988.328 1281.18 988.328Z" fill="#FFAA83"/>
<path d="M1288.62 931.373C1288.62 931.373 1270.76 951.77 1276.22 975.112C1281.69 998.454 1275.04 1003.69 1279.71 1015.6C1284.39 1027.52 1304.6 1027.24 1308.95 1044.37C1313.31 1061.5 1340.08 1062.46 1354.4 1064.67C1368.74 1066.89 1387.83 1046.23 1392.37 1036.3C1396.91 1026.35 1391.67 1004.25 1395.43 982.879C1399.18 961.511 1391.05 937.425 1381.81 921.29C1372.57 905.156 1359.69 903.941 1359.69 903.941C1359.69 903.941 1351.13 891.533 1336.02 892.052C1320.91 892.575 1276.15 904.313 1288.62 931.373Z" fill="#4D2C62"/>
<path d="M810.565 725.66C810.565 725.66 817.962 719.478 822.84 720.421C827.718 721.365 844.321 722.064 849.44 721.839C854.555 721.619 863.674 711.06 865.32 709.352C866.969 707.64 867.681 704.139 869.612 701.638C871.538 699.137 872.666 699.383 872.211 695.264C871.756 691.145 875.332 686.929 876.938 684.845C878.544 682.757 885.297 677.412 884.202 674.127C883.102 670.842 879.688 673.142 877.591 674.148C875.502 675.153 868.029 683.999 864.651 686.671C861.277 689.343 852.945 693.74 848.598 694.251C844.246 694.761 840.136 694.108 840.136 694.108C840.136 694.108 839.048 694.238 843.233 692.228C847.415 690.218 850.077 691.043 853.622 689.866C857.162 688.69 858.729 686.23 858.159 684.399C857.59 682.573 852.878 683.124 851.066 683.341C849.25 683.553 838.419 685.208 833.984 684.971C829.549 684.734 823.129 693.078 821.843 694.745C820.557 696.416 813.195 699.558 809.247 700.4C805.299 701.246 810.565 725.66 810.565 725.66Z" fill="#FF9F75"/>
<path d="M654.101 740.018C654.101 740.018 664.541 764.988 696.157 760.256C727.777 755.529 805.014 731.135 812.978 729.656C812.978 729.656 823.315 712.164 811.114 695.093C811.114 695.093 760.838 701.622 736.477 702.296C712.116 702.966 636.239 697.712 654.101 740.018Z" fill="#E0E8F1"/>
<path d="M483.475 813.094C483.475 813.094 470.127 733 461.535 723.803C451.063 712.954 433.787 704.488 416.484 717.686C399.184 730.884 397.277 750.901 401.744 763.159C406.214 775.417 450.122 877.289 463.267 888.812C476.417 900.334 494.433 896.101 497.93 874.147C501.431 852.189 483.475 813.094 483.475 813.094Z" fill="#E0E8F1"/>
<path d="M618.058 855.752C618.058 855.752 628.525 856.385 632.22 856.385C635.915 856.385 664.244 853.844 669.169 853.844C674.094 853.844 674.094 859.568 674.094 859.568C674.094 859.568 679.02 867.838 679.02 871.017C679.02 874.196 679.02 878.65 680.254 881.829C681.484 885.008 679.637 887.553 678.406 890.099C677.172 892.64 674.094 893.911 671.017 895.823C667.935 897.727 664.244 897.727 661.779 896.457C659.315 895.186 659.315 894.548 662.397 892.64C665.474 890.732 667.935 888.187 667.935 888.187C667.935 888.187 664.244 892.007 658.698 892.64C653.159 893.278 644.535 893.278 639.61 890.732C634.685 888.187 626.061 883.737 626.061 883.737L616.21 882.466L618.058 855.752Z" fill="#FF9F75"/>
<path d="M461.19 878.016C461.19 878.016 468.825 904.04 500.758 903.043C532.691 902.042 612.108 886.846 620.178 886.311C620.178 886.311 632.37 870.138 622.12 851.747C622.12 851.747 571.452 852.36 547.17 850.174C522.892 847.992 448.084 833.887 461.19 878.016Z" fill="#E0E8F1"/>
</g>
</g>
<defs>
<clipPath id="clip0_31_1058">
<rect width="1978" height="2043" fill="white"/>
</clipPath>
</defs>
</svg>
