<svg width="500" height="500" viewBox="0 0 500 500" fill="none" xmlns="http://www.w3.org/2000/svg">
<g clip-path="url(#clip0_35_1651)">
<mask id="mask0_35_1651" style="mask-type:luminance" maskUnits="userSpaceOnUse" x="0" y="0" width="500" height="500">
<path d="M500 0H0V500H500V0Z" fill="white"/>
</mask>
<g mask="url(#mask0_35_1651)">
<path d="M0 496.882H500V0H0V496.882Z" fill="white"/>
<path d="M384.475 406.607C397.884 386.288 401.7 359.917 394.599 336.629C390.11 321.907 381.495 308.23 380.394 292.878C378.19 262.183 405.96 237.367 411.72 207.137C414.253 193.852 411.489 178.373 400.636 170.303C389.917 162.332 374.616 163.959 362.479 169.541C350.343 175.124 340.074 184.06 328.422 190.592C316.769 197.125 302.422 201.164 290.117 195.964C277.652 190.699 270.583 177.423 266.622 164.485C262.663 151.545 260.718 137.766 253.959 126.043C242.819 106.724 219.07 96.1908 196.937 98.9164C174.803 101.642 155.029 116.573 144.422 136.19C133.814 155.806 131.96 179.532 137.241 201.198C139.92 212.187 144.332 222.71 146.737 233.762C149.143 244.814 149.364 256.91 143.992 266.864C132.76 287.681 103.128 290.584 87.6102 308.435C74.8019 323.168 74.4012 345.654 81.6692 363.772C88.9382 381.891 102.596 396.593 116.216 410.58C179.739 412.715 244.399 412.856 307.923 414.992C332.612 415.821 359.816 408.059 384.475 406.607Z" fill="#E6E6E6"/>
<g opacity="0.5">
<path d="M113.099 142.921C100.38 164.142 99.8065 192.111 111.645 213.836C115.387 220.7 120.439 227.096 127.261 230.914C134.084 234.731 142.884 235.583 149.675 231.708C159.973 225.834 162.251 211.979 161.431 200.152C160.612 188.324 157.932 175.925 162.486 164.978C165.456 157.843 171.157 152.28 176.215 146.439C181.274 140.595 185.993 133.775 186.254 126.052C186.932 106.03 165.675 107.525 152.865 111.684C136.51 116.993 121.967 128.127 113.099 142.921Z" fill="#E6E6E6"/>
</g>
<g opacity="0.5">
<path d="M362.031 176.025C361.864 193.993 378.944 209.63 375.971 227.351C374.382 236.832 367.158 246.443 371.356 255.092C375.071 262.743 385.709 264.07 393.844 261.583C412.886 255.757 424.46 236.293 429.994 217.166C435.201 199.173 436.494 179.077 428.155 162.303C421.437 148.791 405.935 136.86 390.194 137.964C375.776 138.975 362.159 162.491 362.031 176.025Z" fill="#E6E6E6"/>
</g>
<path d="M381.304 410.713L379.939 409.464C383.697 405.357 389.696 395.941 387.666 379.01C386.762 371.473 384.521 364.03 382.354 356.83C381.386 353.614 380.386 350.287 379.512 346.984C370.191 311.744 374.268 272.872 390.697 240.333C392.155 237.445 393.734 234.548 395.262 231.746C399.79 223.439 404.473 214.851 406.485 205.572C410.016 189.29 403.037 177.087 395.057 172.639C387.403 168.368 376.597 169.022 365.412 174.429C361.32 176.407 357.344 178.826 353.499 181.165C348.415 184.257 343.161 187.455 337.519 189.719C315.32 198.625 287.564 191.056 272.96 172.115C265.94 163.012 261.978 152.012 258.145 141.373C256.66 137.251 255.124 132.987 253.436 128.909C248.182 116.226 238.57 100.306 222.601 96.4988C208.568 93.1512 194.356 100.507 184.907 107.268C166.828 120.203 154.084 137.723 149.022 156.596C145.608 169.324 145.47 183.176 145.337 196.573C145.139 216.523 144.934 237.151 133.668 253.765C128.544 261.323 121.494 267.355 114.677 273.187C108.293 278.648 101.691 284.296 96.7698 291.142C85.6183 306.652 82.8845 328.614 89.2703 351.393C95.0084 371.86 106.705 390.019 118.016 407.581L116.461 408.583C105.076 390.907 93.3033 372.628 87.4894 351.892C80.952 328.569 83.7873 306.033 95.2686 290.063C100.32 283.036 107.007 277.315 113.475 271.782C120.199 266.03 127.152 260.08 132.138 252.728C143.091 236.577 143.283 217.137 143.488 196.555C143.623 183.043 143.761 169.071 147.236 156.117C152.409 136.831 165.405 118.949 183.83 105.765C193.593 98.7807 208.318 91.19 223.03 94.6984C239.758 98.6875 249.727 115.119 255.144 128.201C256.85 132.32 258.393 136.603 259.885 140.747C263.669 151.251 267.581 162.113 274.423 170.985C288.542 189.296 315.371 196.612 336.831 188.002C342.331 185.796 347.519 182.639 352.537 179.587C356.42 177.224 360.436 174.781 364.607 172.764C376.339 167.092 387.768 166.455 395.959 171.023C404.514 175.794 412.023 188.763 408.293 205.964C406.223 215.502 401.476 224.21 396.886 232.632C395.365 235.421 393.793 238.304 392.348 241.166C376.119 273.307 372.093 311.704 381.3 346.512C382.165 349.785 383.161 353.095 384.125 356.296C386.315 363.571 388.579 371.095 389.502 378.791C391.62 396.454 385.276 406.374 381.304 410.713Z" fill="#0C88C2"/>
<path d="M110.42 290.526C112.414 284.417 111.976 278.125 109.686 272.588C104.185 274.147 99.3369 278.095 97.0744 284.332C96.1349 286.921 95.741 289.67 95.8398 292.424C93.6179 287.295 91.6068 282.066 89.812 276.747C94.6087 274.939 98.6436 271.136 101.169 265.968C103.988 260.164 104.421 253.82 102.921 247.951C97.2553 248.718 91.9038 251.969 88.7988 257.876C87.5099 260.327 86.739 263.015 86.4577 265.775C85.4747 262.2 84.5882 258.589 83.8015 254.947C86.0001 250.07 86.8968 244.388 86.1021 238.418C85.1544 231.365 82.0282 225.186 77.5689 220.73C73.4764 225.493 71.2546 232.672 72.2774 240.268C73.1308 246.684 76.1291 252.146 80.1617 255.734C80.4712 257.165 80.7945 258.589 81.1337 260.01C79.5438 257.673 77.6434 255.535 75.4227 253.712C70.0984 249.345 63.9684 247.648 58.3839 249.003C59.2702 256.524 62.9457 263.67 68.5915 267.93C73.6407 271.759 79.2364 272.623 84.1767 271.323C85.8229 276.81 87.6945 282.213 89.783 287.517C87.8909 285.451 85.717 283.625 83.2686 282.155C77.4023 278.634 71.1036 277.854 65.7633 279.977C67.6757 287.207 72.29 293.694 78.4596 297.078C83.9795 300.122 89.6336 300.181 94.3427 298.201C96.7224 303.366 99.3135 308.425 102.107 313.363C99.9511 311.592 97.5507 310.096 94.9275 308.995C88.6416 306.355 82.3028 306.478 77.3107 309.323C80.1911 316.168 85.6455 321.915 92.2143 324.39C98.0936 326.621 103.698 325.889 108.086 323.273C111.151 328.045 114.414 332.688 117.865 337.191C115.485 335.736 112.9 334.59 110.152 333.865C103.564 332.129 97.31 333.139 92.7607 336.649C96.5537 343.013 102.749 347.944 109.6 349.485C115.732 350.88 121.183 349.381 125.166 346.181C128.869 350.488 132.755 354.645 136.816 358.641C134.249 357.523 131.526 356.741 128.698 356.401C121.923 355.586 115.867 357.452 111.851 361.561C116.5 367.347 123.339 371.389 130.358 371.981C136.642 372.524 141.844 370.29 145.342 366.567C149.635 370.337 154.098 373.937 158.721 377.354C156.003 376.594 153.181 376.189 150.32 376.237C143.465 376.351 137.718 379.034 134.316 383.665C139.763 388.776 147.154 391.862 154.233 391.493C160.572 391.178 165.434 388.249 168.374 384.071C176.215 389.199 184.462 393.825 193.079 397.894C194.215 398.43 195.489 398.096 195.916 397.161C196.342 396.226 195.781 395.051 194.669 394.526C188.319 391.528 182.174 388.221 176.247 384.63C178.746 380.155 179.347 374.626 177.917 369.027C176.298 362.749 172.534 357.608 167.641 354.116C163.806 358.354 161.788 364.273 163.21 370.785C163.802 373.488 164.945 376.043 166.518 378.342C161.853 375.134 157.342 371.741 152.994 368.176C156.1 364.1 157.5 358.731 156.908 353.016C156.229 346.608 153.268 341.03 148.943 336.92C144.553 340.584 141.72 346.151 142.183 352.767C142.376 355.513 143.134 358.188 144.348 360.666C140.223 356.874 136.267 352.918 132.487 348.809C136.133 345.208 138.282 340.099 138.51 334.378C138.75 327.959 136.61 322.046 132.909 317.39C128.053 320.407 124.471 325.523 123.997 332.122C123.801 334.862 124.173 337.608 125.021 340.221C121.484 335.913 118.129 331.462 114.965 326.882C119.076 323.822 121.917 319.067 122.94 313.438C124.073 307.123 122.776 300.971 119.752 295.84C114.524 298.153 110.268 302.725 108.884 309.196C108.31 311.882 108.297 314.652 108.773 317.356C105.871 312.603 103.163 307.728 100.661 302.743C105.158 300.285 108.63 295.968 110.42 290.526Z" fill="#0C88C2"/>
<path d="M409.545 321.432C408.373 315.92 409.34 310.475 411.85 305.859C416.501 307.729 420.362 311.62 421.757 317.269C422.335 319.613 422.424 322.047 422.082 324.438C424.495 320.173 426.734 315.8 428.791 311.329C424.777 309.307 421.612 305.618 419.89 300.877C417.97 295.555 418.18 289.983 420.033 285.006C424.901 286.2 429.266 289.532 431.425 294.969C432.322 297.225 432.745 299.641 432.734 302.073C433.922 299.048 435.03 295.982 436.055 292.879C434.59 288.424 434.335 283.386 435.581 278.254C437.061 272.192 440.36 267.094 444.663 263.623C447.789 268.156 449.06 274.621 447.463 281.149C446.126 286.664 443.003 291.148 439.156 293.903C438.753 295.121 438.339 296.334 437.911 297.541C439.513 295.651 441.369 293.962 443.475 292.58C448.522 289.265 454.024 288.353 458.767 290.055C457.297 296.529 453.43 302.419 448.112 305.611C443.355 308.48 438.395 308.715 434.208 307.122C432.264 311.755 430.131 316.291 427.818 320.722C429.66 319.096 431.724 317.705 433.996 316.651C439.437 314.126 445.001 314.028 449.461 316.376C447.123 322.503 442.498 327.73 436.804 330.109C431.71 332.25 426.775 331.778 422.851 329.615C420.297 333.898 417.57 338.068 414.676 342.115C416.72 340.77 418.951 339.69 421.341 338.972C427.066 337.253 432.582 337.948 436.672 340.892C433.524 346.593 428.236 351.098 422.278 352.647C416.945 354.046 412.127 352.889 408.544 350.201C405.428 354.077 402.153 357.823 398.727 361.429C400.937 360.381 403.296 359.622 405.76 359.245C411.663 358.342 417.024 359.802 420.665 363.285C416.767 368.481 410.909 372.206 404.792 372.915C399.316 373.564 394.703 371.75 391.527 368.591C387.898 372.002 384.124 375.266 380.213 378.374C382.555 377.637 385.003 377.209 387.499 377.173C393.482 377.091 398.588 379.28 401.71 383.235C397.121 387.848 390.781 390.741 384.607 390.604C379.077 390.495 374.748 388.065 372.044 384.494C367.951 387.383 363.727 390.108 359.378 392.659C361.819 392.248 364.318 392.157 366.807 392.463C372.773 393.199 377.535 396.071 380.072 400.425C374.849 404.376 368.118 406.382 361.981 405.403C356.481 404.54 352.515 401.535 350.339 397.62C343.027 401.364 335.408 404.633 327.517 407.381C326.476 407.743 325.396 407.334 325.11 406.479C324.825 405.624 325.424 404.652 326.442 404.297C332.257 402.271 337.922 399.959 343.422 397.376C341.659 393.243 341.647 388.367 343.414 383.618C345.408 378.295 349.165 374.161 353.756 371.569C356.707 375.621 357.917 380.969 356.073 386.515C355.308 388.817 354.074 390.939 352.489 392.798C356.854 390.433 361.101 387.891 365.224 385.187C362.892 381.345 362.17 376.534 363.216 371.606C364.403 366.082 367.502 361.493 371.655 358.311C375.142 361.911 377.096 367.029 376.078 372.755C375.656 375.13 374.746 377.392 373.458 379.442C377.407 376.517 381.223 373.434 384.899 370.203C382.054 366.724 380.655 362.071 380.988 357.061C381.373 351.443 383.787 346.485 387.446 342.769C391.399 345.85 394.05 350.643 393.85 356.441C393.767 358.848 393.188 361.207 392.206 363.407C395.689 359.979 399.027 356.41 402.211 352.71C398.91 349.66 396.873 345.251 396.504 340.249C396.102 334.636 397.804 329.394 400.916 325.2C405.26 327.701 408.547 332.083 409.153 337.853C409.405 340.248 409.159 342.663 408.494 344.978C411.464 341.103 414.278 337.103 416.921 332.989C413.229 330.428 410.602 326.343 409.545 321.432Z" fill="white"/>
<path d="M436.873 414.746H74.8829C71.1749 414.746 68.1689 411.739 68.1689 408.031C68.1689 404.323 71.1749 401.318 74.8829 401.318H436.873C440.581 401.318 443.587 404.323 443.587 408.031C443.587 411.739 440.581 414.746 436.873 414.746Z" fill="#0C88C2"/>
<path d="M188.469 311.974C180.922 307.88 175.239 300.487 173.226 292.14C171.214 283.792 172.902 274.622 177.754 267.539C181.526 262.033 187.302 257.236 187.821 250.582C188.359 243.688 183.011 237.91 180.418 231.5C177.257 223.687 178.425 214.277 183.397 207.474C186.995 202.552 192.428 198.889 194.749 193.252C196.208 189.708 196.262 185.772 196.569 181.952C196.877 178.132 197.545 174.132 199.951 171.148C202.357 168.164 207.008 166.685 210.14 168.893C215.719 162.723 222.278 155.248 229.833 151.768C237.387 148.287 246.579 147.514 253.898 151.468C259.687 154.597 263.661 160.218 268.794 164.337C273.202 167.876 278.409 170.261 283.14 173.357C287.87 176.452 292.318 180.564 293.923 185.984C296.559 194.894 290.863 204.131 290.904 213.423C290.945 222.451 296.359 230.586 297.81 239.498C299.28 248.537 296.53 257.859 291.961 265.796C287.39 273.733 281.089 280.51 274.844 287.21C272.626 299 264.289 307.58 253.453 312.728C242.617 317.877 230.334 319.117 218.337 319.096C208.567 319.078 197.058 316.632 188.469 311.974Z" fill="#7F4300"/>
<path d="M201.005 288.067C198.399 284.854 198.312 280.251 199.216 276.213C200.119 272.175 201.873 268.35 202.555 264.27C203.476 258.756 202.394 253.114 201.07 247.683C199.745 242.252 198.164 236.813 198.075 231.223C197.988 225.634 199.615 219.733 203.765 215.987C218.314 202.855 242.726 206.405 262.277 207.786C272.158 208.483 279.217 217.75 282.661 227.038C286.106 236.325 285.408 246.828 282.005 256.131C278.603 265.435 272.652 273.632 265.816 280.801C261.739 285.078 254.15 282.019 248.395 283.356C242.754 284.666 237.975 288.3 232.714 290.723C224.309 294.593 214.485 295.283 205.62 292.627C203.017 291.846 200.81 290.777 201.005 288.067Z" fill="#8B572A"/>
<path d="M303.894 296.332C296.85 287.214 286.675 280.561 275.498 277.765C270.361 276.48 265.034 275.984 259.982 274.4C258.552 273.952 257.14 273.384 255.782 272.713C253.803 264.987 252.822 257.006 252.886 249.031H239.276H236.886H223.276C223.341 257.006 222.359 264.987 220.38 272.712C219.023 273.384 217.61 273.952 216.181 274.4C211.129 275.984 205.802 276.48 200.665 277.765C189.487 280.561 179.312 287.214 172.269 296.332C165.225 305.451 161.357 316.976 161.475 328.498V401.667L293.564 399.734C305.28 399.563 314.688 390.017 314.688 378.299V328.498C314.805 316.976 310.938 305.451 303.894 296.332Z" fill="#FFC985"/>
<path d="M252.537 396.944C255.059 390.335 255.276 383.114 256.19 376.098C257.943 362.639 262.332 349.685 265.446 336.474C268.559 323.263 271.32 308.869 267.908 295.732C248.65 298.048 229.11 298.016 209.859 295.641C202.573 298.697 198.79 307.892 197.437 315.676C196.083 323.462 197.073 331.432 197.224 339.333C197.389 347.973 196.543 356.621 196.952 365.254C197.36 373.887 199.138 382.721 204.019 389.854C207.038 394.266 211.088 397.793 215.489 400.879L250.927 400.36C251.55 399.256 252.093 398.109 252.537 396.944Z" fill="white"/>
<path d="M197.436 322.566C198.789 314.782 202.572 305.587 209.858 302.531C229.109 304.906 248.65 304.936 267.908 302.622C268.738 305.816 269.196 309.086 269.38 312.394C269.658 306.741 269.311 301.129 267.908 295.732C248.65 298.047 229.109 298.016 209.858 295.641C202.572 298.697 198.789 307.892 197.436 315.676C196.693 319.95 196.663 324.279 196.806 328.621C196.898 326.593 197.087 324.574 197.436 322.566Z" fill="#0064BF"/>
<path d="M197.226 346.22C197.221 345.95 197.208 345.679 197.202 345.409C197.075 351.337 196.736 357.266 196.889 363.189C197.012 357.533 197.334 351.876 197.226 346.22Z" fill="#0064BF"/>
<path d="M222.501 261.614C233.136 261.519 243.731 258.646 252.969 253.38C252.912 251.934 252.878 250.486 252.891 249.039L239.281 249.032L236.889 249.031L223.28 249.025C223.312 253.233 223.045 257.442 222.501 261.614Z" fill="#A57951"/>
<path d="M210.128 210.766C208.935 208.545 207.488 206.33 205.304 205.07C203.12 203.81 200.025 203.814 198.345 205.695C196.981 207.221 196.887 209.478 197.01 211.522C197.26 215.656 198.167 219.903 200.658 223.213C203.147 226.522 207.506 228.667 211.511 227.611C212.087 221.982 212.806 215.75 210.128 210.766Z" fill="#FFC985"/>
<path d="M209.852 215.157C209.995 215.181 210.138 215.204 210.282 215.227C209.727 213.863 209.168 212.491 208.381 211.247C207.594 210.002 206.559 208.878 205.25 208.204C203.94 207.531 202.334 207.352 200.984 207.941C199.634 208.53 198.633 209.96 198.753 211.427C199.549 210.493 200.991 210.211 202.193 210.46C203.397 210.708 204.43 211.649 204.79 212.823C203.74 212.945 202.972 214.004 202.755 215.038C202.537 216.073 202.81 217.151 203.222 218.125C203.461 218.691 203.755 219.247 204.188 219.682C204.621 220.118 205.213 220.427 205.828 220.414C205.276 221.152 204.334 221.736 203.413 221.779C205.397 222.748 207.979 222.615 209.801 221.366C210.072 219.302 210.034 217.233 209.852 215.157Z" fill="#E8AB71"/>
<path d="M264.242 212.953C265.438 210.733 266.886 208.518 269.07 207.26C271.256 206.002 274.351 206.008 276.029 207.891C277.391 209.419 277.483 211.676 277.358 213.72C277.104 217.854 276.193 222.099 273.7 225.407C271.207 228.714 266.847 230.856 262.844 229.795C262.272 224.166 261.558 217.933 264.242 212.953Z" fill="#FFC985"/>
<path d="M264.512 217.344C264.368 217.367 264.226 217.39 264.082 217.413C264.639 216.05 265.2 214.677 265.987 213.434C266.776 212.19 267.811 211.068 269.121 210.395C270.432 209.723 272.038 209.546 273.388 210.135C274.737 210.725 275.737 212.156 275.615 213.623C274.821 212.688 273.379 212.405 272.176 212.653C270.972 212.9 269.938 213.841 269.576 215.013C270.627 215.137 271.394 216.196 271.61 217.231C271.827 218.265 271.553 219.344 271.14 220.318C270.901 220.884 270.606 221.439 270.172 221.875C269.739 222.311 269.147 222.617 268.532 222.603C269.084 223.342 270.024 223.928 270.945 223.971C268.96 224.938 266.378 224.803 264.558 223.553C264.289 221.488 264.329 219.419 264.512 217.344Z" fill="#E8AB71"/>
<path d="M215.824 215.006C215.822 219.713 212.005 223.526 207.298 223.524C202.592 223.521 198.78 219.705 198.782 214.998C198.784 210.292 202.6 206.479 207.306 206.482C212.013 206.484 215.826 210.3 215.824 215.006Z" fill="#009ACB"/>
<path d="M276.15 215.033C276.148 219.74 272.331 223.553 267.625 223.551C262.917 223.549 259.104 219.732 259.106 215.025C259.109 210.319 262.925 206.507 267.633 206.509C272.339 206.511 276.153 210.327 276.15 215.033Z" fill="#009ACB"/>
<path d="M267.629 216.875C267.618 239.316 254.083 257.502 237.396 257.494C220.709 257.486 207.188 239.288 207.199 216.847C207.209 194.406 207.219 176.214 237.434 176.228C267.648 176.242 267.639 194.434 267.629 216.875Z" fill="#FFC985"/>
<path d="M209.008 201.586C208.066 201.148 209.696 199.514 212.154 198.852C218.665 197.099 225.87 196.356 231.279 200.381C231.491 201.502 230.056 202.835 228.924 202.971C227.791 203.108 226.683 202.649 225.609 202.26C220.376 200.373 214.418 200.285 209.008 201.586Z" fill="#7F4300"/>
<path d="M265.559 201.613C266.502 201.176 264.873 199.54 262.416 198.876C255.908 197.117 248.702 196.367 243.289 200.387C243.076 201.508 244.51 202.842 245.642 202.979C246.775 203.118 247.883 202.659 248.957 202.272C254.192 200.389 260.151 200.307 265.559 201.613Z" fill="#7F4300"/>
<path d="M228.894 226.711C228.893 227.884 225.158 228.833 220.55 228.831C215.942 228.829 212.207 227.876 212.208 226.703C212.209 225.53 215.944 224.581 220.552 224.583C225.16 224.585 228.895 225.538 228.894 226.711Z" fill="#FFAE6A"/>
<path d="M262.147 226.727C262.146 227.9 258.411 228.849 253.803 228.847C249.195 228.844 245.458 227.892 245.459 226.719C245.46 225.546 249.197 224.596 253.805 224.599C258.413 224.601 262.148 225.554 262.147 226.727Z" fill="#FFAE6A"/>
<path d="M236.627 208.079C237.422 213.581 236.049 219.367 232.867 223.927C232.197 224.887 231.414 225.9 231.454 227.07C231.499 228.394 232.65 229.481 233.922 229.851C235.194 230.222 236.558 230.023 237.854 229.75" stroke="#EAAB6A" stroke-width="2" stroke-linecap="round" stroke-linejoin="round"/>
<path d="M220.759 223.214C213.337 223.211 207.303 217.169 207.306 209.748C207.31 202.326 213.349 196.291 220.771 196.294C228.192 196.298 234.228 202.339 234.224 209.761C234.221 217.182 228.18 223.218 220.759 223.214ZM220.77 198.485C214.557 198.482 209.499 203.535 209.496 209.749C209.493 215.962 214.547 221.019 220.76 221.022C226.973 221.025 232.031 215.973 232.034 209.76C232.037 203.546 226.983 198.488 220.77 198.485Z" fill="white"/>
<path d="M254.538 223.23C247.117 223.227 241.082 217.185 241.086 209.764C241.089 202.342 247.13 196.307 254.551 196.31C261.973 196.313 268.007 202.354 268.004 209.776C268 217.197 261.96 223.233 254.538 223.23ZM254.55 198.501C248.337 198.498 243.277 203.551 243.275 209.765C243.272 215.978 248.326 221.035 254.539 221.038C260.753 221.041 265.811 215.988 265.814 209.775C265.816 203.561 260.764 198.504 254.55 198.501Z" fill="white"/>
<path d="M233.763 210.653L232.495 208.865C234.287 207.597 238.747 205.968 242.817 208.871L241.544 210.656C237.71 207.918 233.802 210.624 233.763 210.653Z" fill="white"/>
<path d="M228.733 235.484C234.426 238.8 242.02 238.519 247.451 234.792" stroke="#EAAB6A" stroke-width="2" stroke-linecap="round" stroke-linejoin="round"/>
<path d="M234.659 242.104C236.464 242.713 238.42 242.87 240.299 242.555" stroke="#EAAB6A" stroke-width="2" stroke-linecap="round" stroke-linejoin="round"/>
<path d="M196.067 218.968C206.268 211.551 214.162 201.007 218.406 189.131C225.564 195.805 235.777 199.396 245.555 198.985C243.63 198.116 242.204 196.384 241.039 194.622C250.48 196.859 258.594 202.591 264.81 210.041C267.335 213.067 269.475 216.433 272.33 219.149C275.186 221.864 279.001 223.924 282.919 223.505C280.482 213.111 278.108 202.367 274.199 192.432C271.799 186.334 268.965 180.118 263.95 175.898C257.711 170.648 248.996 169.312 240.861 169.904C232.184 170.537 223.634 173.153 216.194 177.662C206.084 183.788 198.15 193.427 194.082 204.525C193.183 206.979 192.46 209.556 192.574 212.167C192.689 214.779 193.97 217.408 196.067 218.968Z" fill="#7F4300"/>
<path d="M207.259 225.635C207.258 227.155 206.025 228.387 204.506 228.386C202.986 228.385 201.754 227.153 201.755 225.633C201.755 224.113 202.989 222.883 204.509 222.884C206.028 222.885 207.259 224.115 207.259 225.635Z" fill="#9B5858"/>
<path d="M273.128 225.666C273.127 227.186 271.893 228.417 270.373 228.416C268.854 228.416 267.623 227.183 267.624 225.663C267.624 224.143 268.857 222.914 270.376 222.914C271.896 222.915 273.128 224.146 273.128 225.666Z" fill="#9B5858"/>
<path d="M221.404 205.732C220.429 205.731 219.577 206.532 219.088 207.73L221.402 210.048L219.086 212.361C219.574 213.562 220.425 214.363 221.4 214.364C222.92 214.364 224.152 212.432 224.153 210.049C224.154 207.665 222.924 205.732 221.404 205.732Z" fill="#704242"/>
<path d="M253.546 205.747C252.57 205.747 251.719 206.547 251.231 207.746L253.544 210.063L251.228 212.377C251.716 213.577 252.566 214.379 253.542 214.379C255.062 214.38 256.294 212.447 256.295 210.064C256.297 207.68 255.066 205.748 253.546 205.747Z" fill="#704242"/>
<path d="M202.047 200.207C201.451 195.797 201.968 191.188 203.381 186.822C204.841 182.472 207.223 178.359 210.408 174.917C213.554 171.442 217.494 168.649 221.838 166.744C226.185 164.834 230.951 163.859 235.707 163.843C240.463 163.859 245.226 164.838 249.573 166.75C253.914 168.664 257.858 171.452 261.001 174.936C264.182 178.382 266.562 182.495 268.017 186.849C269.424 191.219 269.937 195.828 269.332 200.239C268.199 191.427 264.11 183.518 257.977 177.955C251.838 172.407 243.815 169.31 235.704 169.318C227.591 169.294 219.563 172.385 213.416 177.929C207.277 183.486 203.18 191.397 202.047 200.207Z" fill="white"/>
<path d="M275.498 277.765C271.241 276.701 266.856 276.17 262.603 275.12C253.65 316.447 247.324 358.339 243.667 400.465L293.563 399.735C305.279 399.564 314.687 390.017 314.687 378.299V328.498C314.805 316.976 310.938 305.452 303.894 296.332C296.851 287.214 286.676 280.561 275.498 277.765Z" fill="#0C88C2"/>
<path d="M214.507 274.881C209.961 276.099 205.238 276.621 200.666 277.765C189.487 280.561 179.313 287.214 172.269 296.332C165.225 305.451 161.357 316.976 161.475 328.498V401.667L233.507 400.613C229.846 358.356 223.498 316.333 214.507 274.881Z" fill="#0C88C2"/>
<path d="M200.667 277.765C199.115 278.154 197.585 278.623 196.078 279.157C192.601 289.038 189.413 298.99 186.562 309.006C192.006 312.148 197.268 316.06 203.192 318.544C201.055 323.758 198.768 329.53 196.631 334.743C207.534 355.691 216.901 378.53 224.538 400.722L233.508 400.614C229.093 358.657 221.457 316.931 210.66 275.766C207.333 276.437 203.961 276.941 200.667 277.765Z" fill="#0C88C2"/>
<path d="M280.586 334.742C278.496 329.529 276.26 323.758 274.17 318.544C279.963 316.059 285.107 312.147 290.432 309.006C287.685 299.138 284.621 289.332 281.281 279.594C279.392 278.873 277.461 278.256 275.498 277.764C272.357 276.979 269.146 276.482 265.969 275.855C255.437 316.943 247.984 358.588 243.668 400.465L253.431 400.322C260.874 378.256 269.989 355.564 280.586 334.742Z" fill="#0C88C2"/>
<path d="M214.508 274.881C210.814 275.87 207.004 276.406 203.252 277.184C200.164 287.713 197.356 298.323 194.852 309.006C199.336 312.148 203.668 316.061 208.546 318.545C206.786 323.759 204.903 329.53 203.143 334.743C212.121 355.692 219.835 378.53 226.123 400.723L233.508 400.614C229.847 358.357 223.499 316.333 214.508 274.881Z" fill="#0C88C2"/>
<path d="M274.775 277.604C270.746 276.653 266.617 276.111 262.603 275.121C253.65 316.447 247.324 358.339 243.668 400.465L251.882 400.345C258.151 378.272 265.831 355.573 274.757 334.743C272.998 329.53 271.114 323.758 269.354 318.544C274.233 316.06 278.563 312.148 283.046 309.006C280.577 298.466 277.814 287.995 274.775 277.604Z" fill="#0C88C2"/>
<path d="M217.086 275.401C216.659 275.401 216.232 275.226 215.925 274.919C215.849 274.842 215.783 274.755 215.717 274.667C215.663 274.579 215.608 274.481 215.575 274.382C215.531 274.284 215.498 274.174 215.476 274.076C215.454 273.966 215.443 273.857 215.443 273.757C215.443 273.649 215.454 273.539 215.476 273.429C215.498 273.331 215.531 273.221 215.575 273.123C215.608 273.024 215.663 272.925 215.717 272.838C215.783 272.751 215.849 272.663 215.925 272.586C216.309 272.213 216.878 272.039 217.404 272.136C217.513 272.159 217.612 272.192 217.711 272.236C217.82 272.28 217.908 272.324 217.995 272.388C218.094 272.444 218.17 272.52 218.247 272.586C218.324 272.663 218.39 272.751 218.455 272.838C218.51 272.925 218.565 273.024 218.609 273.123C218.642 273.221 218.674 273.331 218.696 273.429C218.718 273.539 218.729 273.649 218.729 273.757C218.729 273.857 218.718 273.966 218.696 274.076C218.674 274.174 218.642 274.284 218.609 274.382C218.565 274.481 218.51 274.579 218.455 274.667C218.39 274.755 218.324 274.842 218.247 274.919C218.17 274.996 218.094 275.062 217.995 275.116C217.908 275.182 217.82 275.226 217.711 275.27C217.612 275.314 217.513 275.346 217.404 275.368C217.305 275.39 217.196 275.401 217.086 275.401Z" fill="#9B5858"/>
<path d="M236.168 284.842C235.347 284.81 234.678 284.174 234.602 283.374C234.394 284.142 233.638 284.678 232.827 284.579H232.816C232.006 284.481 231.392 283.802 231.37 283.002C231.108 283.758 230.319 284.229 229.509 284.075C228.698 283.922 228.14 283.189 228.172 282.377C227.844 283.122 227.001 283.517 226.201 283.276C225.39 283.034 224.908 282.225 225.062 281.414C224.624 282.114 223.714 282.4 222.947 282.028C222.181 281.655 221.83 280.756 222.126 279.968C221.546 280.592 220.582 280.68 219.903 280.155C219.224 279.617 219.07 278.654 219.552 277.942C218.83 278.424 217.866 278.27 217.329 277.58C216.781 276.858 216.913 275.827 217.635 275.27C218.358 274.722 219.388 274.863 219.936 275.575H219.947C220.374 276.156 220.385 276.923 220.001 277.492C220.582 277.11 221.348 277.12 221.929 277.558C222.509 278.008 222.696 278.774 222.455 279.431C222.937 278.916 223.714 278.741 224.372 279.07C225.062 279.399 225.412 280.132 225.281 280.844C225.664 280.22 226.419 279.913 227.154 280.132C227.888 280.351 228.358 281.052 228.314 281.786C228.622 281.108 229.366 280.702 230.122 280.844C230.9 280.987 231.436 281.655 231.458 282.41C231.71 281.698 232.422 281.228 233.2 281.316C233.978 281.404 234.569 282.028 234.646 282.773C234.843 282.049 235.511 281.524 236.299 281.556C237.077 281.589 237.712 282.158 237.844 282.893C237.975 282.158 238.611 281.589 239.388 281.545C240.166 281.512 240.834 282.028 241.042 282.739C241.108 281.994 241.677 281.37 242.444 281.26C243.21 281.151 243.934 281.589 244.208 282.279C244.196 281.534 244.689 280.856 245.445 280.669C246.19 280.483 246.946 280.833 247.296 281.49C247.209 280.756 247.625 280.034 248.337 279.76C249.06 279.487 249.849 279.738 250.275 280.34C250.1 279.628 250.418 278.862 251.097 278.5C251.776 278.139 252.587 278.303 253.079 278.851C252.816 278.16 253.036 277.361 253.66 276.923C254.284 276.474 255.106 276.529 255.664 277C255.314 276.354 255.423 275.543 255.971 275.018C256.628 274.393 257.669 274.414 258.293 275.071C258.929 275.729 258.896 276.77 258.238 277.394C257.636 277.975 256.694 277.996 256.059 277.471C256.453 278.183 256.256 279.103 255.566 279.595C254.887 280.088 253.956 279.968 253.397 279.365C253.693 280.132 253.386 281.008 252.642 281.404C251.897 281.797 250.987 281.568 250.527 280.899C250.725 281.688 250.298 282.52 249.52 282.826C248.731 283.122 247.866 282.782 247.482 282.071C247.581 282.87 247.066 283.649 246.256 283.857C245.445 284.065 244.624 283.626 244.328 282.87C244.328 283.681 243.736 284.394 242.915 284.514C242.083 284.634 241.316 284.119 241.097 283.33C241.031 284.142 240.374 284.787 239.542 284.831C238.709 284.863 237.997 284.283 237.844 283.494C237.712 284.262 237.034 284.842 236.234 284.842H236.168Z" fill="#9B5858"/>
<path d="M259.279 275.434C258.852 275.434 258.425 275.258 258.119 274.952C257.812 274.645 257.636 274.229 257.636 273.79C257.636 273.364 257.812 272.936 258.119 272.629C258.732 272.016 259.826 272.016 260.439 272.629C260.747 272.936 260.922 273.364 260.922 273.79C260.922 274.218 260.747 274.645 260.439 274.952C260.132 275.258 259.707 275.434 259.279 275.434Z" fill="#9B5858"/>
<path d="M227.525 244.407C227.507 244.407 227.489 244.407 227.472 244.406C224.36 244.223 221.142 244.033 218.011 243.303C214.422 242.465 211.484 241.014 209.278 238.994C205.833 235.84 204.374 231.473 203.758 228.362C202.984 224.459 203.044 220.463 203.103 216.6C203.111 216.101 203.563 215.706 204.019 215.711C204.518 215.72 204.916 216.129 204.908 216.628C204.85 220.398 204.791 224.294 205.528 228.01C206.093 230.855 207.413 234.84 210.497 237.663C212.472 239.472 215.138 240.779 218.422 241.546C221.401 242.242 224.541 242.427 227.578 242.605C228.075 242.635 228.455 243.062 228.426 243.559C228.398 244.039 227.999 244.408 227.525 244.407Z" fill="#006B8D"/>
<path d="M230.164 243.437C230.163 244.788 228.642 245.882 226.766 245.881C224.89 245.88 223.369 244.785 223.37 243.434C223.371 242.083 224.892 240.99 226.768 240.991C228.644 240.992 230.165 242.086 230.164 243.437Z" fill="#006B8D"/>
<path d="M174.607 295.229C164.844 306.161 158.39 319.717 154.069 333.721C149.749 347.727 147.459 362.264 145.183 376.742C144.527 380.907 143.882 385.24 145.101 389.276C147.597 397.549 157.034 401.721 165.652 402.353C174.27 402.986 182.987 401.169 191.541 402.393C196.314 366.447 191.983 327.056 174.607 295.229Z" fill="#0C88C2"/>
<path d="M207.567 382.687C213.786 380.574 220.047 378.45 226.548 377.506C233.047 376.56 239.871 376.853 245.907 379.442C251.944 382.032 257.091 387.143 258.712 393.508C259.229 395.536 255.314 396.253 253.328 396.916C251.344 397.578 249.204 397.558 247.112 397.532C240.138 397.444 233.164 397.355 226.191 397.267C221.211 397.205 215.845 398.659 211.563 396.117C209.42 394.844 208.083 392.504 207.483 390.086C206.882 387.666 207.516 385.179 207.567 382.687Z" fill="#FFC985"/>
<path d="M163.885 373.865C182.019 372.051 200.252 371.24 218.475 371.437C220.504 379.894 223.139 389.131 222.768 397.821C208.357 402.392 193.181 403.152 178.359 400.171C168.238 398.135 164.204 384.185 163.885 373.865Z" fill="#0C88C2"/>
<path d="M208.411 371.689C201.966 368.65 194.439 367.001 187.326 366.573C188.019 356.138 187.813 345.643 186.707 335.242C189.72 343.525 192.008 352.061 192.274 360.87C198.525 362.846 204.758 366.246 208.411 371.689Z" fill="#0C88C2"/>
<path d="M385.513 395.411H177.721V397.131C177.721 399.443 179.596 401.319 181.908 401.319H381.326C383.638 401.319 385.513 399.443 385.513 397.131V395.411Z" fill="white"/>
<path d="M385.513 395.411H177.721V397.131C177.721 399.443 179.596 401.318 181.908 401.318H381.326C383.638 401.318 385.513 399.443 385.513 397.131V395.411Z" fill="#0C88C2"/>
<path d="M250.111 397.13V395.41H177.721V397.13C177.721 399.443 179.596 401.318 181.908 401.318H245.924C248.236 401.318 250.111 399.443 250.111 397.13Z" fill="#0C88C2"/>
<path d="M385.512 395.411H250.11L280.303 312.457C281.427 309.368 284.842 306.865 287.931 306.865H412.148C415.236 306.865 416.828 309.368 415.704 312.457L385.512 395.411Z" fill="white"/>
<path d="M342.621 351.138C340.873 355.941 335.562 359.834 330.76 359.834C325.957 359.834 323.48 355.941 325.228 351.138C326.976 346.335 332.287 342.442 337.09 342.442C341.892 342.442 344.368 346.335 342.621 351.138Z" fill="#0C88C2"/>
<path d="M235.601 399.455H230.902C230.309 399.455 229.828 398.975 229.828 398.381C229.828 397.788 230.309 397.308 230.902 397.308H235.601C236.194 397.308 236.675 397.788 236.675 398.381C236.675 398.975 236.194 399.455 235.601 399.455Z" fill="#0C88C2"/>
<path d="M226.069 399.455H221.369C220.776 399.455 220.295 398.975 220.295 398.381C220.295 397.788 220.776 397.308 221.369 397.308H226.069C226.662 397.308 227.143 397.788 227.143 398.381C227.143 398.975 226.662 399.455 226.069 399.455Z" fill="#0C88C2"/>
<path d="M216.536 399.455H211.837C211.244 399.455 210.763 398.975 210.763 398.381C210.763 397.788 211.244 397.308 211.837 397.308H216.536C217.129 397.308 217.61 397.788 217.61 398.381C217.61 398.975 217.129 399.455 216.536 399.455Z" fill="#0C88C2"/>
<path d="M159.032 390.023C151.156 390.023 144.747 383.614 144.747 375.737C144.747 367.861 151.156 361.453 159.032 361.453C166.908 361.453 173.317 367.861 173.317 375.737C173.317 383.614 166.908 390.023 159.032 390.023ZM159.032 365.918C153.617 365.918 149.212 370.322 149.212 375.737C149.212 381.152 153.617 385.558 159.032 385.558C164.447 385.558 168.852 381.152 168.852 375.737C168.852 370.322 164.447 365.918 159.032 365.918Z" fill="#1B5D7C"/>
<path d="M119.176 389.03C119.176 390.787 119.414 392.488 119.86 394.103C121.044 398.393 125.016 401.319 129.466 401.319H147.006C151.456 401.319 155.428 398.393 156.612 394.103C157.057 392.488 157.296 390.787 157.296 389.03V359.939H119.176V389.03Z" fill="white"/>
<path d="M147.075 359.939V389.03C147.075 390.787 146.836 392.488 146.39 394.103C145.207 398.393 141.235 401.319 136.784 401.319H147.005C151.455 401.319 155.429 398.393 156.612 394.103C157.058 392.488 157.296 390.787 157.296 389.03V359.939H147.075Z" fill="#0C88C2"/>
<path d="M309.705 171.931C310.561 171.919 311.402 171.852 312.232 171.748L313.837 175.331C315.087 175.122 316.307 174.82 317.49 174.444L317.271 170.51C318.868 169.923 320.379 169.167 321.785 168.256L324.794 170.793C325.819 170.066 326.79 169.268 327.7 168.406L325.808 164.98C326.983 163.77 328.005 162.419 328.89 160.974L332.699 161.955C333.304 160.863 333.835 159.724 334.285 158.545L331.078 156.267C331.604 154.687 331.972 153.039 332.141 151.329L335.984 150.562C336.018 149.939 336.04 149.313 336.031 148.68C336.022 148.046 335.983 147.421 335.931 146.799L332.069 146.141C331.852 144.437 331.437 142.8 330.867 141.235L334.009 138.868C333.526 137.702 332.964 136.579 332.327 135.504L328.547 136.591C327.622 135.172 326.563 133.85 325.355 132.673L327.149 129.195C326.216 128.359 325.223 127.59 324.178 126.89L321.241 129.511C319.81 128.641 318.279 127.927 316.666 127.385L316.775 123.447C315.581 123.103 314.353 122.837 313.098 122.661L311.594 126.289C310.762 126.208 309.919 126.164 309.063 126.176C308.208 126.188 307.367 126.256 306.538 126.36L304.932 122.776C303.682 122.987 302.463 123.287 301.279 123.664L301.498 127.598C299.901 128.185 298.39 128.941 296.984 129.851L293.976 127.314C292.951 128.043 291.979 128.839 291.069 129.702L292.96 133.128C291.786 134.338 290.764 135.689 289.879 137.134L286.07 136.153C285.464 137.246 284.933 138.384 284.484 139.563L287.691 141.841C287.166 143.421 286.797 145.07 286.628 146.779L282.786 147.545C282.75 148.168 282.73 148.794 282.739 149.428C282.748 150.061 282.786 150.686 282.838 151.308L286.701 151.967C286.918 153.671 287.333 155.308 287.902 156.873L284.76 159.24C285.242 160.406 285.805 161.529 286.441 162.604L290.221 161.516C291.146 162.936 292.206 164.258 293.414 165.435L291.619 168.912C292.553 169.748 293.547 170.518 294.592 171.217L297.527 168.596C298.959 169.467 300.49 170.181 302.104 170.722L301.995 174.661C303.189 175.005 304.416 175.271 305.671 175.446L307.176 171.819C308.008 171.9 308.85 171.943 309.705 171.931ZM293.201 149.281C293.075 140.343 300.22 132.995 309.157 132.87C318.095 132.744 325.443 139.889 325.569 148.827C325.694 157.764 318.55 165.113 309.611 165.238C300.674 165.364 293.326 158.218 293.201 149.281Z" fill="white"/>
<path d="M122.933 229.469C122.216 229.458 121.509 229.496 120.811 229.562L119.55 226.522C118.497 226.669 117.468 226.892 116.467 227.18L116.558 230.481C115.205 230.936 113.922 231.535 112.721 232.265L110.26 230.068C109.384 230.654 108.551 231.299 107.768 232L109.272 234.916C108.26 235.903 107.371 237.012 106.595 238.201L103.426 237.291C102.892 238.191 102.42 239.134 102.016 240.111L104.651 242.096C104.173 243.408 103.825 244.781 103.643 246.21L100.405 246.762C100.36 247.283 100.328 247.807 100.321 248.338C100.313 248.869 100.331 249.394 100.36 249.917L103.582 250.559C103.724 251.992 104.033 253.375 104.474 254.7L101.785 256.609C102.161 257.599 102.607 258.553 103.115 259.469L106.309 258.647C107.051 259.859 107.908 260.992 108.892 262.007L107.306 264.879C108.069 265.602 108.884 266.271 109.743 266.881L112.265 264.753C113.445 265.516 114.711 266.151 116.05 266.644L115.867 269.941C116.86 270.258 117.882 270.51 118.93 270.685L120.276 267.682C120.972 267.769 121.677 267.825 122.394 267.835C123.112 267.845 123.819 267.809 124.517 267.742L125.778 270.782C126.83 270.635 127.86 270.413 128.86 270.124L128.769 266.822C130.122 266.367 131.405 265.768 132.606 265.039L135.068 267.237C135.944 266.651 136.776 266.004 137.56 265.303L136.056 262.387C137.068 261.4 137.957 260.292 138.732 259.102L141.902 260.014C142.436 259.112 142.907 258.171 143.312 257.192L140.677 255.208C141.155 253.896 141.502 252.522 141.684 251.094L144.923 250.542C144.967 250.021 144.999 249.496 145.006 248.965C145.014 248.434 144.997 247.909 144.967 247.387L141.745 246.744C141.603 245.311 141.295 243.929 140.854 242.604L143.543 240.694C143.166 239.705 142.721 238.75 142.213 237.835L139.019 238.656C138.277 237.446 137.42 236.312 136.436 235.298L138.022 232.425C137.258 231.702 136.444 231.033 135.584 230.423L133.062 232.55C131.883 231.787 130.616 231.153 129.277 230.66L129.46 227.362C128.468 227.046 127.446 226.795 126.398 226.618L125.052 229.621C124.356 229.536 123.651 229.479 122.933 229.469ZM136.234 248.842C136.129 256.337 129.968 262.327 122.473 262.222C114.979 262.117 108.988 255.956 109.093 248.461C109.198 240.967 115.36 234.977 122.854 235.082C130.349 235.187 136.339 241.348 136.234 248.842Z" fill="#0064BF"/>
<path d="M401.862 265.671C401.338 265.664 400.82 265.69 400.31 265.74L399.388 263.515C398.618 263.623 397.866 263.786 397.133 263.996L397.2 266.411C396.21 266.744 395.271 267.183 394.393 267.717L392.593 266.109C391.952 266.538 391.342 267.01 390.77 267.523L391.87 269.655C391.129 270.377 390.479 271.189 389.912 272.059L387.593 271.393C387.203 272.052 386.858 272.74 386.562 273.456L388.489 274.909C388.139 275.868 387.885 276.871 387.752 277.917L385.383 278.32C385.351 278.702 385.328 279.085 385.322 279.474C385.317 279.862 385.33 280.246 385.35 280.628L387.708 281.098C387.811 282.147 388.037 283.158 388.359 284.126L386.393 285.524C386.668 286.248 386.994 286.946 387.365 287.616L389.702 287.015C390.245 287.899 390.871 288.73 391.592 289.472L390.432 291.572C390.99 292.101 391.586 292.591 392.215 293.038L394.06 291.481C394.922 292.04 395.849 292.504 396.829 292.864L396.694 295.277C397.421 295.508 398.168 295.691 398.934 295.82L399.918 293.623C400.427 293.687 400.944 293.728 401.468 293.736C401.994 293.743 402.509 293.716 403.02 293.666L403.943 295.89C404.713 295.783 405.466 295.621 406.198 295.41L406.132 292.995C407.12 292.662 408.061 292.224 408.938 291.69L410.739 293.298C411.38 292.869 411.989 292.396 412.562 291.883L411.462 289.75C412.201 289.029 412.852 288.217 413.42 287.348L415.738 288.014C416.128 287.355 416.474 286.666 416.77 285.95L414.842 284.497C415.19 283.539 415.446 282.535 415.579 281.489L417.948 281.086C417.979 280.704 418.004 280.32 418.009 279.932C418.015 279.543 418.001 279.16 417.98 278.778L415.624 278.308C415.52 277.259 415.293 276.249 414.971 275.28L416.939 273.883C416.663 273.159 416.337 272.461 415.965 271.791L413.63 272.392C413.087 271.506 412.458 270.676 411.74 269.934L412.899 267.833C412.341 267.304 411.746 266.816 411.117 266.369L409.272 267.925C408.41 267.367 407.482 266.902 406.503 266.541L406.637 264.129C405.911 263.899 405.163 263.714 404.396 263.586L403.411 265.783C402.902 265.719 402.388 265.679 401.862 265.671ZM411.592 279.842C411.515 285.324 407.009 289.706 401.525 289.629C396.044 289.552 391.663 285.045 391.74 279.564C391.817 274.081 396.323 269.7 401.804 269.777C407.288 269.854 411.669 274.36 411.592 279.842Z" fill="white"/>
<g opacity="0.999762">
<path d="M82.5062 194.086C82.5062 195.942 81.0012 197.447 79.1452 197.447C77.2882 197.447 75.7822 195.942 75.7822 194.086C75.7822 192.23 77.2882 190.725 79.1452 190.725C81.0012 190.725 82.5062 192.23 82.5062 194.086Z" fill="#0064BF"/>
<path d="M75.7824 374.669C75.7824 375.558 75.0624 376.277 74.1744 376.277C73.2864 376.277 72.5664 375.558 72.5664 374.669C72.5664 373.781 73.2864 373.063 74.1744 373.063C75.0624 373.063 75.7824 373.781 75.7824 374.669Z" fill="#0064BF"/>
<path d="M168.851 93.0336C168.851 94.3086 167.817 95.3436 166.541 95.3436C165.266 95.3436 164.231 94.3086 164.231 93.0336C164.231 91.7576 165.266 90.7236 166.541 90.7236C167.817 90.7236 168.851 91.7576 168.851 93.0336Z" fill="#0064BF"/>
<path d="M311.031 99.0903C311.031 99.8373 310.425 100.443 309.677 100.443C308.93 100.443 308.325 99.8373 308.325 99.0903C308.325 98.3433 308.93 97.7373 309.677 97.7373C310.425 97.7373 311.031 98.3433 311.031 99.0903Z" fill="#0064BF"/>
<path d="M443.587 162.25C443.587 163.553 442.531 164.608 441.229 164.608C439.926 164.608 438.869 163.553 438.869 162.25C438.869 160.948 439.926 159.892 441.229 159.892C442.531 159.892 443.587 160.948 443.587 162.25Z" fill="#0064BF"/>
<path d="M467.424 250.512C467.424 251.54 466.591 252.373 465.564 252.373C464.535 252.373 463.702 251.54 463.702 250.512C463.702 249.484 464.535 248.651 465.564 248.651C466.591 248.651 467.424 249.484 467.424 250.512Z" fill="#0064BF"/>
<path d="M452.639 365.709C452.639 367.102 451.51 368.23 450.117 368.23C448.724 368.23 447.595 367.102 447.595 365.709C447.595 364.316 448.724 363.188 450.117 363.188C451.51 363.188 452.639 364.316 452.639 365.709Z" fill="#0064BF"/>
</g>
<g opacity="0.01">
<path d="M56.595 277.55C56.595 278.737 55.632 279.7 54.444 279.7C53.256 279.7 52.293 278.737 52.293 277.55C52.293 276.362 53.256 275.4 54.444 275.4C55.632 275.4 56.595 276.362 56.595 277.55Z" fill="#0064BF"/>
<path d="M83.6169 168.441C83.6169 169.175 83.0219 169.77 82.2889 169.77C81.5549 169.77 80.9609 169.175 80.9609 168.441C80.9609 167.708 81.5549 167.114 82.2889 167.114C83.0219 167.114 83.6169 167.708 83.6169 168.441Z" fill="#0064BF"/>
<path d="M351.622 112.872C351.622 114.725 350.119 116.227 348.266 116.227C346.413 116.227 344.91 114.725 344.91 112.872C344.91 111.018 346.413 109.517 348.266 109.517C350.119 109.517 351.622 111.018 351.622 112.872Z" fill="#0064BF"/>
<path d="M385.512 121.472C385.512 122.676 384.535 123.652 383.331 123.652C382.127 123.652 381.152 122.676 381.152 121.472C381.152 120.268 382.127 119.292 383.331 119.292C384.535 119.292 385.512 120.268 385.512 121.472Z" fill="#0064BF"/>
<path d="M441.587 220.883C441.587 222.931 439.927 224.591 437.88 224.591C435.832 224.591 434.171 222.931 434.171 220.883C434.171 218.836 435.832 217.175 437.88 217.175C439.927 217.175 441.587 218.836 441.587 220.883Z" fill="#0064BF"/>
<path d="M434.172 253.278C434.172 254.806 432.933 256.046 431.405 256.046C429.878 256.046 428.64 254.806 428.64 253.278C428.64 251.751 429.878 250.512 431.405 250.512C432.933 250.512 434.172 251.751 434.172 253.278Z" fill="#0064BF"/>
<path d="M433.176 384.156C433.176 386.105 431.596 387.686 429.648 387.686C427.698 387.686 426.118 386.105 426.118 384.156C426.118 382.208 427.698 380.628 429.648 380.628C431.596 380.628 433.176 382.208 433.176 384.156Z" fill="#0064BF"/>
</g>
<g opacity="0.520085">
<path d="M463.701 194.912C464.197 198.417 466.952 201.172 470.457 201.668C466.952 202.164 464.197 204.919 463.701 208.424C463.205 204.919 460.45 202.164 456.945 201.668C460.45 201.172 463.205 198.417 463.701 194.912Z" fill="#0064BF"/>
<path d="M467.424 336.56C467.921 340.065 470.675 342.82 474.18 343.316C470.675 343.812 467.921 346.567 467.424 350.072C466.928 346.567 464.174 343.812 460.668 343.316C464.174 342.82 466.928 340.065 467.424 336.56Z" fill="#0064BF"/>
<path d="M281.812 85.2559C282.213 88.0929 284.444 90.3229 287.282 90.7249C284.444 91.1269 282.213 93.3569 281.812 96.1949C281.411 93.3569 279.18 91.1269 276.342 90.7249C279.18 90.3229 281.411 88.0929 281.812 85.2559Z" fill="#0064BF"/>
</g>
<g opacity="0.479915">
<path d="M106.557 107.51C107.198 112.033 110.752 115.588 115.276 116.228C110.752 116.869 107.198 120.424 106.557 124.947C105.916 120.424 102.362 116.869 97.8389 116.228C102.362 115.588 105.916 112.033 106.557 107.51Z" fill="#0064BF"/>
<path d="M56.5949 347.543C57.0919 351.048 59.8459 353.802 63.3509 354.299C59.8459 354.795 57.0919 357.549 56.5949 361.055C56.0989 357.549 53.3449 354.795 49.8389 354.299C53.3449 353.802 56.0989 351.048 56.5949 347.543Z" fill="#0064BF"/>
<path d="M56.595 213.598C56.997 216.435 59.227 218.665 62.065 219.067C59.227 219.469 56.997 221.699 56.595 224.537C56.194 221.699 53.963 219.469 51.126 219.067C53.963 218.665 56.194 216.435 56.595 213.598Z" fill="#0064BF"/>
<path d="M431.883 109.516C432.523 114.037 436.075 117.589 440.596 118.229C436.075 118.869 432.523 122.421 431.883 126.942C431.242 122.421 427.691 118.869 423.17 118.229C427.691 117.589 431.242 114.037 431.883 109.516Z" fill="#0064BF"/>
</g>
<path d="M353.33 231.311H318.536C312.896 231.311 308.325 235.884 308.325 241.523V258.152C308.325 263.792 312.896 268.363 318.536 268.363H319.705L317.339 271.708C316.564 272.802 317.711 274.225 318.945 273.701L330.041 269C331.032 268.58 332.098 268.363 333.175 268.363H353.33C358.97 268.363 363.541 263.792 363.541 258.152V241.523C363.541 235.884 358.97 231.311 353.33 231.311Z" fill="white"/>
<path d="M356.541 243.719H315.325C314.348 243.719 313.554 242.926 313.554 241.948C313.554 240.97 314.348 240.177 315.325 240.177H356.541C357.52 240.177 358.312 240.97 358.312 241.948C358.312 242.926 357.52 243.719 356.541 243.719Z" fill="#0C88C2"/>
<path d="M356.541 251.606H315.325C314.348 251.606 313.554 250.813 313.554 249.835C313.554 248.857 314.348 248.064 315.325 248.064H356.541C357.52 248.064 358.312 248.857 358.312 249.835C358.312 250.813 357.52 251.606 356.541 251.606Z" fill="#0C88C2"/>
<path d="M338.496 259.495H315.325C314.348 259.495 313.556 258.702 313.556 257.724C313.556 256.746 314.348 255.953 315.325 255.953H338.496C339.474 255.953 340.266 256.746 340.266 257.724C340.266 258.702 339.474 259.495 338.496 259.495Z" fill="#0C88C2"/>
<path d="M408.301 215.55H375.177C363.944 215.55 354.837 206.443 354.837 195.21V162.088C354.837 150.855 363.944 141.748 375.177 141.748H408.301C419.534 141.748 428.641 150.855 428.641 162.088V195.21C428.641 206.443 419.534 215.55 408.301 215.55Z" fill="#0C88C2"/>
<path d="M372.166 197.454C362.652 186.665 363.69 170.148 374.479 160.635C385.269 151.121 401.786 152.158 411.3 162.947C412.061 163.809 411.978 165.125 411.115 165.886C410.253 166.647 408.937 166.564 408.176 165.702C400.181 156.635 386.301 155.763 377.234 163.758C368.167 171.752 367.295 185.633 375.29 194.7C383.285 203.766 397.165 204.64 406.232 196.644C412.193 191.388 414.846 183.293 413.154 175.519C412.909 174.395 413.622 173.286 414.746 173.041C415.869 172.797 416.979 173.509 417.224 174.632C419.236 183.882 416.08 193.513 408.986 199.767C398.197 209.281 381.68 208.244 372.166 197.454Z" fill="white"/>
<path d="M396.956 166.544C396.668 166.217 396.479 165.796 396.443 165.329C396.354 164.182 397.211 163.18 398.357 163.092L407.481 162.386L406.775 153.264C406.687 152.117 407.545 151.116 408.691 151.027C409.838 150.938 410.839 151.795 410.928 152.942L411.794 164.141C411.837 164.692 411.659 165.237 411.3 165.656C410.94 166.076 410.429 166.336 409.878 166.378L398.68 167.244C398.002 167.296 397.374 167.018 396.956 166.544Z" fill="white"/>
<path d="M380.178 178.11C380.178 177.253 379.806 176.825 379.063 176.825C378.645 176.825 378.34 176.97 378.147 177.263C377.953 177.556 377.845 178.011 377.824 178.628H375.204C375.267 177.279 375.675 176.265 376.428 175.585C377.181 174.905 378.132 174.566 379.282 174.566C380.486 174.566 381.394 174.87 382.005 175.476C382.616 176.083 382.923 176.871 382.923 177.843C382.923 178.921 382.509 179.974 381.683 181.004C380.857 182.034 379.868 182.905 378.718 183.616H383.094V185.78H375.19V183.774C378.515 181.4 380.178 179.511 380.178 178.11Z" fill="white"/>
<path d="M384.225 183.868V181.625L389.291 174.676H392.177V181.531H393.511V183.868H392.177V185.906H389.464V183.868H384.225ZM389.684 177.781L386.955 181.531H389.684V177.781Z" fill="white"/>
<path d="M400.57 171.005L396.35 188.855H393.762L397.981 171.005H400.57Z" fill="white"/>
<path d="M407.896 176.699L403.927 185.907H401.151L405.167 177.013H400.46V174.707H407.896V176.699Z" fill="white"/>
<path d="M156.232 198.177H103.212C93.7769 198.177 86.1279 190.529 86.1279 181.094V153.272C86.1279 143.837 93.7769 136.189 103.212 136.189H156.232C165.667 136.189 173.316 143.837 173.316 153.272V181.094C173.316 190.529 165.667 198.177 156.232 198.177Z" fill="#0C88C2"/>
<path d="M111.531 156.113C111.531 160.123 108.28 163.374 104.27 163.374C100.259 163.374 97.0088 160.123 97.0088 156.113C97.0088 152.103 100.259 148.852 104.27 148.852C108.28 148.852 111.531 152.103 111.531 156.113Z" fill="white"/>
<path d="M156.006 153.318H119.27C118.036 153.318 117.035 152.318 117.035 151.085C117.035 149.852 118.036 148.852 119.27 148.852H156.006C157.239 148.852 158.239 149.852 158.239 151.085C158.239 152.318 157.239 153.318 156.006 153.318Z" fill="white"/>
<path d="M156.006 163.47H119.27C118.036 163.47 117.035 162.47 117.035 161.237C117.035 160.003 118.036 159.004 119.27 159.004H156.006C157.239 159.004 158.239 160.003 158.239 161.237C158.239 162.47 157.239 163.47 156.006 163.47Z" fill="white"/>
<path d="M111.531 178.157C111.531 182.167 108.28 185.418 104.27 185.418C100.259 185.418 97.0088 182.167 97.0088 178.157C97.0088 174.147 100.259 170.896 104.27 170.896C108.28 170.896 111.531 174.147 111.531 178.157Z" fill="white"/>
<path d="M156.006 175.363H119.27C118.036 175.363 117.035 174.363 117.035 173.13C117.035 171.896 118.036 170.897 119.27 170.897H156.006C157.239 170.897 158.239 171.896 158.239 173.13C158.239 174.363 157.239 175.363 156.006 175.363Z" fill="white"/>
<path d="M156.006 185.515H119.27C118.036 185.515 117.035 184.515 117.035 183.282C117.035 182.049 118.036 181.049 119.27 181.049H156.006C157.239 181.049 158.239 182.049 158.239 183.282C158.239 184.515 157.239 185.515 156.006 185.515Z" fill="white"/>
<path d="M115.544 336.085H89.6144C80.8204 336.085 73.6914 328.957 73.6914 320.163V294.233C73.6914 285.44 80.8204 278.311 89.6144 278.311H115.544C124.338 278.311 131.467 285.44 131.467 294.233V320.163C131.467 328.957 124.338 336.085 115.544 336.085Z" fill="#0C88C2"/>
<path d="M110.782 293.997C112.554 295.531 113.44 297.732 113.44 300.601C113.44 303.274 112.575 305.37 110.845 306.889C109.115 308.409 106.8 309.197 103.903 309.253V313.008H97.1085V304.61H99.9355C101.962 304.61 103.537 304.322 104.662 303.746C105.787 303.169 106.35 302.135 106.35 300.643C106.35 299.687 106.083 298.942 105.549 298.407C105.014 297.873 104.297 297.605 103.396 297.605C102.384 297.605 101.589 297.908 101.012 298.512C100.435 299.118 100.147 299.884 100.147 300.812H93.3525C93.2955 299.125 93.6545 297.584 94.4285 296.191C95.2015 294.799 96.3765 293.702 97.9515 292.9C99.5275 292.098 101.427 291.697 103.65 291.697C106.632 291.697 109.009 292.464 110.782 293.997ZM104.283 323.685H96.7705V316.468H104.283V323.685Z" fill="white"/>
<path d="M259.804 131.485H226.681C215.448 131.485 206.34 122.379 206.34 111.145V98.0226C206.34 86.7886 215.448 77.6826 226.681 77.6826H259.804C271.037 77.6826 280.144 86.7886 280.144 98.0226V111.145C280.144 122.379 271.037 131.485 259.804 131.485Z" fill="#0C88C2"/>
<path d="M263.563 104.584C263.563 107.566 261.146 109.983 258.164 109.983C255.182 109.983 252.765 107.566 252.765 104.584C252.765 101.602 255.182 99.1846 258.164 99.1846C261.146 99.1846 263.563 101.602 263.563 104.584Z" fill="white"/>
<path d="M248.641 104.584C248.641 107.566 246.224 109.983 243.242 109.983C240.26 109.983 237.843 107.566 237.843 104.584C237.843 101.602 240.26 99.1846 243.242 99.1846C246.224 99.1846 248.641 101.602 248.641 104.584Z" fill="white"/>
<path d="M233.72 94.6871C233.72 97.6691 231.303 100.086 228.321 100.086C225.339 100.086 222.922 97.6691 222.922 94.6871C222.922 91.7051 225.339 89.2881 228.321 89.2881C231.303 89.2881 233.72 91.7051 233.72 94.6871Z" fill="white"/>
</g>
</g>
<defs>
<clipPath id="clip0_35_1651">
<rect width="500" height="500" fill="white"/>
</clipPath>
</defs>
</svg>
